<?xml version="1.0" encoding="UTF-8"?>
<svg width="24px" height="24px" viewBox="0 0 24 24" version="1.1" xmlns="http://www.w3.org/2000/svg" xmlns:xlink="http://www.w3.org/1999/xlink">
    <!-- Generator: Sketch 43.2 (39069) - http://www.bohemiancoding.com/sketch -->
    <title>airplay-audio</title>
    <desc>Created with Sketch.</desc>
    <defs></defs>
    <g id="Page-1" stroke="none" stroke-width="1" fill="none" fill-rule="evenodd">
        <g id="Artboard-4" transform="translate(-796.000000, -423.000000)" fill="#333333">
            <g id="158" transform="translate(796.000000, 423.000000)">
                <path d="M7.63587473,21 C8.95463723,21.6406581 10.4353542,22 12,22 C13.5646458,22 15.0453628,21.6406581 16.3641253,21 L7.63587473,21 Z M5.04363879,19.1839544 C3.16670467,17.3661182 2,14.8193083 2,12 C2,6.4771525 6.4771525,2 12,2 C17.5228475,2 22,6.4771525 22,12 C22,14.8193083 20.8332953,17.3661182 18.9563612,19.1839544 L17.6576498,17.6560586 C19.1048975,16.2084062 20,14.2087343 20,12 C20,7.581722 16.418278,4 12,4 C7.581722,4 4,7.581722 4,12 C4,14.2087343 4.89510247,16.2084062 6.3423502,17.6560586 L5.04363879,19.1839544 Z M6.99243595,16.8912518 C5.75970454,15.6293915 5,13.903415 5,12 C5,8.13400675 8.13400675,5 12,5 C15.8659932,5 19,8.13400675 19,12 C19,13.903415 18.2402955,15.6293915 17.0075641,16.8912518 L15.7044547,15.358182 C16.509492,14.4706714 17,13.2926178 17,12 C17,9.23857625 14.7614237,7 12,7 C9.23857625,7 7,9.23857625 7,12 C7,13.2926178 7.49050796,14.4706714 8.29554527,15.358182 L6.99243595,16.8912518 Z M8.95006647,14.5881571 C8.35749541,13.8905488 8,12.9870231 8,12 C8,9.790861 9.790861,8 12,8 C14.209139,8 16,9.790861 16,12 C16,12.9870231 15.6425046,13.8905488 15.0499335,14.5881571 L13.7191828,13.022568 C13.8975396,12.7233523 14,12.3736416 14,12 C14,10.8954305 13.1045695,10 12,10 C10.8954305,10 10,10.8954305 10,12 C10,12.3736416 10.1024604,12.7233523 10.2808172,13.022568 L8.95006647,14.5881571 Z" id="Combined-Shape" fill-rule="nonzero"></path>
                <polygon id="Triangle" stroke="#333333" stroke-width="2" stroke-linejoin="round" points="12 15 17 21 7 21"></polygon>
            </g>
        </g>
    </g>
</svg>