<?xml version="1.0" encoding="UTF-8"?>
<svg width="24px" height="24px" viewBox="0 0 24 24" version="1.1" xmlns="http://www.w3.org/2000/svg" xmlns:xlink="http://www.w3.org/1999/xlink">
    <!-- Generator: Sketch 43.2 (39069) - http://www.bohemiancoding.com/sketch -->
    <title>avocado</title>
    <desc>Created with Sketch.</desc>
    <defs>
        <path d="M12,22 C15.8659932,22 19,18.9066946 19,15.0909091 C19,13 17.5,10 17,8.05003561 C16.0707221,4.42591783 14.5,2 12,2 C9.5,2 7.93175743,4.41624797 7,8.05003561 C6.5,10 5,13 5,15.0909091 C5,18.9066946 8.13400675,22 12,22 Z" id="path-1"></path>
    </defs>
    <g id="Page-1" stroke="none" stroke-width="1" fill="none" fill-rule="evenodd">
        <g id="Artboard-4" transform="translate(-136.000000, -819.000000)">
            <g id="323" transform="translate(136.000000, 819.000000)">
                <circle id="Oval-174" fill="#333333" cx="12" cy="15" r="3"></circle>
                <g id="Oval-175" stroke-width="2" stroke="#333333">
                    <path stroke-opacity="0.246376812" d="M12,21 C8.68338655,21 6,18.3514626 6,15.0909091 C6,14.3678728 6.22119142,13.4195126 6.66599877,12.1104027 C6.7666663,11.8141287 6.87559498,11.5071603 7.01986133,11.1101821 C7.76742526,9.05310829 7.79651408,8.96978285 7.96866277,8.29841521 C8.87565492,4.76121044 10.2420227,3 12,3 C13.7559531,3 15.1258613,4.76712363 16.0313372,8.29841521 C16.2034859,8.96978285 16.2325747,9.05310829 16.9801387,11.1101821 C17.124405,11.5071603 17.2333337,11.8141287 17.3340012,12.1104027 C17.7788086,13.4195126 18,14.3678728 18,15.0909091 C18,18.3514626 15.3166135,21 12,21 Z"></path>
                    <use xlink:href="#path-1"></use>
                </g>
            </g>
        </g>
    </g>
</svg>