<?xml version="1.0" encoding="UTF-8"?>
<svg width="24px" height="24px" viewBox="0 0 24 24" version="1.1" xmlns="http://www.w3.org/2000/svg" xmlns:xlink="http://www.w3.org/1999/xlink">
    <!-- Generator: Sketch 43.2 (39069) - http://www.bohemiancoding.com/sketch -->
    <title>bulb</title>
    <desc>Created with Sketch.</desc>
    <defs></defs>
    <g id="Page-1" stroke="none" stroke-width="1" fill="none" fill-rule="evenodd">
        <g id="Artboard-4" transform="translate(-92.000000, -335.000000)">
            <g id="102" transform="translate(92.000000, 335.000000)">
                <path d="M9,18 L15,18 C15,14.5 19,14 19,9 C19,5.13400675 15.8659932,2 12,2 C8.13400675,2 5,5.13400675 5,9 C5,14 9,15 9,18 Z" id="Oval-28" stroke="#333333" stroke-width="2" stroke-linejoin="round"></path>
                <rect id="Rectangle-49" fill="#333333" x="9" y="20" width="6" height="1" rx="0.5"></rect>
                <rect id="Rectangle-50" fill="#333333" x="10" y="22" width="4" height="1" rx="0.5"></rect>
                <path d="M11,13 L11,18 L13,18 L13,13 L14,13 C15.1045695,13 16,12.1045695 16,11 C16,9.8954305 15.1045695,9 14,9 C12.8954305,9 12,9.8954305 12,11 C12,9.8954305 11.1045695,9 10,9 C8.8954305,9 8,9.8954305 8,11 C8,12.1045695 8.8954305,13 10,13 L11,13 Z" id="Combined-Shape" fill="#333333" opacity="0.5"></path>
            </g>
        </g>
    </g>
</svg>