<?xml version="1.0" encoding="UTF-8"?>
<svg width="24px" height="24px" viewBox="0 0 24 24" version="1.1" xmlns="http://www.w3.org/2000/svg" xmlns:xlink="http://www.w3.org/1999/xlink">
    <!-- Generator: Sketch 43.2 (39069) - http://www.bohemiancoding.com/sketch -->
    <title>calculator-alt</title>
    <desc>Created with Sketch.</desc>
    <defs></defs>
    <g id="Page-1" stroke="none" stroke-width="1" fill="none" fill-rule="evenodd">
        <g id="Artboard-4" transform="translate(-664.000000, -599.000000)">
            <g id="236" transform="translate(664.000000, 599.000000)">
                <rect id="Rectangle-179" stroke="#333333" stroke-width="2" x="3" y="3" width="18" height="18" rx="2"></rect>
                <rect id="Rectangle-181" fill="#333333" x="7" y="5" width="1" height="5" rx="0.5"></rect>
                <rect id="Rectangle-181" fill="#333333" transform="translate(7.500000, 7.500000) rotate(-90.000000) translate(-7.500000, -7.500000) " x="7" y="5" width="1" height="5" rx="0.5"></rect>
                <rect id="Rectangle-181" fill="#333333" transform="translate(16.500000, 7.500000) rotate(-90.000000) translate(-16.500000, -7.500000) " x="16" y="5" width="1" height="5" rx="0.5"></rect>
                <rect id="Rectangle-181" fill="#333333" transform="translate(16.500000, 15.500000) rotate(-90.000000) translate(-16.500000, -15.500000) " x="16" y="13" width="1" height="5" rx="0.5"></rect>
                <rect id="Rectangle-181" fill="#333333" transform="translate(16.500000, 17.500000) rotate(-90.000000) translate(-16.500000, -17.500000) " x="16" y="15" width="1" height="5" rx="0.5"></rect>
                <path d="M13,11 L13,3 L11,3 L11,11 L3,11 L3,13 L11,13 L11,21 L13,21 L13,13 L21,13 L21,11 L13,11 Z" id="Combined-Shape" fill="#333333"></path>
                <path d="M9,15 L6.14956144,17.8504386" id="Path-175" stroke="#333333" stroke-width="1.2" stroke-linecap="round"></path>
                <path d="M9,15 L6,17.8504386" id="Path-175" stroke="#333333" stroke-width="1.2" stroke-linecap="round" transform="translate(7.500000, 16.425219) scale(-1, 1) translate(-7.500000, -16.425219) "></path>
            </g>
        </g>
    </g>
</svg>