<?xml version="1.0" encoding="UTF-8"?>
<svg width="24px" height="24px" viewBox="0 0 24 24" version="1.1" xmlns="http://www.w3.org/2000/svg" xmlns:xlink="http://www.w3.org/1999/xlink">
    <!-- Generator: Sketch 43.2 (39069) - http://www.bohemiancoding.com/sketch -->
    <title>car</title>
    <desc>Created with Sketch.</desc>
    <defs></defs>
    <g id="Page-1" stroke="none" stroke-width="1" fill="none" fill-rule="evenodd">
        <g id="Artboard-4" transform="translate(-576.000000, -731.000000)">
            <g id="293" transform="translate(576.000000, 731.000000)">
                <path d="M2.4428885,9.83566725 C2.75057268,9.37414097 3.44494629,9 3.99339768,9 L20.0066023,9 C20.5552407,9 21.2452393,9.36785889 21.5571115,9.83566725 L21.8947051,10.3420576 C22.5051426,11.2577139 23,12.8982606 23,13.9979131 L23,17.009222 C23,17.5564136 22.5621443,18.0995398 22.019805,18.2072006 C22.019805,18.2072006 19.1352752,19 12,19 C4.8647248,19 1.95442469,18.2023649 1.95442469,18.2023649 C1.42731049,18.0906019 1,17.5490248 1,17.009222 L1,13.9979131 C1,12.8944962 1.49438214,11.2584268 2.10529494,10.3420576 L2.4428885,9.83566725 Z" id="Rectangle-200" stroke="#333333" stroke-width="2" stroke-linecap="round" stroke-linejoin="round"></path>
                <path d="M8.5,14 C9.5,14 14.5,14 15.5,14 C16.5,14 17.5,15 17.5,15.5 C17.5,16 17,17 16.5,17 C16,17 8,17 7.5,17 C7,17 6.5,16 6.5,15.5 C6.5,15 7.5,14 8.5,14 Z" id="Rectangle-202" fill="#333333"></path>
                <ellipse id="Oval-26" fill="#333333" transform="translate(18.824508, 13.230088) rotate(-10.000000) translate(-18.824508, -13.230088) " cx="18.824508" cy="13.2300878" rx="1.5" ry="2"></ellipse>
                <ellipse id="Oval-26" fill="#333333" transform="translate(5.174484, 13.230088) rotate(10.000000) translate(-5.174484, -13.230088) " cx="5.17448357" cy="13.2300878" rx="1.5" ry="2"></ellipse>
                <path d="M20,18 L24,17 L24,21.0001925 C24,21.5523709 23.5566468,22 22.9906311,22 L21.0093689,22 C20.4519098,22 20,21.5566468 20,20.9906311 L20,18 Z" id="Rectangle-201" fill="#333333"></path>
                <path d="M0,17 L4,19 L4,21.0010434 C4,21.5527519 3.55664682,22 2.9906311,22 L1.0093689,22 C0.451909848,22 0,21.5562834 0,21.0001925 L0,17 Z" id="Rectangle-201" fill="#333333"></path>
                <path d="M3.80243218,4.9878391 C3.91154587,4.44227063 4.42796135,3.90046024 4.97678638,3.78301489 C4.97678638,3.78301489 8,3 12,3 C16,3 19.0470428,3.78792572 19.0470428,3.78792572 C19.5733465,3.90505111 20.0887433,4.44371665 20.1975678,4.9878391 L21,9 L3,9 L3.80243218,4.9878391 Z" id="Rectangle-203" stroke="#333333" stroke-width="2"></path>
                <path d="M24,8.5 C24,7.5 23.5,7 22.5,7 C21.5,7 21,8.5 21,10 C22.5,10 24,9.5 24,8.5 Z" id="Oval-161" fill="#333333"></path>
                <path d="M3,8.5 C3,7.5 2.5,7 1.5,7 C0.5,7 0,8.5 0,10 C1.5,10 3,9.5 3,8.5 Z" id="Oval-161" fill="#333333" transform="translate(1.500000, 8.500000) scale(-1, 1) translate(-1.500000, -8.500000) "></path>
            </g>
        </g>
    </g>
</svg>