<?xml version="1.0" encoding="UTF-8"?>
<svg width="24px" height="24px" viewBox="0 0 24 24" version="1.1" xmlns="http://www.w3.org/2000/svg" xmlns:xlink="http://www.w3.org/1999/xlink">
    <!-- Generator: Sketch 43.2 (39069) - http://www.bohemiancoding.com/sketch -->
    <title>finder</title>
    <desc>Created with Sketch.</desc>
    <defs></defs>
    <g id="Page-1" stroke="none" stroke-width="1" fill="none" fill-rule="evenodd">
        <g id="Artboard-4" transform="translate(-840.000000, -379.000000)">
            <g id="138" transform="translate(840.000000, 379.000000)">
                <rect id="Rectangle-87" stroke="#333333" stroke-width="2" x="2" y="3" width="20" height="18" rx="2"></rect>
                <polygon id="Path-70" fill="#333333" opacity="0.100000001" points="13 4.5 11 13 13 13 14 20 22 20 22 4"></polygon>
                <path d="M14,3 C14,3 11,9 11,13 L13,13 C13,17 14,21 14,21" id="Path-69" stroke="#333333" stroke-width="2" stroke-linejoin="round"></path>
                <rect id="Rectangle-89" fill="#333333" x="6" y="7" width="2" height="4" rx="1"></rect>
                <rect id="Rectangle-89" fill="#333333" x="16" y="7" width="2" height="4" rx="1"></rect>
                <path d="M7,15 C7,15 8,17 12,17 C16,17 17,15 17,15" id="Path-71" stroke="#333333" stroke-width="2" stroke-linecap="round" stroke-linejoin="round"></path>
            </g>
        </g>
    </g>
</svg>