<?xml version="1.0" encoding="UTF-8"?>
<svg width="24px" height="24px" viewBox="0 0 24 24" version="1.1" xmlns="http://www.w3.org/2000/svg" xmlns:xlink="http://www.w3.org/1999/xlink">
    <!-- Generator: Sketch 43.2 (39069) - http://www.bohemiancoding.com/sketch -->
    <title>gravestone</title>
    <desc>Created with Sketch.</desc>
    <defs></defs>
    <g id="Page-1" stroke="none" stroke-width="1" fill="none" fill-rule="evenodd">
        <g id="Artboard-4" transform="translate(-488.000000, -467.000000)">
            <g id="171" transform="translate(488.000000, 467.000000)">
                <path d="M4,21 L2.88305092,10.9474583 L2.88305092,10.9474583 C2.39535536,6.55819827 5.56375708,2.58073446 9.95248561,2.06441346 L10.0519425,2.05271265 C14.9938182,1.47131551 19.4011229,5.01122888 19.8947051,9.94705057 L21,21" id="Rectangle-112" stroke="#333333" stroke-width="2" stroke-linejoin="round"></path>
                <polyline id="Path-111" stroke="#333333" stroke-width="2" stroke-linecap="round" stroke-linejoin="round" points="2 21.5 3.5 22 5.5 21.25 8 22 11 21.25 13.5 22 15 21 16.5 22 20 21.25 22 22"></polyline>
                <text id="RIP" opacity="0.75" transform="translate(11.740538, 13.467941) rotate(-5.000000) translate(-11.740538, -13.467941) " font-family="GothamRounded-Bold, Gotham Rounded" font-size="6" font-weight="bold" fill="#333333">
                    <tspan x="6.24053807" y="15.4679407">RIP</tspan>
                </text>
                <polyline id="Path-113" stroke="#333333" stroke-width="2" stroke-linecap="round" stroke-linejoin="round" points="13 2.5 12 4.5 13.5 5.5 12 8"></polyline>
            </g>
        </g>
    </g>
</svg>