<?xml version="1.0" encoding="UTF-8"?>
<svg width="24px" height="24px" viewBox="0 0 24 24" version="1.1" xmlns="http://www.w3.org/2000/svg" xmlns:xlink="http://www.w3.org/1999/xlink">
    <!-- Generator: Sketch 43.2 (39069) - http://www.bohemiancoding.com/sketch -->
    <title>hashtag</title>
    <desc>Created with Sketch.</desc>
    <defs></defs>
    <g id="Page-1" stroke="none" stroke-width="1" fill="none" fill-rule="evenodd">
        <g id="Artboard-4" transform="translate(-136.000000, -907.000000)" stroke="#333333" stroke-width="2" fill-rule="nonzero">
            <g id="363" transform="translate(136.000000, 907.000000)">
                <path d="M11.7217878,11 L13.6532122,11 L13.2782122,13 L11.3467878,13 L11.7217878,11 Z M12.4717878,7 L12.9590592,4.40121899 C13.1919889,3.35559446 12.5121274,2.28724065 11.4338609,2.04762588 C10.3555945,1.80801111 9.28724065,2.48787263 9.04762588,3.56613908 L8.4033206,7 L6.5,7 C5.3954305,7 4.5,7.8954305 4.5,9 C4.5,10.1045695 5.3954305,11 6.5,11 L7.65321219,11 L7.27821219,13 L5,13 C3.8954305,13 3,13.8954305 3,15 C3,16.1045695 3.8954305,17 5,17 L6.52821219,17 L6.04094075,19.598781 C5.80801111,20.6444055 6.48787263,21.7127594 7.56613908,21.9523741 C8.64440554,22.1919889 9.71275935,21.5121274 9.95237412,20.4338609 L10.5966794,17 L12.5282122,17 L12.0409408,19.598781 C11.8080111,20.6444055 12.4878726,21.7127594 13.5661391,21.9523741 C14.6444055,22.1919889 15.7127594,21.5121274 15.9523741,20.4338609 L16.5966794,17 L18.5,17 C19.6045695,17 20.5,16.1045695 20.5,15 C20.5,13.8954305 19.6045695,13 18.5,13 L17.3467878,13 L17.7217878,11 L20,11 C21.1045695,11 22,10.1045695 22,9 C22,7.8954305 21.1045695,7 20,7 L18.4717878,7 L18.9590592,4.40121899 C19.1919889,3.35559446 18.5121274,2.28724065 17.4338609,2.04762588 C16.3555945,1.80801111 15.2872406,2.48787263 15.0476259,3.56613908 L14.4033206,7 L12.4717878,7 Z" id="Combined-Shape"></path>
            </g>
        </g>
    </g>
</svg>