<?xml version="1.0" encoding="UTF-8"?>
<svg width="24px" height="24px" viewBox="0 0 24 24" version="1.1" xmlns="http://www.w3.org/2000/svg" xmlns:xlink="http://www.w3.org/1999/xlink">
    <defs></defs>
    <g id="Page-1" stroke="none" stroke-width="1" fill="none" fill-rule="evenodd">
        <g id="Artboard-4" transform="translate(-48.000000, -907.000000)" stroke="#333333" stroke-width="2">
            <g id="361" transform="translate(48.000000, 907.000000)">
                <path d="M2.73604563,10.9679478 C2.97974926,10.7538639 3.25296007,10.5138591 4.02315564,9.8372731 C5.43250922,8.59921233 5.43250922,8.59921233 7.05761594,7.17162105 C10.6992695,3.97257398 10.6992695,3.97257398 11.913154,2.90622496 C11.9521381,2.87197903 12.0698746,2.87111518 12.1122564,2.90703363 L17.3534607,7.34894024 L19,8.74437789 L19,6.58605957 L19,6 L20,6 L20,9.29333496 L20,9.73355354 L20.3246668,10.0308478 C20.6437832,10.3230595 20.6894909,10.3649135 21.4030324,11.0182965 C21.3793041,11.0191779 21.3558938,11.0200872 21.3328012,11.0210235 C21.1323948,11.0291484 20.9944978,11.0375486 20.9189075,11.0436987 L20,11.1184614 L20,12.0404053 L20,20.0084645 C20,20.5559323 19.5552337,21 19.0049107,21 L4.99508929,21 C4.44271433,21 4,20.5574808 4,20.000385 L4,12 L4,11.2085547 L3.22972061,11.0267434 C3.13981797,11.0055234 3.00741202,10.9875461 2.80604696,10.9727638 C2.78340358,10.9711016 2.76007347,10.9694957 2.73604563,10.9679478 Z" id="Rectangle-249"></path>
                <path d="M12,5.31707778 L18,10.4599349 L18,19 L6,19 L6,10.4599349 L12,5.31707778 Z" id="Path-289" stroke-opacity="0.49756567"></path>
                <path d="M12,7.9501674 L16,11.3798793 L16,17 L8,17 L8,11.3798793 L12,7.9501674 Z" id="Path-290" stroke-opacity="0.248103487"></path>
            </g>
        </g>
    </g>
</svg>