<?xml version="1.0" encoding="UTF-8"?>
<svg width="24px" height="24px" viewBox="0 0 24 24" version="1.1" xmlns="http://www.w3.org/2000/svg" xmlns:xlink="http://www.w3.org/1999/xlink">
    <!-- Generator: Sketch 43.2 (39069) - http://www.bohemiancoding.com/sketch -->
    <title>key</title>
    <desc>Created with Sketch.</desc>
    <defs></defs>
    <g id="Page-1" stroke="none" stroke-width="1" fill="none" fill-rule="evenodd" stroke-linecap="round" stroke-linejoin="round">
        <g id="Artboard-4" transform="translate(-444.000000, -379.000000)" stroke="#333333" stroke-width="2">
            <g id="129" transform="translate(444.000000, 379.000000)">
                <path d="M9.5294225,11.7666792 C7.17989311,12.601574 5.54212952,14.8428024 5.54212952,17.4208092 C5.54212952,20.7345177 8.22842102,23.4208092 11.5421295,23.4208092 C14.855838,23.4208092 17.5421295,20.7345177 17.5421295,17.4208092 C17.5421295,14.8588183 15.9234805,12.6224212 13.5841657,11.7773104 L13.3070898,10.5014928 L14.4861726,8.73286869 L14.8559727,8.17816849 L14.4861726,7.62346829 L13.4417591,6.05684815 L14.4861726,4.490228 L14.9409179,3.80810992 L14.361229,3.22842102 L12.9470155,1.81420746 L12.2399087,1.10710068 L11.5328019,1.81420746 L9.76503496,3.58197441 L9.46896211,3.87804726 L9.47217111,4.29674521 L9.5294225,11.7666792 Z M11.5730212,19.7847702 C11.0207365,19.7847702 10.5730212,19.337055 10.5730212,18.7847702 C10.5730212,18.2324855 11.0207365,17.7847702 11.5730212,17.7847702 C12.125306,17.7847702 12.5730212,18.2324855 12.5730212,18.7847702 C12.5730212,19.337055 12.125306,19.7847702 11.5730212,19.7847702 Z" id="Combined-Shape" transform="translate(11.542130, 12.471062) scale(1, -1) rotate(-45.000000) translate(-11.542130, -12.471062) "></path>
            </g>
        </g>
    </g>
</svg>