<?xml version="1.0" encoding="UTF-8"?>
<svg width="24px" height="24px" viewBox="0 0 24 24" version="1.1" xmlns="http://www.w3.org/2000/svg" xmlns:xlink="http://www.w3.org/1999/xlink">
    <!-- Generator: Sketch 43.2 (39069) - http://www.bohemiancoding.com/sketch -->
    <title>life-ring</title>
    <desc>Created with Sketch.</desc>
    <defs></defs>
    <g id="Page-1" stroke="none" stroke-width="1" fill="none" fill-rule="evenodd">
        <g id="Artboard-4" transform="translate(-268.000000, -335.000000)">
            <g id="106" transform="translate(268.000000, 335.000000)">
                <path d="M12,21 C7.02943725,21 3,16.9705627 3,12 C3,7.02943725 7.02943725,3 12,3 C16.9705627,3 21,7.02943725 21,12 C21,16.9705627 16.9705627,21 12,21 Z M12,16 C14.209139,16 16,14.209139 16,12 C16,9.790861 14.209139,8 12,8 C9.790861,8 8,9.790861 8,12 C8,14.209139 9.790861,16 12,16 Z" id="Combined-Shape" stroke="#333333" stroke-width="2"></path>
                <polygon id="Rectangle-60" fill="#333333" points="9 4 15 4 13 9 11 9"></polygon>
                <polygon id="Rectangle-60" fill="#333333" transform="translate(12.000000, 17.500000) scale(1, -1) translate(-12.000000, -17.500000) " points="9 15 15 15 13 20 11 20"></polygon>
                <polygon id="Rectangle-60" fill="#333333" transform="translate(17.500000, 12.000000) scale(1, -1) rotate(-270.000000) translate(-17.500000, -12.000000) " points="14.5 9.5 20.5 9.5 18.5 14.5 16.5 14.5"></polygon>
                <polygon id="Rectangle-60" fill="#333333" transform="translate(6.500000, 12.000000) rotate(-90.000000) translate(-6.500000, -12.000000) " points="3.5 9.5 9.5 9.5 7.5 14.5 5.5 14.5"></polygon>
                <path d="M13,2.99999999 C13,2.99999999 18,-2.73803717e-08 21,2.99999995 C24,5.99999992 21,10.9999999 21,10.9999999" id="Path-30" stroke="#333333"></path>
                <path d="M1.66666654,3.00000009 C1.66666654,3.00000009 6.66666671,7.53285236e-08 9.66666671,3.00000005 C12.6666667,6.00000003 9.66666654,10.9999998 9.66666654,10.9999998" id="Path-30" stroke="#333333" transform="translate(6.333333, 6.333333) scale(-1, 1) translate(-6.333333, -6.333333) "></path>
                <path d="M13,14.3333333 C13,14.3333333 18,11.3333333 21,14.3333333 C24,17.3333333 21,22.3333333 21,22.3333333" id="Path-30" stroke="#333333" transform="translate(17.666667, 17.666667) scale(1, -1) translate(-17.666667, -17.666667) "></path>
                <path d="M1.6666665,14.3333336 C1.6666665,14.3333336 6.66666667,11.3333337 9.66666667,14.3333337 C12.6666667,17.3333336 9.66666667,22.3333334 9.66666667,22.3333334" id="Path-30" stroke="#333333" transform="translate(6.333333, 17.666667) scale(-1, -1) translate(-6.333333, -17.666667) "></path>
            </g>
        </g>
    </g>
</svg>