<?xml version="1.0" encoding="UTF-8"?>
<svg width="24px" height="24px" viewBox="0 0 24 24" version="1.1" xmlns="http://www.w3.org/2000/svg" xmlns:xlink="http://www.w3.org/1999/xlink">
    <!-- Generator: Sketch 43.2 (39069) - http://www.bohemiancoding.com/sketch -->
    <title>london-eye</title>
    <desc>Created with Sketch.</desc>
    <defs></defs>
    <g id="Page-1" stroke="none" stroke-width="1" fill="none" fill-rule="evenodd">
        <g id="Artboard-4" transform="translate(-752.000000, -775.000000)">
            <g id="317" transform="translate(747.000000, 770.000000)">
                <circle id="Oval-171" stroke="#333333" stroke-width="2" cx="17" cy="17" r="9"></circle>
                <path d="M17,8 C16.1715729,8 15.5,7.32842712 15.5,6.5 C15.5,5.67157288 16.1715729,5 17,5 C17.8284271,5 18.5,5.67157288 18.5,6.5 C18.5,7.32842712 17.8284271,8 17,8 Z M27.5,18.5 C26.6715729,18.5 26,17.8284271 26,17 C26,16.1715729 26.6715729,15.5 27.5,15.5 C28.3284271,15.5 29,16.1715729 29,17 C29,17.8284271 28.3284271,18.5 27.5,18.5 Z M6.5,18.5 C5.67157288,18.5 5,17.8284271 5,17 C5,16.1715729 5.67157288,15.5 6.5,15.5 C7.32842712,15.5 8,16.1715729 8,17 C8,17.8284271 7.32842712,18.5 6.5,18.5 Z M17,29 C16.1715729,29 15.5,28.3284271 15.5,27.5 C15.5,26.6715729 16.1715729,26 17,26 C17.8284271,26 18.5,26.6715729 18.5,27.5 C18.5,28.3284271 17.8284271,29 17,29 Z" id="Combined-Shape" fill="#333333"></path>
                <path d="M17,8 C16.1715729,8 15.5,7.32842712 15.5,6.5 C15.5,5.67157288 16.1715729,5 17,5 C17.8284271,5 18.5,5.67157288 18.5,6.5 C18.5,7.32842712 17.8284271,8 17,8 Z M27.5,18.5 C26.6715729,18.5 26,17.8284271 26,17 C26,16.1715729 26.6715729,15.5 27.5,15.5 C28.3284271,15.5 29,16.1715729 29,17 C29,17.8284271 28.3284271,18.5 27.5,18.5 Z M6.5,18.5 C5.67157288,18.5 5,17.8284271 5,17 C5,16.1715729 5.67157288,15.5 6.5,15.5 C7.32842712,15.5 8,16.1715729 8,17 C8,17.8284271 7.32842712,18.5 6.5,18.5 Z M17,29 C16.1715729,29 15.5,28.3284271 15.5,27.5 C15.5,26.6715729 16.1715729,26 17,26 C17.8284271,26 18.5,26.6715729 18.5,27.5 C18.5,28.3284271 17.8284271,29 17,29 Z" id="Combined-Shape" fill="#333333" transform="translate(17.000000, 17.000000) rotate(-45.000000) translate(-17.000000, -17.000000) "></path>
                <polyline id="Path-244" stroke="#333333" stroke-width="2" stroke-linecap="round" stroke-linejoin="round" points="12 28 17 17 22 28"></polyline>
                <path d="M17,9 L17,25" id="Path-245" stroke="#333333" opacity="0.200000003"></path>
                <path d="M9,17 L25,17" id="Path-245" stroke="#333333" opacity="0.200000003"></path>
                <path d="M23,11 L11,23" id="Path-245" stroke="#333333" opacity="0.200000003"></path>
                <path d="M11,11 L23,23" id="Path-245" stroke="#333333" opacity="0.200000003"></path>
            </g>
        </g>
    </g>
</svg>