<?xml version="1.0" encoding="UTF-8"?>
<svg width="24px" height="24px" viewBox="0 0 24 24" version="1.1" xmlns="http://www.w3.org/2000/svg" xmlns:xlink="http://www.w3.org/1999/xlink">
    <!-- Generator: Sketch 43.2 (39069) - http://www.bohemiancoding.com/sketch -->
    <title>magic-hat</title>
    <desc>Created with Sketch.</desc>
    <defs></defs>
    <g id="Page-1" stroke="none" stroke-width="1" fill="none" fill-rule="evenodd">
        <g id="Artboard-4" transform="translate(-708.000000, -379.000000)">
            <g id="135" transform="translate(708.000000, 379.000000)">
                <rect id="Rectangle-84" fill="#333333" x="2" y="6" width="20" height="2" rx="1"></rect>
                <path d="M7,7 L17,7 L18.7176907,19.0238352 C18.8736058,20.1152409 18.1029399,21 16.9941413,21 L7.00585866,21 C5.89805351,21 5.12662623,20.1136164 5.28230926,19.0238352 L7,7 Z" id="Rectangle-85" stroke="#333333" stroke-width="2"></path>
                <rect id="Rectangle-86" fill="#333333" x="7" y="10" width="10" height="2"></rect>
                <path d="M13,0.497698784 C13,0.21484375 12.7761424,0 12.5,0 C12.2319336,0 12,0.222827336 12,0.497698784 L12,1.00630944 C12,1.55510958 11.5573855,2 11.0063094,2 L10.4976988,2 C10.2148438,2 10,2.22385763 10,2.5 C10,2.76806641 10.2228273,3 10.4976988,3 L11.0063094,3 C11.5551096,3 12,3.44261449 12,3.99369056 L12,4.50230122 C12,4.78515625 12.2238576,5 12.5,5 C12.7680664,5 13,4.77717266 13,4.50230122 L13,3.99369056 C13,3.44489042 13.4426145,3 13.9936906,3 L14.5023012,3 C14.7851562,3 15,2.77614237 15,2.5 C15,2.23193359 14.7771727,2 14.5023012,2 L13.9936906,2 C13.4448904,2 13,1.55738551 13,1.00630944 L13,0.497698784 Z" id="Combined-Shape" fill="#333333"></path>
                <circle id="Oval-71" fill="#333333" cx="18" cy="4" r="1"></circle>
                <path d="M7,2.49538898 C7,2.2157526 6.77614237,2 6.5,2 C6.23193359,2 6,2.2217932 6,2.49538898 L6,2.501056 C6,2.77661516 5.77131733,3 5.501056,3 L5.49538898,3 C5.2157526,3 5,3.22385763 5,3.5 C5,3.76806641 5.2217932,4 5.49538898,4 L5.501056,4 C5.77661516,4 6,4.22868267 6,4.498944 L6,4.50461102 C6,4.7842474 6.22385763,5 6.5,5 C6.76806641,5 7,4.7782068 7,4.50461102 L7,4.498944 C7,4.22338484 7.22868267,4 7.498944,4 L7.50461102,4 C7.7842474,4 8,3.77614237 8,3.5 C8,3.23193359 7.7782068,3 7.50461102,3 L7.498944,3 C7.22338484,3 7,2.77131733 7,2.501056 L7,2.49538898 Z" id="Combined-Shape" fill="#333333"></path>
            </g>
        </g>
    </g>
</svg>