<?xml version="1.0" encoding="UTF-8"?>
<svg width="24px" height="24px" viewBox="0 0 24 24" version="1.1" xmlns="http://www.w3.org/2000/svg" xmlns:xlink="http://www.w3.org/1999/xlink">
    <!-- Generator: Sketch 43.2 (39069) - http://www.bohemiancoding.com/sketch -->
    <title>music</title>
    <desc>Created with Sketch.</desc>
    <defs></defs>
    <g id="Page-1" stroke="none" stroke-width="1" fill="none" fill-rule="evenodd">
        <g id="Artboard-4" transform="translate(-752.000000, -159.000000)" stroke="#333333" stroke-width="2">
            <g id="37" transform="translate(752.000000, 159.000000)">
                <path d="M20,7.5 L20,13.5 L20,16.5 C20,17.8791807 18.8783107,19 17.5,19 C16.1208193,19 15,17.8783107 15,16.5 C15,15.1208193 16.1216893,14 17.5,14 L19,14 L20,14 L20,13 L20,8.4 L20,7.1801961 L18.8038839,7.41941932 L7.80388386,9.61941932 L7,9.7801961 L7,10.6 L7,16.5 L7,19.5 C7,20.8791807 5.87831068,22 4.5,22 C3.12081929,22 2,20.8783107 2,19.5 C2,18.1208193 3.12168932,17 4.5,17 L6,17 L7,17 L7,16 L7,10.0014849 L7,4.99810135 C7,4.36865504 7.53739194,3.71232551 8.15710418,3.58838307 L19.2351281,1.37277828 C19.7030695,1.27919 20,1.52153048 20,1.99810135 L20,7.5 Z" id="Combined-Shape"></path>
            </g>
        </g>
    </g>
</svg>