<?xml version="1.0" encoding="UTF-8"?>
<svg width="24px" height="24px" viewBox="0 0 24 24" version="1.1" xmlns="http://www.w3.org/2000/svg" xmlns:xlink="http://www.w3.org/1999/xlink">
    <!-- Generator: Sketch 43.2 (39069) - http://www.bohemiancoding.com/sketch -->
    <title>newspaper</title>
    <desc>Created with Sketch.</desc>
    <defs></defs>
    <g id="Page-1" stroke="none" stroke-width="1" fill="none" fill-rule="evenodd">
        <g id="Artboard-4" transform="translate(-400.000000, -379.000000)">
            <g id="128" transform="translate(400.000000, 379.000000)">
                <path d="M4,12 L4,5.99791312 C4,4.89449617 4.8926228,4 5.99508929,4 L20.0049107,4 C21.1067681,4 22,4.89706013 22,6.00585866 L22,17.9941413 C22,19.1019465 21.1073772,20 20.0049107,20 L2.5,20" id="Rectangle-77" stroke="#333333" stroke-width="2"></path>
                <rect id="Rectangle-78" stroke="#333333" x="7.5" y="7.5" width="11" height="1" rx="0.5"></rect>
                <path d="M4,6 L4,18.5017548 C4,19.3292128 3.33420277,20 2.5,20 L2.5,20 C1.67157288,20 1,19.3247509 1,18.5017548 L1,7.49824524 C1,6.67078724 1.66579723,6 2.5,6 L4,6 Z" id="Path-48" stroke="#333333" stroke-width="2" stroke-linecap="round" stroke-linejoin="round"></path>
                <rect id="Rectangle-79" fill="#333333" opacity="0.5" x="7" y="11" width="5" height="5"></rect>
                <rect id="Rectangle-80" fill="#333333" opacity="0.5" x="13" y="11" width="6" height="1" rx="0.5"></rect>
                <rect id="Rectangle-80" fill="#333333" opacity="0.5" x="13" y="13" width="6" height="1" rx="0.5"></rect>
                <rect id="Rectangle-80" fill="#333333" opacity="0.5" x="13" y="15" width="6" height="1" rx="0.5"></rect>
                <rect id="Rectangle-80" fill="#333333" opacity="0.200000003" x="4" y="17.5" width="18" height="2"></rect>
            </g>
        </g>
    </g>
</svg>