<?xml version="1.0" encoding="UTF-8"?>
<svg width="24px" height="24px" viewBox="0 0 24 24" version="1.1" xmlns="http://www.w3.org/2000/svg" xmlns:xlink="http://www.w3.org/1999/xlink">
    <!-- Generator: Sketch 43.2 (39069) - http://www.bohemiancoding.com/sketch -->
    <title>purse</title>
    <desc>Created with Sketch.</desc>
    <defs></defs>
    <g id="Page-1" stroke="none" stroke-width="1" fill="none" fill-rule="evenodd">
        <g id="Artboard-4" transform="translate(-180.000000, -379.000000)" stroke="#333333" stroke-width="2">
            <g id="123" transform="translate(180.000000, 379.000000)">
                <path d="M2.62905137,11.7557236 L1.40978728,17.8520441 C1.07247762,19.5385924 2.26364956,21 3.99079514,21 L20.0092049,21 C21.7344705,21 22.9292461,19.5472108 22.5902127,17.8520441 L21.3709486,11.7557236 C21.0637463,10.2197117 19.5796617,9 18.0059397,9 L5.99406028,9 C4.41764103,9 2.93809337,10.2105137 2.62905137,11.7557236 L2.62905137,11.7557236 Z" id="Rectangle-75"></path>
                <path d="M16,12 L16,7 C16,4.790861 14.209139,3 12,3 C9.790861,3 8,4.790861 8,7 L8,12" id="Oval-21" stroke-linecap="round"></path>
            </g>
        </g>
    </g>
</svg>