<?xml version="1.0" encoding="UTF-8"?>
<svg width="24px" height="24px" viewBox="0 0 24 24" version="1.1" xmlns="http://www.w3.org/2000/svg" xmlns:xlink="http://www.w3.org/1999/xlink">
    <!-- Generator: Sketch 43.2 (39069) - http://www.bohemiancoding.com/sketch -->
    <title>rocket</title>
    <desc>Created with Sketch.</desc>
    <defs>
        <linearGradient x1="50%" y1="0%" x2="50%" y2="99.7847577%" id="linearGradient-1">
            <stop stop-color="#333333" offset="0%"></stop>
            <stop stop-color="#333333" stop-opacity="0" offset="100%"></stop>
        </linearGradient>
    </defs>
    <g id="Page-1" stroke="none" stroke-width="1" fill="none" fill-rule="evenodd">
        <g id="Artboard-4" transform="translate(-48.000000, -863.000000)">
            <g id="341" transform="translate(48.000000, 863.000000)">
                <path d="M10,7.00684547 C10,6.45078007 10.2131486,5.61633253 10.4820251,5.13235474 L12.0179749,2.36764526 C12.28419,1.88845802 12.7131486,1.88366747 12.9820251,2.36764526 L14.5179749,5.13235474 C14.78419,5.61154198 15,6.44994876 15,7.00684547 L15,20 L10,20 L10,7.00684547 Z" id="Rectangle-235" stroke="#333333" stroke-width="2" stroke-linejoin="round"></path>
                <path d="M16,17.5 L20,17.5" id="Path-274" stroke="#333333"></path>
                <path d="M11,18.5 L14,18.5" id="Path-274" stroke="#333333"></path>
                <path d="M15,8 C15,12 21,13 21,18 C21,18.5 21,19 21,19 L15,19 C15,19 15,9 15,8 Z" id="Rectangle-237" stroke="#333333" stroke-width="2" fill-opacity="0.200000003" fill="#333333" stroke-linejoin="round"></path>
                <path d="M5,17.5 L9,17.5" id="Path-274" stroke="#333333" transform="translate(7.000000, 17.500000) scale(-1, 1) translate(-7.000000, -17.500000) "></path>
                <path d="M4,8 C4,12 10,13 10,18 C10,18.5 10,19 10,19 L4,19 C4,19 4,9 4,8 Z" id="Rectangle-237" stroke="#333333" stroke-width="2" fill-opacity="0.200000003" fill="#333333" stroke-linejoin="round" transform="translate(7.000000, 13.500000) scale(-1, 1) translate(-7.000000, -13.500000) "></path>
                <circle id="Oval-193" fill="#333333" cx="12.5" cy="7.5" r="1"></circle>
                <circle id="Oval-193" fill="#333333" cx="12.5" cy="9.5" r="1"></circle>
                <circle id="Oval-193" fill="#333333" cx="12.5" cy="11.5" r="1"></circle>
                <polygon id="Rectangle-238" fill="url(#linearGradient-1)" opacity="0.5" points="11 20 14 20 13.5 24 11.5 24"></polygon>
            </g>
        </g>
    </g>
</svg>