<?xml version="1.0" encoding="UTF-8"?>
<svg width="24px" height="24px" viewBox="0 0 24 24" version="1.1" xmlns="http://www.w3.org/2000/svg" xmlns:xlink="http://www.w3.org/1999/xlink">
    <!-- Generator: Sketch 43.2 (39069) - http://www.bohemiancoding.com/sketch -->
    <title>song</title>
    <desc>Created with Sketch.</desc>
    <defs></defs>
    <g id="Page-1" stroke="none" stroke-width="1" fill="none" fill-rule="evenodd">
        <g id="Artboard-4" transform="translate(-224.000000, -511.000000)" stroke="#333333" stroke-width="2">
            <g id="185" transform="translate(224.000000, 511.000000)">
                <path d="M11,10.5 L11,16.5 L11,19.5 C11,20.8791807 9.87831068,22 8.5,22 C7.12081929,22 6,20.8783107 6,19.5 C6,18.1208193 7.12168932,17 8.5,17 L10,17 L11,17 L11,16 L11,10.0014849 L11,4.99810135 C11,4.35508383 11.5574842,3.64140537 12.1791125,3.48599829 L16.3059588,2.45428671 C16.7475351,2.34389263 17,2.54055298 17,2.99810135 L17,7.00189865 C17,7.64491617 16.4425158,8.35859463 15.8208875,8.51400171 L11.7574644,9.5298575 L11,9.71922359 L11,10.5 Z" id="Combined-Shape"></path>
            </g>
        </g>
    </g>
</svg>