<?xml version="1.0" encoding="UTF-8"?>
<svg width="24px" height="24px" viewBox="0 0 24 24" version="1.1" xmlns="http://www.w3.org/2000/svg" xmlns:xlink="http://www.w3.org/1999/xlink">
    <!-- Generator: Sketch 43.2 (39069) - http://www.bohemiancoding.com/sketch -->
    <title>watch-classic</title>
    <desc>Created with Sketch.</desc>
    <defs></defs>
    <g id="Page-1" stroke="none" stroke-width="1" fill="none" fill-rule="evenodd">
        <g id="Artboard-4" transform="translate(-752.000000, -247.000000)" stroke="#333333" stroke-width="2">
            <g id="77" transform="translate(752.000000, 247.000000)">
                <path d="M15.6075866,6 L16,6 L15.1975678,1.9878391 C15.0887433,1.44371665 14.5564136,1 14.009222,1 L9.99077797,1 C9.45097518,1 8.91154587,1.44227063 8.80243218,1.9878391 L8,6 L8.39241339,6 C9.44595619,5.36518017 10.6803319,5 12,5 C13.3196681,5 14.5540438,5.36518017 15.6075866,6 Z" id="Rectangle-12" stroke-linejoin="round"></path>
                <path d="M15.6075866,23 L16,23 L15.1975678,18.9878391 C15.0887433,18.4437166 14.5564136,18 14.009222,18 L9.99077797,18 C9.45097518,18 8.91154587,18.4422706 8.80243218,18.9878391 L8,23 L8.39241339,23 C9.44595619,22.3651802 10.6803319,22 12,22 C13.3196681,22 14.5540438,22.3651802 15.6075866,23 Z" id="Rectangle-12" stroke-linejoin="round" transform="translate(12.000000, 20.500000) scale(1, -1) translate(-12.000000, -20.500000) "></path>
                <circle id="Oval-16" cx="12" cy="12" r="7"></circle>
                <polyline id="Path-10" opacity="0.5" stroke-linecap="round" stroke-linejoin="round" points="12 8 12 12 15 12"></polyline>
            </g>
        </g>
    </g>
</svg>