<svg width="40" height="40" viewBox="0 0 40 40" fill="none" xmlns="http://www.w3.org/2000/svg">
<path d="M7.38045 29.4465H14.307C14.8925 29.4477 15.4711 29.5727 16.0049 29.8131C16.5388 30.0536 17.0157 30.4042 17.4046 30.8419L17.5023 30.9451C17.6286 31.0755 17.7648 31.1959 17.9097 31.3051C17.9684 31.347 18.0242 31.3888 18.0772 31.4223C18.2051 31.5072 18.3384 31.5836 18.4763 31.6512L18.546 31.6847C18.6186 31.7209 18.6939 31.7516 18.7693 31.7795C18.8653 31.8154 18.9631 31.8461 19.0623 31.8716C19.1293 31.8912 19.2186 31.9163 19.3246 31.9358C19.4757 31.9658 19.6286 31.9854 19.7823 31.9944L20 32C20.2306 31.9995 20.4605 31.9762 20.6865 31.9302C20.7758 31.9135 20.8511 31.894 20.8902 31.88C21.0056 31.8512 21.1193 31.8158 21.2307 31.774H21.2642L21.44 31.6986L21.4902 31.6735H21.507C21.6558 31.6019 21.7994 31.5198 21.9367 31.4279L22.0818 31.3274C22.2364 31.203 22.3801 31.0658 22.5116 30.9172L22.5451 30.8837L22.6037 30.8195C22.9883 30.3858 23.4612 30.0391 23.9906 29.8028C24.52 29.5665 25.0937 29.446 25.6735 29.4493H32.6195C32.7583 29.4493 32.8957 29.4219 33.0238 29.3687C33.152 29.3156 33.2684 29.2376 33.3664 29.1393C33.4644 29.0411 33.5421 28.9245 33.5949 28.7962C33.6478 28.6679 33.6748 28.5304 33.6744 28.3916V11.8316C33.6707 11.5543 33.558 11.2895 33.3605 11.0947C33.1631 10.8999 32.8969 10.7907 32.6195 10.7907H30.5377V8.70326C30.5384 8.61117 30.5209 8.51984 30.4862 8.43455C30.4514 8.34926 30.4002 8.27169 30.3353 8.20631C30.2704 8.14094 30.1933 8.08905 30.1083 8.05364C30.0233 8.01823 29.9321 8 29.84 8H25.4977C23.4573 8.00392 21.4937 8.7784 20 10.1684C18.5063 8.7784 16.5427 8.00392 14.5023 8H10.16C9.97495 8 9.79749 8.0735 9.66665 8.20434C9.53581 8.33518 9.46231 8.51264 9.46231 8.69767V10.7907H7.38045C7.10307 10.7907 6.83685 10.8999 6.63942 11.0947C6.44199 11.2895 6.32923 11.5543 6.32556 11.8316V28.3916C6.32556 28.6714 6.4367 28.9397 6.63453 29.1375C6.73248 29.2355 6.84877 29.3132 6.97676 29.3662C7.10474 29.4192 7.24192 29.4465 7.38045 29.4465ZM25.4977 9.39535H29.1423V24.9005H25.4977C23.7693 24.9016 22.0868 25.4572 20.6977 26.4856V11.4409C21.3195 10.7953 22.065 10.2814 22.8896 9.92996C23.7143 9.57852 24.6012 9.3967 25.4977 9.39535ZM10.8577 9.39535H14.5023C15.3983 9.39598 16.2851 9.57692 17.1097 9.92739C17.9343 10.2779 18.68 10.7907 19.3023 11.4353V26.4856C17.9131 25.4572 16.2307 24.9016 14.5023 24.9005H10.8577V9.39535ZM7.72091 12.186H9.46231V25.6093C9.46231 25.7943 9.53581 25.9718 9.66665 26.1026C9.79749 26.2335 9.97495 26.307 10.16 26.307H14.5023C15.4421 26.308 16.3711 26.5075 17.2285 26.8922C18.0859 27.2769 18.8525 27.8382 19.4781 28.5395C19.5436 28.6128 19.6238 28.6715 19.7135 28.7117C19.8031 28.7518 19.9003 28.7726 19.9986 28.7726C20.0969 28.7726 20.194 28.7518 20.2837 28.7117C20.3734 28.6715 20.4536 28.6128 20.519 28.5395C21.1447 27.8382 21.9112 27.2769 22.7687 26.8922C23.6261 26.5075 24.5551 26.308 25.4949 26.307H29.84C30.025 26.307 30.2025 26.2335 30.3333 26.1026C30.4641 25.9718 30.5377 25.7943 30.5377 25.6093V12.186H32.279V28.0651H25.693C24.9121 28.06 24.1392 28.2223 23.4263 28.5409C22.7134 28.8596 22.077 29.3273 21.56 29.9126L21.5377 29.9377L21.5125 29.9628C21.4264 30.0488 21.333 30.1272 21.2335 30.1972L21.1497 30.2558C21.0694 30.3099 20.9855 30.3584 20.8986 30.4009H20.8818L20.84 30.4205L20.7284 30.4679C20.6599 30.4933 20.59 30.5147 20.519 30.5321L20.399 30.56C20.2678 30.5877 20.1341 30.6027 20 30.6047H19.8772C19.7834 30.599 19.6902 30.5868 19.5981 30.5684C19.5395 30.5684 19.4921 30.5433 19.4363 30.5265C19.3777 30.512 19.3199 30.4943 19.2632 30.4735L19.1404 30.4205L19.0874 30.3953C19.0026 30.3543 18.9205 30.3077 18.8418 30.2558L18.7442 30.1888C18.6547 30.1211 18.5708 30.0464 18.493 29.9656L18.44 29.9098C17.9206 29.3267 17.284 28.8597 16.5718 28.5395C15.8596 28.2192 15.0878 28.0528 14.307 28.0512H7.72091V12.186Z" fill="#1C2128"/>
<path d="M12.8307 12.9367H13.9889C15.0091 12.9386 16.0154 13.1744 16.9303 13.626C17.0948 13.6986 17.2811 13.7049 17.4502 13.6435C17.6192 13.5821 17.758 13.4577 17.8376 13.2964C17.9172 13.1351 17.9314 12.9492 17.8773 12.7777C17.8231 12.6062 17.7048 12.4622 17.547 12.3758C16.4372 11.8266 15.2159 11.5401 13.9777 11.5386H12.8307C12.6457 11.5386 12.4682 11.6121 12.3374 11.7429C12.2066 11.8738 12.1331 12.0512 12.1331 12.2362C12.1331 12.4213 12.2066 12.5987 12.3374 12.7296C12.4682 12.8604 12.6457 12.9339 12.8307 12.9339V12.9367Z" fill="#1C2128"/>
<path d="M12.8307 16.0236H13.9889C15.0091 16.0255 16.0154 16.2613 16.9303 16.7129C17.0948 16.7856 17.2811 16.7918 17.4502 16.7304C17.6192 16.669 17.758 16.5446 17.8376 16.3833C17.9172 16.222 17.9314 16.0362 17.8773 15.8646C17.8231 15.6931 17.7048 15.5491 17.547 15.4627C16.4372 14.9135 15.2159 14.6271 13.9777 14.6255H12.8307C12.6457 14.6255 12.4682 14.699 12.3374 14.8298C12.2066 14.9607 12.1331 15.1381 12.1331 15.3232C12.1331 15.5082 12.2066 15.6857 12.3374 15.8165C12.4682 15.9473 12.6457 16.0208 12.8307 16.0208V16.0236Z" fill="#1C2128"/>
<path d="M12.8307 19.1096H13.9889C15.0091 19.1114 16.0154 19.3472 16.9303 19.7989C17.0948 19.8715 17.2811 19.8777 17.4502 19.8163C17.6192 19.7549 17.758 19.6306 17.8376 19.4692C17.9172 19.3079 17.9314 19.1221 17.8773 18.9506C17.8231 18.779 17.7048 18.635 17.547 18.5486C16.4372 17.9995 15.2159 17.713 13.9777 17.7114H12.8307C12.6457 17.7114 12.4682 17.7849 12.3374 17.9158C12.2066 18.0466 12.1331 18.2241 12.1331 18.4091C12.1331 18.5941 12.2066 18.7716 12.3374 18.9024C12.4682 19.0333 12.6457 19.1068 12.8307 19.1068V19.1096Z" fill="#1C2128"/>
<path d="M16.9303 22.8887C17.0128 22.9339 17.1037 22.9619 17.1974 22.9711C17.291 22.9803 17.3856 22.9704 17.4754 22.9421C17.5651 22.9137 17.6482 22.8675 17.7196 22.8062C17.7911 22.7449 17.8494 22.6698 17.891 22.5854C17.9327 22.501 17.9568 22.409 17.962 22.3151C17.9671 22.2211 17.9532 22.127 17.9211 22.0385C17.8889 21.9501 17.8392 21.869 17.7749 21.8003C17.7107 21.7315 17.6331 21.6765 17.547 21.6385C16.4373 21.0892 15.216 20.8027 13.9777 20.8013H12.8307C12.6457 20.8013 12.4682 20.8748 12.3374 21.0056C12.2066 21.1365 12.1331 21.3139 12.1331 21.4989C12.1331 21.684 12.2066 21.8614 12.3374 21.9923C12.4682 22.1231 12.6457 22.1966 12.8307 22.1966H13.9889C15.0094 22.1994 16.0156 22.4361 16.9303 22.8887Z" fill="#1C2128"/>
<path d="M22.7097 13.6987C22.8162 13.6984 22.9212 13.6736 23.0166 13.6262C23.9358 13.1727 24.947 12.9368 25.972 12.9369H27.1301C27.3152 12.9369 27.4926 12.8634 27.6235 12.7325C27.7543 12.6017 27.8278 12.4242 27.8278 12.2392C27.8278 12.0542 27.7543 11.8767 27.6235 11.7459C27.4926 11.615 27.3152 11.5415 27.1301 11.5415H25.972C25.0198 11.5397 24.0749 11.7069 23.1813 12.0355C22.9113 12.1349 22.6467 12.2485 22.3887 12.3759C22.2477 12.4458 22.1345 12.5613 22.0674 12.7037C22.0003 12.846 21.9834 13.0069 22.0192 13.1601C22.0551 13.3134 22.1417 13.45 22.2651 13.5477C22.3884 13.6455 22.5411 13.6987 22.6985 13.6987H22.7097Z" fill="#1C2128"/>
<path d="M22.7097 16.7847C22.8162 16.7843 22.9212 16.7595 23.0166 16.7121C23.9358 16.2586 24.947 16.0227 25.972 16.0228H27.1301C27.3152 16.0228 27.4926 15.9493 27.6235 15.8185C27.7543 15.6876 27.8278 15.5102 27.8278 15.3251C27.8278 15.1401 27.7543 14.9626 27.6235 14.8318C27.4926 14.701 27.3152 14.6275 27.1301 14.6275H25.972C25.0198 14.6256 24.0749 14.7929 23.1813 15.1214C22.9113 15.2208 22.6467 15.3345 22.3887 15.4619C22.2477 15.5318 22.1345 15.6473 22.0674 15.7896C22.0003 15.932 21.9834 16.0928 22.0192 16.2461C22.0551 16.3993 22.1417 16.5359 22.2651 16.6337C22.3884 16.7314 22.5411 16.7847 22.6985 16.7847H22.7097Z" fill="#1C2128"/>
<path d="M22.7097 19.8716C22.8162 19.8712 22.9212 19.8464 23.0166 19.799C23.9358 19.3455 24.947 19.1096 25.972 19.1097H27.1301C27.3152 19.1097 27.4926 19.0362 27.6235 18.9054C27.7543 18.7745 27.8278 18.5971 27.8278 18.412C27.8278 18.227 27.7543 18.0496 27.6235 17.9187C27.4926 17.7879 27.3152 17.7144 27.1301 17.7144H25.972C25.0198 17.7125 24.0749 17.8798 23.1813 18.2083C22.9113 18.3077 22.6467 18.4214 22.3887 18.5488C22.2477 18.6187 22.1345 18.7342 22.0674 18.8765C22.0003 19.0189 21.9834 19.1798 22.0192 19.333C22.0551 19.4862 22.1417 19.6228 22.2651 19.7206C22.3884 19.8184 22.5411 19.8716 22.6985 19.8716H22.7097Z" fill="#1C2128"/>
<path d="M22.7097 22.9581C22.8162 22.9578 22.9212 22.933 23.0166 22.8856C23.9361 22.4331 24.9473 22.1982 25.972 22.1991H27.1301C27.3152 22.1991 27.4926 22.1256 27.6235 21.9947C27.7543 21.8639 27.8278 21.6864 27.8278 21.5014C27.8278 21.3164 27.7543 21.1389 27.6235 21.0081C27.4926 20.8772 27.3152 20.8037 27.1301 20.8037H25.972C25.0198 20.8018 24.0749 20.969 23.1813 21.2977C22.9113 21.3971 22.6467 21.5107 22.3887 21.6381C22.2477 21.708 22.1345 21.8235 22.0674 21.9659C22.0003 22.1083 21.9834 22.2691 22.0192 22.4223C22.0551 22.5756 22.1417 22.7122 22.2651 22.8099C22.3884 22.9077 22.5411 22.9609 22.6985 22.9609L22.7097 22.9581Z" fill="#1C2128"/>
</svg>
