<svg width="24" height="24" viewBox="0 0 24 24" fill="none" xmlns="http://www.w3.org/2000/svg">
<g id="Frame 1111">
<g id="Group 209">
<path id="Vector" d="M11.5265 16.5851C10.7773 16.5851 10.168 17.1944 10.168 17.9436C10.168 18.6927 10.7773 19.3021 11.5265 19.3021C12.2756 19.3021 12.885 18.6927 12.885 17.9436C12.885 17.1944 12.2756 16.5851 11.5265 16.5851ZM11.5265 18.6228C11.1518 18.6228 10.8472 18.3182 10.8472 17.9436C10.8472 17.5689 11.1518 17.2643 11.5265 17.2643C11.9011 17.2643 12.2057 17.5689 12.2057 17.9436C12.2057 18.3182 11.9011 18.6228 11.5265 18.6228Z" fill="black"/>
<path id="Vector_2" d="M21.5699 13.4015C21.2652 13.1903 20.8753 13.1424 20.5275 13.2717L20.4884 13.2863L16.8148 4.26892L7.54903 7.57815L5.64165 3H2.01888C1.45712 3 1 3.45712 1 4.01888C1 4.58064 1.45712 5.03775 2.01888 5.03775H4.17218L8.97468 16.2683C8.65764 16.75 8.47192 17.3249 8.47192 17.9434C8.47192 19.6289 9.84331 21 11.5285 21C13.2138 21 14.5852 19.6289 14.5852 17.9434C14.5852 17.9097 14.5811 17.8768 14.58 17.8435L21.3116 15.3957C21.7572 15.2335 22.0568 14.8062 22.0568 14.3318C22.0568 13.9607 21.8747 13.6132 21.5698 13.4015H21.5699ZM12.4023 6.56591L13.4524 8.92873L12.3853 9.35569L11.3175 6.95343L12.4023 6.56591ZM10.6759 7.18239L12.0301 10.2292L14.3592 9.29762L13.0435 6.33713L16.4309 5.12737L19.8524 13.5252L13.7251 15.8232C13.1687 15.2467 12.3903 14.8868 11.5283 14.8868C11.2223 14.8868 10.9275 14.9333 10.6486 15.0172L7.81032 8.20563L10.6759 7.18239ZM2.01879 4.35834C1.83169 4.35834 1.67917 4.20611 1.67917 4.01871C1.67917 3.83131 1.83169 3.67909 2.01879 3.67909H5.18853L10.0244 15.2854C9.8226 15.3998 9.63657 15.5373 9.46676 15.6929L4.6204 4.35834H2.01879ZM11.5283 20.3207C10.2174 20.3207 9.15093 19.254 9.15093 17.9434C9.15093 16.6328 10.2174 15.566 11.5283 15.566C12.8392 15.566 13.9057 16.6328 13.9057 17.9434C13.9057 19.254 12.8392 20.3207 11.5283 20.3207ZM21.0797 14.7575L14.4794 17.1576C14.4063 16.8839 14.2967 16.6254 14.155 16.3874L20.7663 13.9081C20.9076 13.8547 21.0591 13.8738 21.1834 13.9597C21.3068 14.0456 21.3778 14.1815 21.3778 14.3319C21.3778 14.5217 21.2578 14.6926 21.08 14.7575L21.0797 14.7575Z" fill="black"/>
</g>
</g>
</svg>
