<?xml version="1.0" encoding="utf-8"?>
<!-- Generator: Adobe Illustrator 24.3.0, SVG Export Plug-In . SVG Version: 6.00 Build 0)  -->
<svg version="1.1" id="Calque_1" xmlns="http://www.w3.org/2000/svg" xmlns:xlink="http://www.w3.org/1999/xlink" x="0px" y="0px"
	 viewBox="0 0 55 15.5" style="enable-background:new 0 0 55 15.5;" xml:space="preserve">
<path d="M48.8,12.6c-1.7,0-3.1-1.4-3.1-3.2s1.4-3.2,3.1-3.2c1.7,0,3.1,1.4,3.1,3.2C51.9,11.1,50.5,12.5,48.8,12.6L48.8,12.6z
	 M51.9,3.5v1.6c-0.4-0.6-1-1.1-1.7-1.4c-0.7-0.3-1.4-0.5-2.1-0.5c-3.1,0-5.4,2.7-5.4,6.1c0,3.4,2.4,6.1,5.4,6.1
	c0.8,0,1.6-0.2,2.3-0.6c0.7-0.4,1.3-0.9,1.7-1.6v1.9H55V3.5L51.9,3.5z M16.3,0.3h3.1v14.9h-3.1V0.3z M23,8.6c0-3.2,2-5.3,4.7-5.3
	c1.7,0,3,0.8,3.8,2c0.8-1.3,2.1-2,3.8-2C38,3.2,40,5.4,40,8.6v6.6h-3.1V8.2c0-1.2-0.8-2.1-1.9-2.1c-1.1,0-1.9,0.8-1.9,2.1v6.9H30
	V8.2C30,7,29.1,6.2,28,6.2c-1.1,0-1.9,0.8-1.9,2.1v6.9H23L23,8.6z M10.7,3.6C10,0.9,8.4,0,7,0s-3,0.9-3.8,3.6L0,15.2h3.1
	c0.2-0.9,0.7-1.6,1.4-2.2c0.7-0.5,1.5-0.8,2.4-0.8c0.9,0,1.7,0.3,2.4,0.8c0.7,0.5,1.2,1.3,1.4,2.2h3.1L10.7,3.6z M7,9.5
	c-1,0-1.9,0.4-2.6,1l1.8-6.7C6.4,3.1,6.6,2.9,7,2.9c0.3,0,0.6,0.2,0.8,0.8l1.8,6.7C8.8,9.8,7.9,9.5,7,9.5z"/>
</svg>
