<svg width="32" height="32" viewBox="0 0 32 32" fill="none" xmlns="http://www.w3.org/2000/svg">
<mask id="path-1-outside-1_1512_603" maskUnits="userSpaceOnUse" x="1" y="5.27344" width="30" height="21" fill="black">
<rect fill="white" x="1" y="5.27344" width="30" height="21"/>
<path d="M27.9901 12.8943H5.08096V8.48281C5.08096 7.64104 5.76597 6.95628 6.60749 6.95628C7.24871 6.95628 7.82603 7.36167 8.04377 7.96525L8.15477 8.27299L7.51379 8.50403C7.27561 8.58977 7.0853 8.76318 6.97763 8.99231C6.86997 9.22168 6.85783 9.47916 6.94405 9.71688L7.30418 10.7158C7.33491 10.8011 7.39827 10.8707 7.47996 10.9093C7.52593 10.9307 7.57571 10.9417 7.62526 10.9417C7.66432 10.9417 7.70362 10.935 7.74101 10.9214L10.8063 9.81598C10.8915 9.78525 10.9611 9.72189 10.9997 9.63996C11.038 9.55826 11.0423 9.46418 11.0116 9.37891L10.6512 8.37994C10.5652 8.14176 10.3918 7.95169 10.1629 7.84402C9.93378 7.73589 9.67606 7.72397 9.43859 7.81044L8.79712 8.04172L8.68589 7.73374C8.37101 6.86033 7.53571 6.27344 6.60748 6.27344C5.38894 6.27344 4.39808 7.26454 4.39808 8.48283V12.8943H4.00984C3.47225 12.8943 2.96752 13.103 2.58618 13.4838C2.20818 13.8673 2 14.3716 2 14.9041C2 15.4053 2.18769 15.8819 2.51377 16.2456C2.51353 16.252 2.5102 16.2573 2.5102 16.2637C2.5102 16.3647 2.55593 16.453 2.62548 16.5157V17.8776C2.62548 20.2693 4.23798 22.3146 6.51505 22.8948L6.00677 24.0855C5.88148 24.3756 5.87696 24.6959 5.99414 24.9875C6.11086 25.2783 6.33523 25.506 6.62463 25.628C6.77802 25.693 6.93237 25.7261 7.08314 25.7261C7.55665 25.7261 7.98155 25.4443 8.16497 25.0094L8.94503 23.178C8.96147 23.1389 8.97004 23.0999 8.98243 23.061H23.0178C23.0302 23.1001 23.0388 23.1391 23.0554 23.1784L23.8348 25.0085C24.0184 25.4443 24.4433 25.7261 24.9168 25.7261C25.0676 25.7261 25.2213 25.693 25.3746 25.6285C25.6648 25.5061 25.8891 25.2783 26.0059 24.9875C26.1228 24.696 26.1185 24.3756 25.994 24.0869L25.4849 22.8948C27.7625 22.3138 29.3745 20.2688 29.3745 17.8774V16.362C29.3871 16.3501 29.3998 16.3377 29.4122 16.3253C29.4129 16.3246 29.4136 16.3244 29.4138 16.3237C29.7918 15.9404 30 15.4362 30 14.9041C30 13.7958 29.0982 12.8943 27.9902 12.8943L27.9901 12.8943ZM9.67 8.45257C9.69929 8.44185 9.7293 8.43685 9.75979 8.43685C9.79814 8.43685 9.83625 8.44518 9.87174 8.46186C9.93581 8.49211 9.9844 8.54522 10.0085 8.61191L10.2528 9.28953L7.83027 10.1632L7.5859 9.48533C7.56184 9.41887 7.56517 9.34694 7.59518 9.28334C7.6252 9.21927 7.67831 9.17092 7.745 9.14686L8.7075 8.79983H8.70774C8.70774 8.79983 8.70798 8.79983 8.70798 8.79959L9.67 8.45257ZM26.0151 13.5771V18.455H22.3371V13.5771H26.0151ZM3.0706 13.9649C3.32093 13.7148 3.65439 13.5771 4.0095 13.5771H21.6546V15.9221H3.16133C2.86121 15.6737 2.68329 15.3014 2.68329 14.9041C2.68329 14.5523 2.82168 14.2181 3.07106 13.965L3.0706 13.9649ZM7.53633 24.743C7.4594 24.9254 7.28124 25.0431 7.08307 25.0431C7.02376 25.0431 6.96111 25.0288 6.89061 24.9988C6.76961 24.9478 6.67625 24.8535 6.62742 24.7327C6.57883 24.6117 6.58097 24.4779 6.63409 24.355L7.20192 23.0245C7.22431 23.0271 7.24647 23.0261 7.26886 23.0285C7.45083 23.0481 7.63256 23.0612 7.81288 23.0612H8.25209L7.53633 24.743ZM25.3717 24.7327C25.3231 24.8535 25.2298 24.9478 25.1085 24.9988C25.1083 24.999 25.1083 24.999 25.1078 24.999C25.038 25.0288 24.9754 25.0431 24.9161 25.0431C24.7179 25.0431 24.54 24.9254 24.4626 24.742L23.7471 23.0612H24.1863C24.3668 23.0612 24.549 23.0478 24.7313 23.0285C24.7534 23.0262 24.7751 23.0271 24.7972 23.0245L25.3658 24.3564C25.4182 24.4779 25.4206 24.6115 25.3717 24.7328L25.3717 24.7327ZM28.9278 15.8437C28.8742 15.8971 28.8171 15.9435 28.757 15.9871C28.6372 16.0738 28.587 16.2281 28.6327 16.3689C28.6458 16.4089 28.6658 16.4456 28.6911 16.4773V17.8776C28.6911 20.0793 27.1181 21.9444 24.9499 22.3123C24.6955 22.3559 24.4388 22.3783 24.1863 22.3783H23.2979L8.70092 22.3781H7.8125C7.56002 22.3781 7.30326 22.3557 7.04793 22.3116C4.88067 21.9441 3.30792 20.0791 3.30792 17.8773V16.6049H21.6543V18.7964C21.6543 18.9851 21.807 19.138 21.9958 19.138H26.3568C26.5455 19.138 26.6984 18.9853 26.6984 18.7964L26.6982 13.577H27.9901C28.7216 13.577 29.3168 14.1723 29.3168 14.904C29.3168 15.2551 29.1789 15.5888 28.9281 15.8436L28.9278 15.8437Z"/>
</mask>
<path d="M27.9901 12.8943H5.08096V8.48281C5.08096 7.64104 5.76597 6.95628 6.60749 6.95628C7.24871 6.95628 7.82603 7.36167 8.04377 7.96525L8.15477 8.27299L7.51379 8.50403C7.27561 8.58977 7.0853 8.76318 6.97763 8.99231C6.86997 9.22168 6.85783 9.47916 6.94405 9.71688L7.30418 10.7158C7.33491 10.8011 7.39827 10.8707 7.47996 10.9093C7.52593 10.9307 7.57571 10.9417 7.62526 10.9417C7.66432 10.9417 7.70362 10.935 7.74101 10.9214L10.8063 9.81598C10.8915 9.78525 10.9611 9.72189 10.9997 9.63996C11.038 9.55826 11.0423 9.46418 11.0116 9.37891L10.6512 8.37994C10.5652 8.14176 10.3918 7.95169 10.1629 7.84402C9.93378 7.73589 9.67606 7.72397 9.43859 7.81044L8.79712 8.04172L8.68589 7.73374C8.37101 6.86033 7.53571 6.27344 6.60748 6.27344C5.38894 6.27344 4.39808 7.26454 4.39808 8.48283V12.8943H4.00984C3.47225 12.8943 2.96752 13.103 2.58618 13.4838C2.20818 13.8673 2 14.3716 2 14.9041C2 15.4053 2.18769 15.8819 2.51377 16.2456C2.51353 16.252 2.5102 16.2573 2.5102 16.2637C2.5102 16.3647 2.55593 16.453 2.62548 16.5157V17.8776C2.62548 20.2693 4.23798 22.3146 6.51505 22.8948L6.00677 24.0855C5.88148 24.3756 5.87696 24.6959 5.99414 24.9875C6.11086 25.2783 6.33523 25.506 6.62463 25.628C6.77802 25.693 6.93237 25.7261 7.08314 25.7261C7.55665 25.7261 7.98155 25.4443 8.16497 25.0094L8.94503 23.178C8.96147 23.1389 8.97004 23.0999 8.98243 23.061H23.0178C23.0302 23.1001 23.0388 23.1391 23.0554 23.1784L23.8348 25.0085C24.0184 25.4443 24.4433 25.7261 24.9168 25.7261C25.0676 25.7261 25.2213 25.693 25.3746 25.6285C25.6648 25.5061 25.8891 25.2783 26.0059 24.9875C26.1228 24.696 26.1185 24.3756 25.994 24.0869L25.4849 22.8948C27.7625 22.3138 29.3745 20.2688 29.3745 17.8774V16.362C29.3871 16.3501 29.3998 16.3377 29.4122 16.3253C29.4129 16.3246 29.4136 16.3244 29.4138 16.3237C29.7918 15.9404 30 15.4362 30 14.9041C30 13.7958 29.0982 12.8943 27.9902 12.8943L27.9901 12.8943ZM9.67 8.45257C9.69929 8.44185 9.7293 8.43685 9.75979 8.43685C9.79814 8.43685 9.83625 8.44518 9.87174 8.46186C9.93581 8.49211 9.9844 8.54522 10.0085 8.61191L10.2528 9.28953L7.83027 10.1632L7.5859 9.48533C7.56184 9.41887 7.56517 9.34694 7.59518 9.28334C7.6252 9.21927 7.67831 9.17092 7.745 9.14686L8.7075 8.79983H8.70774C8.70774 8.79983 8.70798 8.79983 8.70798 8.79959L9.67 8.45257ZM26.0151 13.5771V18.455H22.3371V13.5771H26.0151ZM3.0706 13.9649C3.32093 13.7148 3.65439 13.5771 4.0095 13.5771H21.6546V15.9221H3.16133C2.86121 15.6737 2.68329 15.3014 2.68329 14.9041C2.68329 14.5523 2.82168 14.2181 3.07106 13.965L3.0706 13.9649ZM7.53633 24.743C7.4594 24.9254 7.28124 25.0431 7.08307 25.0431C7.02376 25.0431 6.96111 25.0288 6.89061 24.9988C6.76961 24.9478 6.67625 24.8535 6.62742 24.7327C6.57883 24.6117 6.58097 24.4779 6.63409 24.355L7.20192 23.0245C7.22431 23.0271 7.24647 23.0261 7.26886 23.0285C7.45083 23.0481 7.63256 23.0612 7.81288 23.0612H8.25209L7.53633 24.743ZM25.3717 24.7327C25.3231 24.8535 25.2298 24.9478 25.1085 24.9988C25.1083 24.999 25.1083 24.999 25.1078 24.999C25.038 25.0288 24.9754 25.0431 24.9161 25.0431C24.7179 25.0431 24.54 24.9254 24.4626 24.742L23.7471 23.0612H24.1863C24.3668 23.0612 24.549 23.0478 24.7313 23.0285C24.7534 23.0262 24.7751 23.0271 24.7972 23.0245L25.3658 24.3564C25.4182 24.4779 25.4206 24.6115 25.3717 24.7328L25.3717 24.7327ZM28.9278 15.8437C28.8742 15.8971 28.8171 15.9435 28.757 15.9871C28.6372 16.0738 28.587 16.2281 28.6327 16.3689C28.6458 16.4089 28.6658 16.4456 28.6911 16.4773V17.8776C28.6911 20.0793 27.1181 21.9444 24.9499 22.3123C24.6955 22.3559 24.4388 22.3783 24.1863 22.3783H23.2979L8.70092 22.3781H7.8125C7.56002 22.3781 7.30326 22.3557 7.04793 22.3116C4.88067 21.9441 3.30792 20.0791 3.30792 17.8773V16.6049H21.6543V18.7964C21.6543 18.9851 21.807 19.138 21.9958 19.138H26.3568C26.5455 19.138 26.6984 18.9853 26.6984 18.7964L26.6982 13.577H27.9901C28.7216 13.577 29.3168 14.1723 29.3168 14.904C29.3168 15.2551 29.1789 15.5888 28.9281 15.8436L28.9278 15.8437Z" fill="#1C2028"/>
<path d="M27.9901 12.8943H5.08096V8.48281C5.08096 7.64104 5.76597 6.95628 6.60749 6.95628C7.24871 6.95628 7.82603 7.36167 8.04377 7.96525L8.15477 8.27299L7.51379 8.50403C7.27561 8.58977 7.0853 8.76318 6.97763 8.99231C6.86997 9.22168 6.85783 9.47916 6.94405 9.71688L7.30418 10.7158C7.33491 10.8011 7.39827 10.8707 7.47996 10.9093C7.52593 10.9307 7.57571 10.9417 7.62526 10.9417C7.66432 10.9417 7.70362 10.935 7.74101 10.9214L10.8063 9.81598C10.8915 9.78525 10.9611 9.72189 10.9997 9.63996C11.038 9.55826 11.0423 9.46418 11.0116 9.37891L10.6512 8.37994C10.5652 8.14176 10.3918 7.95169 10.1629 7.84402C9.93378 7.73589 9.67606 7.72397 9.43859 7.81044L8.79712 8.04172L8.68589 7.73374C8.37101 6.86033 7.53571 6.27344 6.60748 6.27344C5.38894 6.27344 4.39808 7.26454 4.39808 8.48283V12.8943H4.00984C3.47225 12.8943 2.96752 13.103 2.58618 13.4838C2.20818 13.8673 2 14.3716 2 14.9041C2 15.4053 2.18769 15.8819 2.51377 16.2456C2.51353 16.252 2.5102 16.2573 2.5102 16.2637C2.5102 16.3647 2.55593 16.453 2.62548 16.5157V17.8776C2.62548 20.2693 4.23798 22.3146 6.51505 22.8948L6.00677 24.0855C5.88148 24.3756 5.87696 24.6959 5.99414 24.9875C6.11086 25.2783 6.33523 25.506 6.62463 25.628C6.77802 25.693 6.93237 25.7261 7.08314 25.7261C7.55665 25.7261 7.98155 25.4443 8.16497 25.0094L8.94503 23.178C8.96147 23.1389 8.97004 23.0999 8.98243 23.061H23.0178C23.0302 23.1001 23.0388 23.1391 23.0554 23.1784L23.8348 25.0085C24.0184 25.4443 24.4433 25.7261 24.9168 25.7261C25.0676 25.7261 25.2213 25.693 25.3746 25.6285C25.6648 25.5061 25.8891 25.2783 26.0059 24.9875C26.1228 24.696 26.1185 24.3756 25.994 24.0869L25.4849 22.8948C27.7625 22.3138 29.3745 20.2688 29.3745 17.8774V16.362C29.3871 16.3501 29.3998 16.3377 29.4122 16.3253C29.4129 16.3246 29.4136 16.3244 29.4138 16.3237C29.7918 15.9404 30 15.4362 30 14.9041C30 13.7958 29.0982 12.8943 27.9902 12.8943L27.9901 12.8943ZM9.67 8.45257C9.69929 8.44185 9.7293 8.43685 9.75979 8.43685C9.79814 8.43685 9.83625 8.44518 9.87174 8.46186C9.93581 8.49211 9.9844 8.54522 10.0085 8.61191L10.2528 9.28953L7.83027 10.1632L7.5859 9.48533C7.56184 9.41887 7.56517 9.34694 7.59518 9.28334C7.6252 9.21927 7.67831 9.17092 7.745 9.14686L8.7075 8.79983H8.70774C8.70774 8.79983 8.70798 8.79983 8.70798 8.79959L9.67 8.45257ZM26.0151 13.5771V18.455H22.3371V13.5771H26.0151ZM3.0706 13.9649C3.32093 13.7148 3.65439 13.5771 4.0095 13.5771H21.6546V15.9221H3.16133C2.86121 15.6737 2.68329 15.3014 2.68329 14.9041C2.68329 14.5523 2.82168 14.2181 3.07106 13.965L3.0706 13.9649ZM7.53633 24.743C7.4594 24.9254 7.28124 25.0431 7.08307 25.0431C7.02376 25.0431 6.96111 25.0288 6.89061 24.9988C6.76961 24.9478 6.67625 24.8535 6.62742 24.7327C6.57883 24.6117 6.58097 24.4779 6.63409 24.355L7.20192 23.0245C7.22431 23.0271 7.24647 23.0261 7.26886 23.0285C7.45083 23.0481 7.63256 23.0612 7.81288 23.0612H8.25209L7.53633 24.743ZM25.3717 24.7327C25.3231 24.8535 25.2298 24.9478 25.1085 24.9988C25.1083 24.999 25.1083 24.999 25.1078 24.999C25.038 25.0288 24.9754 25.0431 24.9161 25.0431C24.7179 25.0431 24.54 24.9254 24.4626 24.742L23.7471 23.0612H24.1863C24.3668 23.0612 24.549 23.0478 24.7313 23.0285C24.7534 23.0262 24.7751 23.0271 24.7972 23.0245L25.3658 24.3564C25.4182 24.4779 25.4206 24.6115 25.3717 24.7328L25.3717 24.7327ZM28.9278 15.8437C28.8742 15.8971 28.8171 15.9435 28.757 15.9871C28.6372 16.0738 28.587 16.2281 28.6327 16.3689C28.6458 16.4089 28.6658 16.4456 28.6911 16.4773V17.8776C28.6911 20.0793 27.1181 21.9444 24.9499 22.3123C24.6955 22.3559 24.4388 22.3783 24.1863 22.3783H23.2979L8.70092 22.3781H7.8125C7.56002 22.3781 7.30326 22.3557 7.04793 22.3116C4.88067 21.9441 3.30792 20.0791 3.30792 17.8773V16.6049H21.6543V18.7964C21.6543 18.9851 21.807 19.138 21.9958 19.138H26.3568C26.5455 19.138 26.6984 18.9853 26.6984 18.7964L26.6982 13.577H27.9901C28.7216 13.577 29.3168 14.1723 29.3168 14.904C29.3168 15.2551 29.1789 15.5888 28.9281 15.8436L28.9278 15.8437Z" stroke="#1C2028" stroke-width="0.2" mask="url(#path-1-outside-1_1512_603)"/>
</svg>
