<svg width="24" height="24" viewBox="0 0 24 24" fill="none" xmlns="http://www.w3.org/2000/svg">
<path d="M6.90771 21.5999H16.5077C16.8392 21.5999 17.1077 21.3314 17.1077 20.9999V4.1999C17.1077 4.10682 17.0859 4.01491 17.0444 3.93154L16.4444 2.73154C16.3428 2.52831 16.135 2.3999 15.9077 2.3999H7.50772C7.28038 2.3999 7.07264 2.52831 6.97102 2.73154L6.37102 3.93154C6.3295 4.01475 6.30774 4.10682 6.30774 4.1999V20.9999C6.30774 21.3314 6.57626 21.5999 6.90774 21.5999H6.90771ZM7.69302 3.2999H15.7223L16.0223 3.8999H7.39302L7.69302 3.2999ZM7.20771 4.4999H16.2077V20.6999H7.20771V4.4999Z" fill="#1C2028"/>
<path d="M16.4401 15.3394H16.6922C17.2445 15.3394 17.6922 15.7871 17.6922 16.3394V18.5133C17.6922 19.0656 17.2445 19.5133 16.6922 19.5133H16.4401" stroke="#1C2028" stroke-width="0.7"/>
</svg>
