<svg width="24" height="24" viewBox="0 0 24 24" fill="none" xmlns="http://www.w3.org/2000/svg">
<path d="M18.9773 1.53922L18.9718 1.53292L18.9653 1.52762C18.8651 1.4456 18.7449 1.4 18.6195 1.4H5.38051C5.25507 1.4 5.13485 1.4456 5.03471 1.52762L5.02824 1.53292L5.02274 1.53922L3.50045 3.28312C3.3363 3.42124 3.24375 3.64401 3.24375 3.87494V21.375C3.24375 21.7553 3.49823 22.1 3.85294 22.1H20.1471C20.5018 22.1 20.7563 21.7553 20.7563 21.375V3.87494C20.7563 3.64399 20.6637 3.42121 20.4995 3.28312L18.9773 1.53922ZM19.7925 20.9625H12.3546V4.28744H19.7925V20.9625ZM5.49332 3.03744H18.5067L19.0261 3.46244H4.97395L5.49332 3.03744ZM4.20765 4.28744H11.6455V20.9625H4.20765V4.28744Z" fill="#1C2128" stroke="#1C2128" stroke-width="0.2"/>
<rect x="5" y="3" width="14" height="1" fill="#1C2128"/>
<path d="M13.5275 15.5375C13.7338 15.5375 13.8821 15.3535 13.8821 15.1518V11.7232C13.8821 11.5215 13.7338 11.3375 13.5275 11.3375C13.3213 11.3375 13.1729 11.5215 13.1729 11.7232V15.1518C13.1729 15.3535 13.3213 15.5375 13.5275 15.5375Z" fill="#1C2128" stroke="#1C2128" stroke-width="0.2"/>
<path d="M10.4724 11.3375C10.2661 11.3375 10.1178 11.5215 10.1178 11.7232V15.1518C10.1178 15.3535 10.2661 15.5375 10.4724 15.5375C10.6786 15.5375 10.827 15.3535 10.827 15.1518V11.7232C10.827 11.5215 10.6786 11.3375 10.4724 11.3375Z" fill="#1C2128" stroke="#1C2128" stroke-width="0.2"/>
</svg>
