<?xml version="1.0" encoding="UTF-8"?>
<svg id="Calque_1" xmlns="http://www.w3.org/2000/svg" version="1.1" viewBox="0 0 24 25.1">
  <!-- Generator: Adobe Illustrator 29.6.1, SVG Export Plug-In . SVG Version: 2.1.1 Build 9)  -->
  <defs>
    <style>
      .st0 {
        fill: #14142b;
      }
    </style>
  </defs>
  <path class="st0" d="M18.6,2.2v-1c0-.7-.5-1.2-1.2-1.2s-1.2.5-1.2,1.2v.9H7.8v-.9c0-.7-.5-1.2-1.2-1.2s-1.2.5-1.2,1.2v1C2.4,2.6,0,5.1,0,8.2v10.8c0,3.3,2.7,6.1,6.1,6.1h11.9c3.3,0,6.1-2.7,6.1-6.1v-10.8c0-3.1-2.4-5.7-5.4-6ZM6.1,4.6h11.9c1.8,0,3.3,1.3,3.6,3H2.5c.3-1.7,1.8-3,3.6-3ZM17.9,22.7H6.1c-2,0-3.6-1.6-3.6-3.6v-9h19.1v9c0,2-1.6,3.6-3.6,3.6Z"/>
  <path class="st0" d="M7.1,12.9h-1.1c-.7,0-1.2.5-1.2,1.2s.5,1.2,1.2,1.2h1.1c.7,0,1.2-.5,1.2-1.2s-.5-1.2-1.2-1.2Z"/>
  <path class="st0" d="M12.5,12.9h-1.1c-.7,0-1.2.5-1.2,1.2s.5,1.2,1.2,1.2h1.1c.7,0,1.2-.5,1.2-1.2s-.5-1.2-1.2-1.2Z"/>
  <path class="st0" d="M17.9,12.9h-1.1c-.7,0-1.2.5-1.2,1.2s.5,1.2,1.2,1.2h1.1c.7,0,1.2-.5,1.2-1.2s-.5-1.2-1.2-1.2Z"/>
  <path class="st0" d="M7.1,17.3h-1.1c-.7,0-1.2.5-1.2,1.2s.5,1.2,1.2,1.2h1.1c.7,0,1.2-.5,1.2-1.2s-.5-1.2-1.2-1.2Z"/>
  <path class="st0" d="M12.5,17.3h-1.1c-.7,0-1.2.5-1.2,1.2s.5,1.2,1.2,1.2h1.1c.7,0,1.2-.5,1.2-1.2s-.5-1.2-1.2-1.2Z"/>
  <path class="st0" d="M17.9,17.3h-1.1c-.7,0-1.2.5-1.2,1.2s.5,1.2,1.2,1.2h1.1c.7,0,1.2-.5,1.2-1.2s-.5-1.2-1.2-1.2Z"/>
</svg>