<?xml version="1.0" encoding="utf-8"?>
<!-- Generator: Adobe Illustrator 24.3.0, SVG Export Plug-In . SVG Version: 6.00 Build 0)  -->
<svg version="1.1" id="Calque_1" xmlns="http://www.w3.org/2000/svg" xmlns:xlink="http://www.w3.org/1999/xlink" x="0px" y="0px"
	 viewBox="0 0 28.1 28.1" style="enable-background:new 0 0 28.1 28.1;" xml:space="preserve">
<style type="text/css">
	.st0{fill:#14142B;}
</style>
<g>
	<path class="st0" d="M27.2,7.6c-0.5-0.6-1.3-1-2.1-1H7.8L7.2,3.8C6.9,2.3,5.6,1.2,4,1.2H1.2c-0.5,0-0.9,0.4-0.9,0.9S0.7,3,1.2,3H4
		c0.7,0,1.3,0.5,1.5,1.2l0.8,3.5l1.3,7.2c0.7,3.8,4,6.6,7.9,6.6h3.2c3.8,0,7-2.6,7.8-6.3l1.2-5.4C27.9,9.1,27.8,8.2,27.2,7.6z
		 M26,9.5l-1.2,5.4c-0.7,2.9-3.2,4.9-6.1,4.9h-3.2c-3,0-5.6-2.2-6.2-5.1L8.2,8.4h17c0.3,0,0.5,0.1,0.7,0.3C26,8.9,26.1,9.2,26,9.5z"
		/>
	<path class="st0" d="M10.1,22.7C9,22.7,8,23.6,8,24.8c0,1.2,0.9,2.1,2.1,2.1s2.1-0.9,2.1-2.1C12.2,23.6,11.3,22.7,10.1,22.7z
		 M9.8,24.8c0-0.2,0.1-0.3,0.3-0.3s0.3,0.1,0.3,0.3C10.4,25.1,9.8,25.1,9.8,24.8z"/>
	<path class="st0" d="M24.4,22.7c-1.2,0-2.1,0.9-2.1,2.1c0,1.2,0.9,2.1,2.1,2.1s2.1-0.9,2.1-2.1C26.5,23.6,25.6,22.7,24.4,22.7z
		 M24.1,24.8c0-0.2,0.1-0.3,0.3-0.3s0.3,0.1,0.3,0.3C24.7,25.1,24.1,25.1,24.1,24.8z"/>
</g>
</svg>
