<svg width="41" height="40" viewBox="0 0 41 40" fill="none" xmlns="http://www.w3.org/2000/svg">
<path d="M12.9393 33H28.0607C28.7019 32.9992 29.3166 32.7442 29.7699 32.2908C30.2233 31.8374 30.4782 31.2227 30.4789 30.5815V12.9686C30.4782 12.3274 30.2232 11.7127 29.7699 11.2594C29.3166 10.806 28.7019 10.551 28.0607 10.5502H26.0321C26.0231 10.4477 25.9867 10.3494 25.9266 10.2658C25.8666 10.1822 25.7851 10.1163 25.6908 10.075L23.2271 9.00255C23.0386 8.42126 22.671 7.9145 22.1769 7.55481C21.6829 7.19511 21.0878 7.00091 20.4767 7C19.8655 6.9991 19.2698 7.19152 18.7747 7.54975C18.2796 7.90798 17.9105 8.41364 17.7203 8.99437L15.1386 10.0716C15.0423 10.1119 14.9589 10.1779 14.8974 10.2622C14.8358 10.3466 14.7985 10.4462 14.7895 10.5502H12.9393C12.2982 10.551 11.6835 10.806 11.2301 11.2594C10.7768 11.7127 10.5218 12.3274 10.5211 12.9686V30.5815C10.5218 31.2227 10.7768 31.8374 11.2301 32.2908C11.6835 32.7442 12.2981 32.9992 12.9393 33ZM15.9339 10.9838L18.416 9.94813C18.4997 9.91317 18.574 9.85884 18.6327 9.7896C18.6914 9.72037 18.7329 9.63819 18.7537 9.54983C18.8344 9.15596 19.0481 8.80185 19.359 8.54696C19.67 8.29208 20.0591 8.15195 20.4612 8.15012C20.8632 8.14828 21.2536 8.28485 21.5669 8.53689C21.8801 8.78892 22.0971 9.14107 22.1813 9.53419C22.1999 9.62431 22.2399 9.70865 22.2979 9.78009C22.3559 9.85153 22.4302 9.90798 22.5146 9.94468L24.8876 10.9781V12.6865H15.9339V10.9838ZM11.6694 12.9686C11.6697 12.6318 11.8036 12.309 12.0417 12.0709C12.2798 11.8328 12.6026 11.6989 12.9393 11.6985H14.7857V13.2607C14.7857 13.4129 14.8462 13.5589 14.9538 13.6666C15.0615 13.7743 15.2075 13.8348 15.3598 13.8348H25.4617C25.614 13.8348 25.76 13.7743 25.8677 13.6666C25.9753 13.5589 26.0358 13.4129 26.0358 13.2607V11.6985H28.0607C28.3975 11.6989 28.7203 11.8328 28.9584 12.0709C29.1964 12.309 29.3303 12.6318 29.3307 12.9686V30.5815C29.3303 30.9183 29.1964 31.2411 28.9584 31.4792C28.7203 31.7174 28.3975 31.8513 28.0607 31.8518H12.9393C12.6026 31.8513 12.2798 31.7174 12.0417 31.4792C11.8036 31.2411 11.6697 30.9183 11.6694 30.5815V12.9686Z" fill="#1C2128"/>
<path d="M14.4181 27.659H26.582C26.7342 27.659 26.8803 27.5985 26.9879 27.4908C27.0956 27.3832 27.1561 27.2371 27.1561 27.0849C27.1561 26.9326 27.0956 26.7866 26.9879 26.6789C26.8803 26.5712 26.7342 26.5107 26.582 26.5107H14.4181C14.2658 26.5107 14.1198 26.5712 14.0121 26.6789C13.9045 26.7866 13.844 26.9326 13.844 27.0849C13.844 27.2371 13.9045 27.3832 14.0121 27.4908C14.1198 27.5985 14.2658 27.659 14.4181 27.659Z" fill="#1C2128"/>
<path d="M14.4181 23.2225H26.582C26.7342 23.2225 26.8803 23.162 26.9879 23.0543C27.0956 22.9466 27.1561 22.8006 27.1561 22.6483C27.1561 22.4961 27.0956 22.35 26.9879 22.2424C26.8803 22.1347 26.7342 22.0742 26.582 22.0742H14.4181C14.2658 22.0742 14.1198 22.1347 14.0121 22.2424C13.9045 22.35 13.844 22.4961 13.844 22.6483C13.844 22.8006 13.9045 22.9466 14.0121 23.0543C14.1198 23.162 14.2658 23.2225 14.4181 23.2225Z" fill="#1C2128"/>
<path d="M14.4181 18.7864H26.582C26.7342 18.7864 26.8803 18.7259 26.9879 18.6183C27.0956 18.5106 27.1561 18.3646 27.1561 18.2123C27.1561 18.06 27.0956 17.914 26.9879 17.8063C26.8803 17.6987 26.7342 17.6382 26.582 17.6382H14.4181C14.2658 17.6382 14.1198 17.6987 14.0121 17.8063C13.9045 17.914 13.844 18.06 13.844 18.2123C13.844 18.3646 13.9045 18.5106 14.0121 18.6183C14.1198 18.7259 14.2658 18.7864 14.4181 18.7864Z" fill="#1C2128"/>
</svg>
