<svg width="24" height="18" viewBox="0 0 24 18" fill="none" xmlns="http://www.w3.org/2000/svg">
<path d="M6.41562 8.69108C6.53794 8.55361 6.59494 8.36995 6.57215 8.18726C6.37936 6.57707 6.8962 4.897 8.1335 3.6597C9.2042 2.589 10.5974 2.06128 11.9997 2.06128H12.0455L5.93441 8.75557L5.93332 8.90556C5.93353 8.90556 5.93374 8.90557 5.93395 8.90557C6.11792 8.90672 6.29343 8.82858 6.41562 8.69108ZM6.41562 8.69108L6.30356 8.59137L6.41571 8.69099C6.41568 8.69102 6.41565 8.69105 6.41562 8.69108ZM12.0024 6.65017L12.0024 6.65019C12.1678 6.65321 12.3312 6.72167 12.4293 6.81174C12.4294 6.81183 12.4295 6.81191 12.4296 6.812L15.1168 9.25487C15.3825 9.48756 15.3924 9.91305 15.1664 10.1627L15.1664 10.1628C14.9371 10.4158 14.509 10.4317 14.2589 10.2034L12.6385 8.72838V13.6446C12.6385 13.9975 12.3526 14.2834 11.9997 14.2834C11.6467 14.2834 11.3608 13.9973 11.3608 13.6446V8.72838L9.74042 10.2034C9.48573 10.4359 9.07066 10.4012 8.83795 10.168L12.0024 6.65017ZM12.0024 6.65017L12 6.65017M12.0024 6.65017L12 6.65017M12 6.65017C11.9262 6.64997 11.8523 6.65664 11.7778 6.68265C11.7023 6.709 11.6355 6.75187 11.5702 6.81164C11.5701 6.81167 11.5701 6.8117 11.5701 6.81173L8.88211 9.25524C8.88201 9.25533 8.8819 9.25542 8.8818 9.25552M12 6.65017L8.8818 9.25552M8.8818 9.25552C8.63641 9.4761 8.58031 9.9099 8.83794 10.168L8.8818 9.25552ZM12.2504 0.788178L12.2532 0.783105H11.9999C10.2741 0.783105 8.54992 1.43633 7.23412 2.75213L7.23411 2.75214C5.88419 4.10241 5.25724 5.89041 5.29157 7.6595C2.81139 7.84143 0.85 9.89432 0.85 12.4225C0.85 15.0699 2.99712 17.217 5.64444 17.217H17.6222C20.6693 17.217 23.15 14.7364 23.15 11.6892C23.15 8.98108 21.1892 6.74202 18.6141 6.27308C18.3718 4.98671 17.7689 3.74818 16.7733 2.75261L16.7733 2.7526C15.5202 1.49959 13.892 0.848332 12.2504 0.788178ZM18.0201 7.45418H18.0268H18.0269V7.30418L18.0268 7.30607L18.0232 7.34574L18.0231 7.34581L18.0134 7.45356C18.0135 7.45358 18.0137 7.45359 18.0138 7.4536C18.0159 7.45379 18.018 7.45399 18.0201 7.45418Z" fill="black" stroke="black" stroke-width="0.3"/>
</svg>
