<svg width="44" height="36" viewBox="0 0 44 36" fill="none" xmlns="http://www.w3.org/2000/svg">
<path d="M38.945 0.457275C37.8103 0.45848 36.7138 0.868431 35.8563 1.61186C34.9991 2.35525 34.4378 3.3824 34.2758 4.5056H5.8836V1.132C5.8836 0.953075 5.81251 0.78138 5.686 0.654872C5.55949 0.528364 5.3878 0.457275 5.20888 0.457275C3.95675 0.458781 2.75606 0.956692 1.87083 1.84226C0.985287 2.7275 0.487382 3.92819 0.48584 5.18032V30.8197C0.487346 32.0718 0.985256 33.2725 1.87083 34.1577C2.75606 35.0433 3.95675 35.5412 5.20888 35.5427H38.9449C40.197 35.5412 41.3977 35.0433 42.2829 34.1577C43.1685 33.2725 43.6664 32.0718 43.6679 30.8197V5.18032C43.6664 3.92819 43.1685 2.7275 42.2829 1.84226C41.3977 0.956722 40.197 0.458818 38.9449 0.457275H38.945ZM38.945 34.1933C38.0503 34.1933 37.1922 33.8378 36.5593 33.2053C35.9268 32.5725 35.5714 31.7143 35.5714 30.8197C35.5714 29.925 35.9268 29.067 36.5593 28.434C37.1922 27.8015 38.0503 27.4461 38.945 27.4461C39.8396 27.4461 40.6977 27.8015 41.3306 28.434C41.9632 29.0669 42.3186 29.925 42.3186 30.8197C42.3174 31.714 41.9616 32.5716 41.3294 33.2041C40.6968 33.8364 39.8393 34.1921 38.945 34.1933ZM38.945 26.0966C37.6862 26.0954 36.479 26.5973 35.5919 27.4903C34.7051 28.3838 34.2118 29.5943 34.2219 30.8531C34.2322 32.1118 34.7448 33.3146 35.6464 34.1932H5.20919C4.00402 34.1932 2.89016 33.5501 2.28769 32.5064C1.68496 31.4627 1.68496 30.1765 2.28769 29.1328C2.89012 28.0891 4.00402 27.446 5.20919 27.446C5.38811 27.446 5.55981 27.3749 5.68631 27.2484C5.81282 27.1219 5.88391 26.9502 5.88391 26.7713V7.87912C5.88391 7.50652 5.58179 7.2044 5.20919 7.2044C4.83659 7.2044 4.53447 7.50652 4.53447 7.87912V26.1444C3.50851 26.2929 2.56005 26.7751 1.83559 27.5167V5.18001C1.83649 4.40258 2.10548 3.6492 2.59706 3.04681C3.08864 2.44468 3.773 2.03049 4.53447 1.87388V5.18001C4.53447 5.35893 4.60556 5.53062 4.73207 5.65713C4.85858 5.78364 5.03027 5.85473 5.20919 5.85473H34.2222V25.4216C34.2222 25.7942 34.5243 26.0963 34.8969 26.0963C35.2695 26.0963 35.5716 25.7942 35.5716 25.4216V5.18001C35.5716 3.97484 36.2147 2.86098 37.2584 2.25851C38.3021 1.65578 39.5883 1.65578 40.632 2.25851C41.6757 2.86094 42.3188 3.97484 42.3188 5.18001V27.5206C41.4326 26.6097 40.216 26.0958 38.9452 26.0961L38.945 26.0966Z" fill="#1C2028"/>
<path d="M30.8483 11.9276H30.1736V11.2528C30.1736 10.8802 29.8714 10.5781 29.4988 10.5781C29.1262 10.5781 28.8241 10.8802 28.8241 11.2528V11.9276H11.2814V11.2528C11.2814 10.8802 10.9793 10.5781 10.6067 10.5781C10.2341 10.5781 9.93196 10.8802 9.93196 11.2528V11.9276H9.25724C8.88464 11.9276 8.58252 12.2297 8.58252 12.6023C8.58252 12.9749 8.88464 13.277 9.25724 13.277H22.0769V18C22.0769 18.3726 22.379 18.6748 22.7516 18.6748C23.1242 18.6748 23.4264 18.3726 23.4264 18V13.277H30.8483C31.2209 13.277 31.523 12.9749 31.523 12.6023C31.523 12.2297 31.2209 11.9276 30.8483 11.9276Z" fill="#1C2028"/>
<path d="M18.7033 18.6748C18.8823 18.6748 19.054 18.6037 19.1805 18.4772C19.307 18.3507 19.3781 18.179 19.3781 18.0001V15.3012C19.3781 15.1223 19.307 14.9506 19.1805 14.8241C19.054 14.6976 18.8823 14.6265 18.7033 14.6265H13.3056C12.933 14.6265 12.6309 14.9286 12.6309 15.3012C12.6309 15.6738 12.933 15.9759 13.3056 15.9759H18.0286V18.0001C18.0286 18.179 18.0997 18.3507 18.2262 18.4772C18.3527 18.6037 18.5244 18.6748 18.7033 18.6748Z" fill="#1C2028"/>
<path d="M30.8483 26.0967H30.1736V15.3012C30.1736 14.9286 29.8714 14.6265 29.4988 14.6265C29.1262 14.6265 28.8241 14.9286 28.8241 15.3012V26.0967H19.378V21.3737H26.1252V24.0725C26.1252 24.4451 26.4274 24.7473 26.8 24.7473C27.1726 24.7473 27.4747 24.4451 27.4747 24.0725V20.6989C27.4747 20.52 27.4036 20.3483 27.2771 20.2218C27.1506 20.0953 26.9789 20.0242 26.8 20.0242H13.3056C12.933 20.0242 12.6308 20.3263 12.6308 20.6989C12.6308 21.0715 12.933 21.3737 13.3056 21.3737H18.0286V26.0967H11.2814V15.3012C11.2814 14.9286 10.9793 14.6265 10.6067 14.6265C10.2341 14.6265 9.93196 14.9286 9.93196 15.3012V26.0967H9.25724C8.88464 26.0967 8.58252 26.3988 8.58252 26.7714C8.58252 27.144 8.88464 27.4461 9.25724 27.4461H9.93196V28.1209C9.93196 28.4935 10.2341 28.7956 10.6067 28.7956C10.9793 28.7956 11.2814 28.4935 11.2814 28.1209V27.4461H28.8241V28.1209C28.8241 28.4935 29.1262 28.7956 29.4988 28.7956C29.8714 28.7956 30.1736 28.4935 30.1736 28.1209V27.4461H30.8483C31.2209 27.4461 31.523 27.144 31.523 26.7714C31.523 26.3988 31.2209 26.0967 30.8483 26.0967Z" fill="#1C2028"/>
</svg>
