<svg width="24" height="24" viewBox="0 0 24 24" fill="none" xmlns="http://www.w3.org/2000/svg">
<path d="M21.4805 18.6856C21.6462 16.6237 20.7676 15.0132 19.9489 13.9867C19.8948 13.6783 19.7994 13.4212 19.7098 13.2403C19.9812 12.6587 20.1483 12.0423 20.1946 11.4016L20.3867 8.80966C20.3871 8.80626 20.3871 8.80305 20.3872 8.79984H21.5997C21.924 8.79984 22.2259 8.67305 22.4427 8.45038C22.6731 8.22645 22.7997 7.92431 22.7997 7.59988C22.7997 6.93808 22.2615 6.39989 21.5997 6.39989H21.4034C21.1152 5.19008 20.5026 4.08509 19.6108 3.18924C18.9322 2.51049 18.1008 1.98835 17.1998 1.64856V1.24803C17.1998 0.559992 16.6399 0 15.9517 0H13.6479C12.9596 0 12.3998 0.559992 12.3998 1.24803V1.64088C10.2923 2.4373 8.71792 4.22032 8.19578 6.40013H7.99988C7.67524 6.40013 7.37329 6.52691 7.15688 6.74958C6.92652 6.97351 6.79992 7.27566 6.79992 7.60009C6.79992 8.26188 7.3381 8.80007 7.9999 8.80007H9.21255C9.2129 8.80471 9.2129 8.809 9.21308 8.81346L9.40879 11.4577C9.47254 12.3102 9.74432 13.1472 10.1959 13.8788C10.5413 14.4357 10.9847 14.9229 11.5143 15.3264C11.68 15.4521 11.842 15.5619 12.0107 15.6632C12.1388 15.7398 12.2691 15.8077 12.3998 15.8712V16.7237C12.3998 17.648 11.6479 18.3999 10.7236 18.3999H9.59986V15.6C9.59986 15.3789 9.42093 15.2 9.19987 15.2H4.39994V13.2C4.39994 12.9789 4.22101 12.8 3.99994 12.8H2.67621C1.20035 12.8 0 14.0004 0 15.4762V21.6C0 21.6156 0.00714293 21.6286 0.00875022 21.6436C0.0123216 21.7775 0.0332142 21.917 0.0691058 22.0582C0.0692843 22.0591 0.0689272 22.06 0.0691058 22.0609C0.0696415 22.0638 0.0707129 22.0661 0.0712486 22.0689C0.0721414 22.0723 0.0724986 22.0755 0.0733914 22.0789C0.0737486 22.0804 0.07482 22.0816 0.0753557 22.083C0.116605 22.2654 0.175354 22.4336 0.246069 22.5707C0.656243 23.4391 1.54374 24 2.50784 24H9.19986C9.42092 24 9.59985 23.8211 9.59985 23.6V22.8H23.5996C23.8207 22.8 23.9996 22.6211 23.9996 22.4C23.9996 20.7613 22.9777 19.2787 21.4804 18.6862L21.4805 18.6856ZM20.6958 18.4617C20.6725 18.4574 20.6489 18.456 20.6255 18.4522C20.5951 18.4474 20.565 18.4442 20.5346 18.4401C20.3573 18.4156 20.1791 18.3996 19.9998 18.3996H18.8761C18.7928 18.3996 18.7109 18.3921 18.6304 18.3801C18.6046 18.3763 18.5798 18.3699 18.5545 18.3651C18.4998 18.3544 18.4459 18.3421 18.393 18.3263C18.3652 18.318 18.3379 18.3083 18.3105 18.2985C18.2609 18.2806 18.2121 18.2606 18.1646 18.2383C18.1395 18.2265 18.1143 18.2147 18.0896 18.2017C18.0384 18.1744 17.9891 18.1439 17.9411 18.1115C17.9234 18.0997 17.905 18.089 17.8879 18.0765C17.7588 17.9821 17.6434 17.869 17.5455 17.7405C17.5322 17.723 17.5205 17.704 17.5079 17.686C17.4857 17.6544 17.4659 17.6208 17.4459 17.5874C17.4496 17.5856 17.4532 17.5837 17.457 17.5817C17.4866 17.5673 17.5141 17.5523 17.543 17.5378C17.6338 17.4926 17.7232 17.4469 17.8091 17.4001C17.848 17.3789 17.8848 17.3571 17.9227 17.3356C17.9955 17.2942 18.0677 17.2526 18.1368 17.2101C18.1754 17.1864 18.2123 17.1623 18.2498 17.1382C18.3146 17.0964 18.3782 17.0542 18.4395 17.0114C18.4752 16.9864 18.5102 16.9612 18.5446 16.936C18.6041 16.8924 18.6614 16.8483 18.7171 16.8037C18.7487 16.7783 18.7805 16.7532 18.8109 16.7274C18.8662 16.6808 18.9189 16.6335 18.9703 16.5858C18.997 16.5612 19.0243 16.5369 19.05 16.5119C19.103 16.4601 19.1525 16.4076 19.2009 16.3548C19.2211 16.3328 19.2427 16.3112 19.2621 16.2891C19.3187 16.2242 19.3711 16.1583 19.4207 16.0919C19.4287 16.0812 19.4382 16.071 19.4461 16.0603C19.5307 15.9464 19.6028 15.8284 19.6682 15.7085C19.6789 15.6887 19.6905 15.6692 19.7009 15.6494C19.7609 15.5332 19.8112 15.4146 19.853 15.2941C19.8564 15.2841 19.8623 15.2746 19.8657 15.2646C20.3623 16.0983 20.7607 17.1801 20.6958 18.4617ZM18.7248 19.1949C17.8341 19.9347 16.3702 20.3995 14.7999 20.3995C13.2296 20.3995 11.7656 19.9347 10.875 19.1949C10.8921 19.1938 10.9087 19.1908 10.9257 19.1894C10.9657 19.1862 11.0053 19.1815 11.0448 19.1763C11.0866 19.171 11.1278 19.1647 11.1689 19.1574C11.2073 19.1504 11.2451 19.1424 11.2828 19.1337C11.3239 19.1242 11.3644 19.1138 11.4046 19.1022C11.441 19.0919 11.4769 19.0806 11.5126 19.0685C11.5526 19.0551 11.5919 19.0404 11.631 19.0251C11.6655 19.0115 11.6994 18.9974 11.733 18.9822C11.7716 18.9649 11.8092 18.9465 11.8467 18.9274C11.8792 18.9108 11.9114 18.8938 11.943 18.876C11.9798 18.8551 12.0157 18.8329 12.0512 18.8101C12.0814 18.7908 12.1114 18.7715 12.1407 18.751C12.1755 18.7265 12.2092 18.7008 12.2428 18.6746C12.2708 18.6528 12.2987 18.631 12.3257 18.608C12.3582 18.5803 12.3892 18.5512 12.4203 18.5219C12.4458 18.4978 12.4715 18.4738 12.4962 18.4487C12.526 18.418 12.5544 18.3858 12.5826 18.3535C12.6058 18.3271 12.6292 18.3012 12.6512 18.2738C12.6783 18.2403 12.7035 18.2051 12.7289 18.1701C12.7492 18.1419 12.7701 18.1142 12.7894 18.0853C12.8135 18.0489 12.8353 18.011 12.8576 17.9733C12.8751 17.9435 12.8935 17.9142 12.9099 17.8835C12.9308 17.8442 12.9492 17.8037 12.968 17.7633C12.9824 17.7323 12.9978 17.7019 13.011 17.6703C13.0285 17.628 13.0431 17.5842 13.0585 17.5408C13.0696 17.5092 13.0819 17.4785 13.0917 17.4464C13.1058 17.4005 13.1164 17.3533 13.1278 17.3064C13.1353 17.2751 13.1446 17.2448 13.151 17.2132C13.1615 17.1607 13.1683 17.1067 13.1755 17.0532C13.179 17.026 13.1848 16.9994 13.1874 16.9719C13.1955 16.8899 13.1999 16.8073 13.1999 16.7233V16.1866C13.3478 16.2316 13.4971 16.2682 13.6472 16.3C13.6862 16.3082 13.7253 16.3141 13.7644 16.3214C13.8885 16.3448 14.0128 16.3641 14.1378 16.3785C14.1849 16.3841 14.2319 16.3892 14.2792 16.3934C14.4146 16.4055 14.5499 16.4123 14.6856 16.4139C14.7069 16.4142 14.7283 16.4171 14.7496 16.4171C14.7562 16.4171 14.7628 16.4162 14.7696 16.4162C15.0587 16.4151 15.3476 16.3905 15.634 16.3421C15.6704 16.3359 15.7067 16.3269 15.7431 16.32C15.8483 16.2998 15.9531 16.2784 16.0572 16.2517C16.107 16.2391 16.1561 16.2235 16.2056 16.2094C16.2702 16.1912 16.3356 16.1753 16.3999 16.1542V16.7233C16.3999 16.9971 16.4452 17.2664 16.5327 17.519C16.5331 17.5203 16.5338 17.5212 16.5342 17.5224C16.5342 17.5226 16.5343 17.5228 16.5343 17.523C16.5343 17.5231 16.5345 17.5233 16.5347 17.5235C16.5758 17.6446 16.6258 17.7608 16.6834 17.8717C16.7029 17.9092 16.7279 17.9424 16.7492 17.9787C16.7917 18.051 16.8334 18.1237 16.8827 18.1908C16.9124 18.231 16.9468 18.2665 16.9786 18.3047C17.0263 18.3621 17.0729 18.4201 17.1252 18.4728C17.1625 18.5101 17.204 18.5426 17.2436 18.5774C17.2967 18.6242 17.3488 18.6715 17.4056 18.7137C17.4497 18.7463 17.4968 18.7738 17.5431 18.8035C17.6008 18.8404 17.6577 18.8778 17.7184 18.9099C17.7682 18.9363 17.8204 18.9578 17.872 18.9806C17.9336 19.0079 17.9949 19.0354 18.0588 19.0578C18.1132 19.0769 18.1691 19.0911 18.225 19.1063C18.29 19.124 18.3547 19.1411 18.4215 19.1537C18.4795 19.1645 18.5384 19.171 18.5977 19.1776C18.6404 19.1824 18.6816 19.1922 18.7248 19.1949ZM18.3973 15.0187C18.4345 14.9861 18.4698 14.9516 18.5059 14.918C18.5848 14.8446 18.6616 14.7693 18.7357 14.6911C18.7732 14.6514 18.8103 14.6114 18.8466 14.5707C18.9205 14.4875 18.9912 14.4014 19.06 14.3134C19.088 14.2775 19.1171 14.2429 19.1443 14.2063C19.1537 14.1934 19.1643 14.1818 19.1736 14.1689C19.1755 14.1841 19.1778 14.1989 19.1798 14.2143C19.2462 14.6982 19.1193 15.1596 18.8005 15.588C18.7268 15.6889 18.6391 15.7875 18.5443 15.8846C18.527 15.9023 18.5105 15.9202 18.4925 15.9378C18.3979 16.0305 18.2934 16.1212 18.1796 16.2102C18.1571 16.2277 18.1334 16.245 18.1102 16.2625C17.9889 16.3534 17.8607 16.443 17.7195 16.5298C17.7139 16.5332 17.7075 16.5366 17.702 16.54C17.5632 16.6244 17.4127 16.7066 17.2552 16.7869C17.2393 16.7952 17.2236 16.8034 17.2073 16.8114C17.2055 16.7821 17.1998 16.7528 17.1998 16.7234V15.8241C17.2693 15.7886 17.3386 15.7511 17.408 15.7119L17.5064 15.6569C17.6995 15.5494 17.8752 15.4343 18.0353 15.3109C18.1611 15.2193 18.2809 15.1209 18.3973 15.0187ZM19.0443 3.75399C19.7857 4.49843 20.3116 5.40576 20.5823 6.39966H17.1998V2.49956C17.887 2.79902 18.5169 3.2265 19.0443 3.75399H19.0443ZM13.1998 1.24778C13.1998 1.00065 13.401 0.799753 13.6478 0.799753H15.9517C16.1985 0.799753 16.3997 1.00064 16.3997 1.24778V6.39971H13.1997L13.1998 1.24778ZM12.3998 2.50024V6.39966H9.01821C9.49518 4.65898 10.7405 3.22471 12.3998 2.50024ZM7.59985 7.5996C7.59985 7.49282 7.64092 7.39424 7.72253 7.3146C7.79431 7.2405 7.89324 7.1996 7.99984 7.1996H21.5996C21.8204 7.1996 21.9996 7.37907 21.9996 7.5996C21.9996 7.70638 21.9586 7.80495 21.8773 7.88442C21.8046 7.9587 21.7062 7.99959 21.5996 7.99959H7.99984C7.77913 7.99959 7.59985 7.82013 7.59985 7.5996ZM11.9982 14.6893C11.5475 14.3456 11.1696 13.9308 10.8759 13.4574C10.4923 12.8356 10.2607 12.1231 10.2064 11.3981L10.0143 8.79958H19.5853L19.3971 11.3428C19.353 11.9487 19.1889 12.5301 18.9089 13.0715C18.8526 13.1797 18.7932 13.2879 18.73 13.3922C18.4241 13.8958 18.0319 14.3238 17.5562 14.6704C17.4191 14.7759 17.2757 14.87 17.116 14.9591L17.0173 15.0147C16.8939 15.0834 16.77 15.1495 16.6341 15.2077C16.513 15.2632 16.3916 15.3109 16.2657 15.355C15.7271 15.547 15.1641 15.6332 14.6038 15.6152C14.0431 15.597 13.4845 15.4739 12.9549 15.2472C12.7756 15.1718 12.5963 15.0807 12.422 14.9768C12.2788 14.8906 12.1397 14.7963 11.9983 14.6893L11.9982 14.6893ZM0.800179 15.4757C0.800179 14.4413 1.64195 13.5995 2.6764 13.5995H3.60014V20.3994H2.00016C1.8782 20.3994 1.75838 20.4132 1.64034 20.4348C1.60267 20.4417 1.56642 20.4532 1.52927 20.4623C1.44945 20.4816 1.37089 20.5044 1.29392 20.5337C1.25285 20.5494 1.21303 20.5669 1.17303 20.5853C1.10125 20.6182 1.03197 20.6557 0.963929 20.6971C0.926608 20.7198 0.889467 20.7416 0.853394 20.7669C0.836073 20.779 0.817144 20.7878 0.800179 20.8007V15.4757ZM8.80006 23.1995H2.50804C1.85214 23.1995 1.24822 22.8183 0.963605 22.2163C0.928963 22.149 0.899857 22.0726 0.876283 21.989C0.878783 21.9818 0.880747 21.9749 0.883426 21.9676C0.904675 21.912 0.930031 21.8552 0.964316 21.7968C1.012 21.7129 1.07646 21.6281 1.14914 21.5524C1.37985 21.3249 1.68216 21.1995 2.00019 21.1995H4.00016C4.22122 21.1995 4.40015 21.0206 4.40015 20.7995V15.9996H8.80009L8.80006 23.1995ZM9.60005 21.9995V19.1996H9.77683C10.705 20.4204 12.6425 21.1995 14.7998 21.1995C16.9572 21.1995 18.8948 20.4204 19.8229 19.1996H19.9996C20.3153 19.1996 20.6293 19.2472 20.9364 19.343C22.1407 19.7046 23.0164 20.766 23.1742 21.9995L9.60005 21.9995Z" fill="black"/>
<path d="M7.60016 16.3994H5.60019C5.37912 16.3994 5.2002 16.5783 5.2002 16.7994C5.2002 17.0205 5.37912 17.1994 5.60019 17.1994H7.20017V18.3994H5.60019C5.37912 18.3994 5.2002 18.5783 5.2002 18.7994V19.9994C5.2002 20.2204 5.37912 20.3994 5.60019 20.3994H7.20017V22.3993C7.20017 22.6204 7.37909 22.7993 7.60016 22.7993C7.82123 22.7993 8.00015 22.6204 8.00015 22.3993V19.9994C8.00015 19.7783 7.82123 19.5994 7.60016 19.5994H6.00018V19.1994H7.60016C7.82123 19.1994 8.00015 19.0204 8.00015 18.7994V16.7994C8.00015 16.5783 7.82123 16.3994 7.60016 16.3994Z" fill="black"/>
</svg>
