<svg width="32" height="32" viewBox="0 0 32 32" fill="none" xmlns="http://www.w3.org/2000/svg">
<path d="M26.7191 13.3289C26.3518 13.3299 25.9998 13.4766 25.7404 13.7367C25.481 13.9968 25.3353 14.3493 25.3353 14.7166V15.2194H8.48303V14.7166C8.50295 14.3366 8.36572 13.9649 8.10375 13.6889C7.84177 13.413 7.47786 13.2565 7.09721 13.2565C6.71674 13.2565 6.3528 13.413 6.09085 13.6889C5.8287 13.9649 5.69164 14.3366 5.71156 14.7166V15.2194H5.30324C5.27303 12.8185 5.41296 10.3041 6.43756 8.05445C6.92183 6.87623 7.75418 5.87375 8.82333 5.18085C9.58106 4.69791 10.5213 4.59714 11.3642 4.90875C12.4798 5.38153 13.3679 6.26975 13.8408 7.38531H10.0257C9.91207 7.35442 9.79053 7.37823 9.69685 7.4498C9.60333 7.52119 9.54848 7.63227 9.54848 7.75008C9.54848 7.86791 9.60333 7.97897 9.69685 8.05054C9.79053 8.12211 9.91207 8.14591 10.0257 8.11502H10.6193V10.5008C10.2625 10.6428 9.99529 10.9471 9.90074 11.3193C9.80604 11.6915 9.89551 12.0865 10.1413 12.3815C10.387 12.6766 10.7593 12.8361 11.1424 12.8104C11.5256 12.7848 11.8733 12.577 12.0776 12.2519C12.2816 11.9266 12.3176 11.5232 12.1743 11.1669C12.0308 10.8107 11.7254 10.5447 11.3529 10.4517V8.11501H13.8447V11.2722L13.6632 11.8885L12.9825 12.1077C12.8515 12.153 12.7558 12.2661 12.733 12.4026C12.7153 12.5407 12.7749 12.6771 12.8879 12.7581L13.4664 13.1551V13.8583C13.469 13.9972 13.5473 14.1235 13.6707 14.1873C13.7216 14.2109 13.777 14.2239 13.8332 14.2251C13.9137 14.2243 13.9919 14.1978 14.0564 14.1495L14.6122 13.7223L15.2815 13.9378H15.2813C15.4123 13.9712 15.551 13.9322 15.6456 13.8355C15.7399 13.7388 15.7755 13.599 15.7389 13.4689L15.5083 12.8072L15.9205 12.2364H15.9204C15.9963 12.1241 16.0063 11.9799 15.9469 11.8582C15.8804 11.7367 15.7526 11.6613 15.614 11.6616L14.9108 11.6805L14.5668 11.2078V8.11499H17.0623V10.0622L16.0982 11.0377C15.9613 11.1832 15.9613 11.4102 16.0982 11.5557L17.1795 12.6409C17.2495 12.7084 17.343 12.7464 17.4404 12.7467C17.5365 12.7454 17.6283 12.7076 17.6975 12.6409L18.7827 11.5557C18.9194 11.4102 18.9194 11.1832 18.7827 11.0377L17.8072 10.0622L17.807 8.11499H18.741C18.8547 8.14588 18.9763 8.12208 19.0698 8.05051C19.1633 7.97894 19.2183 7.86787 19.2183 7.75005C19.2183 7.63223 19.1633 7.52116 19.0698 7.44977C18.9763 7.3782 18.8547 7.3544 18.741 7.38528H14.6272C14.0299 5.89179 12.8956 4.68942 11.6024 4.22052C10.5557 3.83685 9.39046 3.95838 8.44525 4.54951C7.24356 5.31855 6.3066 6.43766 5.7607 7.7558C4.68679 10.134 4.53944 12.739 4.56969 15.2194H4.28611C4.11782 15.2616 4 15.4128 4 15.5862C4 15.7597 4.11782 15.9108 4.28611 15.953H5.72291V26.5399C5.70299 26.92 5.84022 27.2916 6.1022 27.5675C6.36417 27.8437 6.72808 28 7.10873 28C7.4892 28 7.85315 27.8437 8.1151 27.5675C8.37724 27.2916 8.5143 26.92 8.49438 26.5399V24.5738H25.3354V26.5399C25.3155 26.92 25.4525 27.2916 25.7147 27.5675C25.9767 27.8437 26.3406 28 26.721 28C27.1017 28 27.4656 27.8437 27.7276 27.5675C27.9896 27.2916 28.1268 26.92 28.1069 26.5399V14.7167C28.1069 14.3487 27.9607 13.9957 27.7004 13.7355C27.4401 13.4753 27.0872 13.329 26.7192 13.329L26.7191 13.3289ZM11.527 11.6085C11.527 11.7971 11.4132 11.9669 11.239 12.0386C11.0648 12.1104 10.8645 12.0698 10.7318 11.9362C10.599 11.8023 10.5602 11.6016 10.6334 11.4279C10.7065 11.2544 10.8773 11.142 11.0657 11.1435C11.1888 11.1435 11.3066 11.1926 11.3933 11.28C11.4799 11.3673 11.528 11.4856 11.527 11.6085L11.527 11.6085ZM14.8998 12.4063L14.8128 12.531V12.5312C14.744 12.6292 14.7257 12.754 14.7635 12.8678L14.8127 13.0114L14.669 12.966C14.5542 12.9304 14.4293 12.9513 14.3326 13.0227L14.2116 13.1135V12.9623C14.2099 12.8419 14.1508 12.7295 14.0527 12.6598L13.928 12.5729L14.0716 12.5275C14.1857 12.4881 14.2742 12.3968 14.3098 12.2817L14.3552 12.138L14.4421 12.2591V12.2589C14.5144 12.3553 14.6282 12.4113 14.7485 12.4101L14.8998 12.4063ZM17.4407 11.8617L16.8735 11.2983L17.4407 10.7348L18.0041 11.2983L17.4407 11.8617ZM25.3355 21.4431H24.4583V15.953H25.3355V21.4431ZM22.4089 21.4431V15.953H23.7246V21.4431H22.4089ZM20.3558 21.4431V15.953H21.6792V21.4431H20.3558ZM18.3027 21.4431V15.953H19.6224L19.6222 21.4431H18.3027ZM16.2496 21.4431V15.953H17.5693L17.5691 21.4431H16.2496ZM14.1965 21.4431L14.1964 15.953H15.516V21.4431H14.1965ZM12.1472 21.4431V15.953H13.4629V21.4431H12.1472ZM10.0941 21.4431L10.0939 15.953H11.4135V21.4431H10.0941ZM9.36045 15.953V21.4431H8.4832V15.953H9.36045ZM7.74964 26.54C7.76348 26.7216 7.70102 26.9007 7.5773 27.0342C7.4534 27.1679 7.27954 27.2439 7.09743 27.2439C6.9153 27.2439 6.74143 27.1679 6.61769 27.0342C6.49396 26.9007 6.43133 26.7216 6.44517 26.54V14.7167C6.43133 14.5351 6.49396 14.356 6.61769 14.2225C6.74141 14.0888 6.91527 14.013 7.09743 14.013C7.27956 14.013 7.45342 14.0888 7.5773 14.2225C7.70102 14.356 7.76348 14.5351 7.74964 14.7167V26.54ZM8.48325 23.8402V22.1765H25.3355V23.8213L8.48325 23.8402ZM27.3885 26.54C27.4023 26.7216 27.3399 26.9007 27.216 27.0342C27.0923 27.1679 26.9184 27.2439 26.7362 27.2439C26.5541 27.2439 26.3803 27.1679 26.2565 27.0342C26.1326 26.9007 26.0702 26.7216 26.084 26.54V14.7167C26.0702 14.5351 26.1326 14.356 26.2565 14.2225C26.3802 14.0888 26.5541 14.013 26.7362 14.013C26.9184 14.013 27.0922 14.0888 27.216 14.2225C27.3399 14.356 27.4023 14.5351 27.3885 14.7167V26.54Z" fill="#1C2028"/>
</svg>
