<svg width="13" height="20" viewBox="0 0 13 20" fill="none" xmlns="http://www.w3.org/2000/svg">
<path d="M0.907827 19.5999H10.5078C10.8393 19.5999 11.1078 19.3314 11.1078 18.9999V2.1999C11.1078 2.10682 11.0861 2.01491 11.0445 1.93154L10.4445 0.731544C10.3429 0.528307 10.1352 0.399902 9.90784 0.399902H1.50784C1.2805 0.399902 1.07276 0.528307 0.971145 0.731544L0.371145 1.93154C0.329627 2.01475 0.307861 2.10682 0.307861 2.1999V18.9999C0.307861 19.3314 0.576387 19.5999 0.907861 19.5999H0.907827ZM1.69314 1.2999H9.72243L10.0224 1.8999H1.39314L1.69314 1.2999ZM1.20783 2.4999H10.2078V18.6999H1.20783V2.4999Z" fill="#1C2028"/>
<path d="M10.4402 13.3394H10.6924C11.2446 13.3394 11.6924 13.7871 11.6924 14.3394V16.5133C11.6924 17.0656 11.2446 17.5133 10.6924 17.5133H10.4402" stroke="#1C2028" stroke-width="0.7"/>
</svg>
