<?xml version="1.0" encoding="UTF-8"?>
<svg xmlns="http://www.w3.org/2000/svg" version="1.1" viewBox="0 0 24 24">
  <!-- Generator: Adobe Illustrator 28.7.0, SVG Export Plug-In . SVG Version: 1.2.0 Build 136)  -->
  <g>
    <g id="Calque_1">
      <g>
        <polygon points="11.6 2.2 11.6 2.2 11.8 2.6 11.6 2.2"/>
        <path d="M11.7,22s0,0,0,0c0,0,0,0,0,0h0s0,0,0,0c0,0,0,0,0,0,0,0,.1,0,.2,0s.1,0,.2,0h0s0,0,0,0c0,0,0,0,0,0,0,0,0,0,0,0,0,0,0,0,0,0,0,0,0,0,0,0,0,0,0,0,0,0h.2c0,0,7.9-4.6,7.9-4.6h0c.2-.1.4-.4.4-.7v-.5h0c0,0,0-.1,0-.1V7.5s0,0,0-.1h0s0,0,0,0c0,0,0,0,0,0h0s0,0,0,0c0,0,0,0,0,0h0c0,0,0,0,0,0h0s-.3.2-.3.2h0l.3-.2s0,0,0,0h0s0,0,0,0c0,0,0,0,0,0,0,0,0,0,0,0,0,0,0,0,0,0h0s0,0,0,0c0,0,0,0,0,0h0s0,0,0,0c0,0,0,0,0,0,0,0,0,0,0,0,0,0,0,0,0,0l-.2.3h0s.2-.3.2-.3h0s0,0,0,0L12.4,2.2l-.2.4h0,0s.2-.4.2-.4h0c-.2-.1-.6-.1-.8,0l.2.4h0l-.2-.4L3.6,6.8h0s0,0,0,0h0s0,0,0,0c0,0,0,0,0,0,0,0,0,0,0,0s0,0,0,0h0s0,0,0,0c0,0,0,0,0,0,0,0,0,0,0,0h0s0,0,0,0c0,0,0,0,0,0,0,0,0,0,0,0h0c0,0,0,.1,0,.1h0s0,0,0,0h0c0,0,0,0,0,0v9.1c0,.3.2.6.4.7h0s0,0,0,0c0,0,0,0,0,0h0l7.6,4.3M3.2,7.3h.4c0,.1-.4,0-.4,0ZM19.2,7.5h0s0,0,0,0ZM4.8,8.9h.1c0,0,0,0,0,0h0s.2-.3.2-.3h0l-.2.4,6.2,3.5v7.3l-6.4-3.6v-7.3ZM5.8,7.6h0c0,0,0,0,0,0h-.1c0,0,6.4-3.7,6.4-3.7l6.4,3.6h-.1c0,0,0,0,0,0h0c0,0-5.7,3.3-5.7,3.3h0l-.4.3-.4-.3h0s-5.7-3.3-5.7-3.3ZM18.4,8h0s0,0,0,0h0ZM12.6,11.2h0c0-.1,0,0,0,0h0ZM12.8,12.6l6.2-3.5-.2-.4h0s.2.4.2.4h0s0,0,0,0h.1c0,0,0,7.2,0,7.2l-6.4,3.6v-7.3ZM18.9,8.7h0ZM4.4,8.2h0ZM20.4,7.4h0s0,0,0,0h0ZM20.4,7.4h.4c0-.1-.4,0-.4,0ZM20.7,7l-.3.2h0s0,0,0,0l.3-.2ZM20.3,7.2h0s0,0,0,0h0ZM3.8,7.2h0s0,0,0,0h0ZM3.5,6.9h0s0,0,0,0c0,0,0,0,0,0ZM3.6,7.4h-.4c0-.1.4,0,.4,0Z"/>
        <path d="M1.2,5.4c.5,0,.8-.4.8-.8v-2.5h2.5c.5,0,.8-.4.8-.8s-.4-.8-.8-.8h-2.5C1.1.5.4,1.2.4,2.1v2.5c0,.5.4.8.8.8Z"/>
        <path d="M4.5,22.1h-2.5v-2.5c0-.5-.4-.8-.8-.8s-.8.4-.8.8v2.5c0,.9.7,1.7,1.7,1.7h2.5c.5,0,.8-.4.8-.8s-.4-.8-.8-.8Z"/>
        <path d="M22.8,18.8c-.5,0-.8.4-.8.8v2.5h-2.5c-.5,0-.8.4-.8.8s.4.8.8.8h2.5c.9,0,1.7-.7,1.7-1.7v-2.5c0-.5-.4-.8-.8-.8Z"/>
        <path d="M22,.5h-2.5c-.5,0-.8.4-.8.8s.4.8.8.8h2.5v2.5c0,.5.4.8.8.8s.8-.4.8-.8v-2.5c0-.9-.7-1.7-1.7-1.7Z"/>
      </g>
    </g>
  </g>
</svg>