<?xml version="1.0" encoding="UTF-8"?>
<svg id="Calque_1" xmlns="http://www.w3.org/2000/svg" version="1.1" viewBox="0 0 24 24">
  <!-- Generator: Adobe Illustrator 29.6.1, SVG Export Plug-In . SVG Version: 2.1.1 Build 9)  -->
  <path d="M23.6,4.3c-.1-.1-.3-.2-.5-.2h-12.1c-.7,0-1.3.3-1.8.7-.5.5-.7,1.1-.7,1.8h0c0,0-4.5,0-4.5,0-.4,0-.8.1-1.1.3-.3.2-.6.5-.8.8L.2,11.1v5.8c0,.2,0,.3.2.5s.3.2.5.2h1.4c.1.7.5,1.3,1.1,1.7.5.4,1.2.7,1.9.7s1.4-.2,1.9-.7c.5-.4.9-1,1.1-1.7h7.3c.1.7.5,1.3,1.1,1.7.5.4,1.2.7,1.9.7s1.4-.2,1.9-.7c.5-.4.9-1,1.1-1.7h1.7c.2,0,.3,0,.5-.2.1-.1.2-.3.2-.5V4.7c0-.2,0-.3-.2-.5ZM6.5,18.1c-.3.3-.8.5-1.2.5s-.7-.1-1-.3c-.3-.2-.5-.5-.6-.8-.1-.3-.2-.7,0-1,0-.3.2-.6.5-.9.2-.2.6-.4.9-.5.3,0,.7,0,1,0,.3.1.6.4.8.6.2.3.3.6.3,1,0,.5-.2.9-.5,1.2ZM8.5,16.2h-.3c-.1-.7-.5-1.3-1.1-1.7-.5-.4-1.2-.7-1.9-.7-.7,0-1.4.2-1.9.7-.5.4-.9,1-1.1,1.7h-.8v-4.3h7v4.3ZM8.5,10.6H2l1.3-2.2c0-.1.2-.3.3-.3.1,0,.3-.1.5-.1h4.5v2.7ZM19.7,18.1c-.3.3-.8.5-1.2.5s-.7-.1-1-.3c-.3-.2-.5-.5-.6-.8-.1-.3-.2-.7,0-1,0-.3.2-.6.5-.9.2-.2.6-.4.9-.5.3,0,.7,0,1,0,.3.1.6.4.8.6.2.3.3.6.3,1,0,.5-.2.9-.5,1.2ZM22.5,16.2h-1c-.1-.7-.5-1.3-1.1-1.7-.5-.4-1.2-.7-1.9-.7s-1.4.2-1.9.7c-.5.4-.9,1-1.1,1.7h-5.7V6.6c0-.3.1-.6.3-.8.2-.2.5-.3.8-.3h11.5v10.8Z"/>
  <path d="M11.7,11.2h8.2c.2,0,.3,0,.5-.2.1-.1.2-.3.2-.5s0-.3-.2-.5c-.1-.1-.3-.2-.5-.2h-8.2c-.2,0-.3,0-.5.2-.1.1-.2.3-.2.5s0,.3.2.5c.1.1.3.2.5.2Z"/>
  <path d="M11.7,13.8h2.7c.2,0,.3,0,.5-.2.1-.1.2-.3.2-.5s0-.3-.2-.5c-.1-.1-.3-.2-.5-.2h-2.7c-.2,0-.3,0-.5.2-.1.1-.2.3-.2.5s0,.3.2.5c.1.1.3.2.5.2Z"/>
  <path d="M11.7,8.6h5.6c.2,0,.3,0,.5-.2s.2-.3.2-.5,0-.3-.2-.5-.3-.2-.5-.2h-5.6c-.2,0-.3,0-.5.2-.1.1-.2.3-.2.5s0,.3.2.5c.1.1.3.2.5.2Z"/>
</svg>