<svg width="32" height="32" viewBox="0 0 32 32" fill="none" xmlns="http://www.w3.org/2000/svg">
<path d="M27.4906 11.5121H21.9579L21.978 6.50912C21.983 5.83932 21.723 5.20968 21.2484 4.73486C20.7785 4.26002 20.1487 4.00021 19.4791 4.00021L12.5016 4C11.8318 4 11.2022 4.2598 10.7324 4.73465C10.2626 5.20948 10.0028 5.83911 10.0028 6.50891L10.0228 11.5118L4.49973 11.5121C4.22487 11.5121 4 11.7369 4 12.0118V14.0109C4 14.2858 4.22487 14.5106 4.49973 14.5106H5.49436V27.5002C5.49436 27.775 5.71922 27.9999 5.99408 27.9999C6.26894 27.9999 6.49381 27.775 6.49381 27.5002L6.49402 14.5106H15.4904V15.0154H11.4919C10.1124 15.0154 8.99286 16.1349 8.99286 17.5144C8.99286 17.7893 9.21773 18.0142 9.49259 18.0142H15.4902V25.5009H11.9916C11.4419 25.5009 10.992 25.9507 10.992 26.5006V27.5003C10.992 27.7751 11.2168 28 11.4917 28C11.7666 28 11.9914 27.7751 11.9914 27.5003V26.5006H15.4899V27.5003C15.4899 27.7751 15.7148 28 15.9897 28C16.2645 28 16.4894 27.7751 16.4894 27.5003V26.5006H19.9879V27.5003C19.9879 27.7751 20.2128 28 20.4876 28C20.7625 28 20.9874 27.7751 20.9874 27.5003V26.5006C20.9874 25.9509 20.5376 25.5009 19.9877 25.5009H16.4892L16.4898 18.0142H22.4874C22.7622 18.0142 22.9871 17.7893 22.9871 17.5144C22.9871 16.1349 21.8676 15.0154 20.488 15.0154H16.4896V14.5106H25.4859V27.5002C25.4859 27.775 25.7108 27.9999 25.9857 27.9999C26.2605 27.9999 26.4854 27.775 26.4854 27.5002L26.4858 14.5106H27.4905C27.7654 14.5106 27.9902 14.2858 27.9902 14.0109V12.0118C27.9902 11.7367 27.7654 11.5118 27.4905 11.5118L27.4906 11.5121ZM21.9027 17.0148H10.0774C10.2823 16.435 10.8371 16.0152 11.4918 16.0152H20.4882C21.1379 16.0154 21.6976 16.4352 21.9026 17.0148H21.9027ZM11.0022 6.50944C11.0022 6.10468 11.1572 5.72981 11.437 5.44493C11.7219 5.16003 12.0968 5.00503 12.5016 5.00503H19.4785C19.8833 5.00503 20.2582 5.16003 20.5431 5.44493C20.828 5.72983 20.983 6.10969 20.9779 6.50944L20.9579 11.5124H11.0217L11.0022 6.50944ZM26.9905 13.5116H4.99977V12.5119H26.9905V13.5116Z" fill="#1C2028"/>
</svg>
