<?xml version="1.0" encoding="UTF-8"?>
<svg id="Calque_1" xmlns="http://www.w3.org/2000/svg" version="1.1" viewBox="0 0 41 49">
  <!-- Generator: Adobe Illustrator 29.3.1, SVG Export Plug-In . SVG Version: 2.1.0 Build 151)  -->
  <defs>
    <style>
      .st0 {
        fill-rule: evenodd;
      }
    </style>
  </defs>
  <path id="Vector" class="st0" d="M1.1,45.2v2.5c0,.5.4.8.8.8h36.7c.5,0,.8-.4.8-.8v-2.5c.5,0,.8-.4.8-.8V.9c0-.5-.4-.8-.8-.8H1.1C.6,0,.2.5.2.9v43.5c0,.5.4.8.8.8ZM37.8,45.2v1.7H2.8v-1.7h35ZM1.9,43.6h36.7V11.8H1.9v31.8ZM1.9,8.5v1.7h10.8v-1.7H1.9ZM14.4,8.5v1.7h11.7v-1.7h-11.7ZM27.8,8.5v1.7h10.8v-1.7h-10.8ZM1.9,6.8V1.8h36.7v5H1.9ZM23.6,5.1h3.3c.5,0,.8-.4.8-.8s-.4-.8-.8-.8h-3.3c-.5,0-.8.4-.8.8s.4.8.8.8ZM30.2,5.1h3.3c.5,0,.8-.4.8-.8s-.4-.8-.8-.8h-3.3c-.5,0-.8.4-.8.8s.4.8.8.8Z"/>
</svg>