<svg width="16" height="16" viewBox="0 0 16 16" fill="none" xmlns="http://www.w3.org/2000/svg">
<path fill-rule="evenodd" clip-rule="evenodd" d="M7.32372 2.3092V7.32372H2.3092L3.06555 6.56737C3.33016 6.30276 3.33174 5.87296 3.06759 5.60881C2.80162 5.34284 2.37431 5.34556 2.10915 5.61085L0.200182 7.5197C0.199842 7.52004 0.199502 7.52038 0.199163 7.52072C0.198823 7.52106 0.198483 7.5214 0.198144 7.52174C0.0655574 7.65444 -0.000228391 7.82722 5.95713e-07 8C0.000793179 8.17358 0.0664647 8.34647 0.198144 8.47826C0.198483 8.4786 0.198823 8.47894 0.199163 8.47928C0.199502 8.47962 0.199842 8.47996 0.200182 8.4803L2.10915 10.3892C2.37376 10.6538 2.80344 10.6553 3.06759 10.3912C3.33355 10.1252 3.33084 9.69791 3.06555 9.43263L2.3092 8.67628H7.32372V13.6908L6.56736 12.9344C6.30276 12.6698 5.87296 12.6683 5.60881 12.9324C5.34284 13.1984 5.34556 13.6257 5.61085 13.8909L7.5197 15.7998C7.52004 15.8002 7.52038 15.8005 7.52072 15.8008C7.52106 15.8012 7.5214 15.8015 7.52174 15.8019C7.65443 15.9344 7.82722 16.0002 8 16C8.17357 15.9992 8.34646 15.9335 8.47826 15.8019C8.4786 15.8015 8.47894 15.8012 8.47928 15.8008C8.47962 15.8005 8.47996 15.8002 8.4803 15.7998L10.3892 13.8909C10.6538 13.6262 10.6553 13.1966 10.3912 12.9324C10.1252 12.6664 9.69791 12.6692 9.43263 12.9344L8.67628 13.6908V8.67628H13.6908L12.9344 9.43263C12.6698 9.69724 12.6683 10.127 12.9324 10.3912C13.1984 10.6572 13.6257 10.6544 13.8909 10.3892L15.7998 8.4803C15.8002 8.47996 15.8005 8.47962 15.8008 8.47928C15.8012 8.47894 15.8015 8.4786 15.8019 8.47826C15.9344 8.34556 16.0002 8.17278 16 8C15.9992 7.82643 15.9335 7.65353 15.8019 7.52174C15.8015 7.5214 15.8012 7.52106 15.8008 7.52072C15.8005 7.52038 15.8002 7.52004 15.7998 7.5197L13.8909 5.61085C13.6262 5.34624 13.1966 5.34466 12.9324 5.60881C12.6664 5.87478 12.6692 6.30209 12.9344 6.56737L13.6908 7.32372H8.67628V2.3092L9.43263 3.06555C9.69724 3.33016 10.127 3.33174 10.3912 3.06759C10.6572 2.80162 10.6544 2.37431 10.3892 2.10915L8.4803 0.200182C8.47996 0.199842 8.47962 0.199502 8.47928 0.199163C8.47894 0.198823 8.4786 0.198483 8.47826 0.198144C8.34556 0.0655575 8.17278 -0.000228391 8 5.95713e-07C7.82642 0.00079318 7.65353 0.0664647 7.52174 0.198144C7.5214 0.198483 7.52106 0.198823 7.52072 0.199163C7.52038 0.199502 7.52004 0.199842 7.5197 0.200182L5.61085 2.10915C5.34624 2.37376 5.34466 2.80344 5.60881 3.06759C5.87478 3.33355 6.30209 3.33084 6.56736 3.06555L7.32372 2.3092Z" fill="#14142B"/>
</svg>
