<svg width="24" height="24" viewBox="0 0 24 24" fill="none" xmlns="http://www.w3.org/2000/svg">
<path d="M12 2C6.46667 2 2 6.46667 2 12C2 17.5333 6.46667 22 12 22C17.5333 22 22 17.5333 22 12C22 6.46667 17.5333 2 12 2ZM12 20.3333C7.4 20.3333 3.66667 16.6 3.66667 12C3.66667 7.4 7.4 3.66667 12 3.66667C16.6 3.66667 20.3333 7.4 20.3333 12C20.3333 16.6 16.6 20.3333 12 20.3333Z" fill="#12100B"/>
<path d="M11.9998 9.77764C12.6134 9.77764 13.1109 9.28018 13.1109 8.66653C13.1109 8.05288 12.6134 7.55542 11.9998 7.55542C11.3861 7.55542 10.8887 8.05288 10.8887 8.66653C10.8887 9.28018 11.3861 9.77764 11.9998 9.77764Z" fill="#12100B"/>
<path d="M11.9998 10.8889C11.3776 10.8889 10.8887 11.3778 10.8887 12C10.8887 12.2222 10.9553 12.4445 11.0664 12.6222L12.5998 11.0889C12.4442 10.9556 12.222 10.8889 11.9998 10.8889Z" fill="#12100B"/>
<path d="M14.8889 11.4444C15.5026 11.4444 16.0001 10.9469 16.0001 10.3333C16.0001 9.71963 15.5026 9.22217 14.8889 9.22217C14.2753 9.22217 13.7778 9.71963 13.7778 10.3333C13.7778 10.9469 14.2753 11.4444 14.8889 11.4444Z" fill="#12100B"/>
<path d="M14.8889 14.7776C15.5026 14.7776 16.0001 14.2802 16.0001 13.6665C16.0001 13.0529 15.5026 12.5554 14.8889 12.5554C14.2753 12.5554 13.7778 13.0529 13.7778 13.6665C13.7778 14.2802 14.2753 14.7776 14.8889 14.7776Z" fill="#12100B"/>
<path d="M11.9998 16.4444C12.6134 16.4444 13.1109 15.9469 13.1109 15.3333C13.1109 14.7196 12.6134 14.2222 11.9998 14.2222C11.3861 14.2222 10.8887 14.7196 10.8887 15.3333C10.8887 15.9469 11.3861 16.4444 11.9998 16.4444Z" fill="#12100B"/>
<path d="M9.11136 14.7776C9.72501 14.7776 10.2225 14.2802 10.2225 13.6665C10.2225 13.0529 9.72501 12.5554 9.11136 12.5554C8.49771 12.5554 8.00024 13.0529 8.00024 13.6665C8.00024 14.2802 8.49771 14.7776 9.11136 14.7776Z" fill="#12100B"/>
<path d="M9.11136 11.4444C9.72501 11.4444 10.2225 10.9469 10.2225 10.3333C10.2225 9.71963 9.72501 9.22217 9.11136 9.22217C8.49771 9.22217 8.00024 9.71963 8.00024 10.3333C8.00024 10.9469 8.49771 11.4444 9.11136 11.4444Z" fill="#12100B"/>
<path d="M11.3779 12.9332C11.5557 13.0444 11.7779 13.111 12.0002 13.111C12.6224 13.111 13.1113 12.6221 13.1113 11.9999C13.1113 11.7777 13.0446 11.5555 12.9335 11.3777L11.3779 12.9332Z" fill="#12100B"/>
</svg>
