<?xml version="1.0" encoding="utf-8"?>
<!-- Generator: Adobe Illustrator 24.3.0, SVG Export Plug-In . SVG Version: 6.00 Build 0)  -->
<svg version="1.1" id="Calque_1" xmlns="http://www.w3.org/2000/svg" xmlns:xlink="http://www.w3.org/1999/xlink" x="0px" y="0px"
	 viewBox="0 0 28.1 28.1" style="enable-background:new 0 0 28.1 28.1;" xml:space="preserve">
<path d="M2.1,14.1L1.4,21c0,0,0,0,0,0.1c0,1.3,1.1,2.4,2.4,2.4h1.9c1.3,0,2.4-1.1,2.4-2.4l0.6-4.5H9c1.2,0,2.1-1,2.1-2.1v-0.1h5.7
	c1.1,0,2.3-0.6,3.5-1.8l0,0h1.8c1.1,0,2-0.9,2-2v-0.5h3c0.4,0,0.7-0.3,0.7-0.7c0-0.4-0.3-0.7-0.7-0.7h-3V8.2c0-1.1-0.9-2-2-2h-2
	c-1.1-1.1-2.2-1.6-3.3-1.6H3.5C1.7,4.6,0.2,6,0.2,7.8v3.4C0.2,12.4,1,13.6,2.1,14.1z M20.6,7.6h1.6c0.3,0,0.6,0.3,0.6,0.6v2.4
	c0,0.3-0.3,0.6-0.6,0.6h-1.6V7.6z M19.1,7.2v4.6c-0.9,0.8-1.6,1.2-2.3,1.2h-1.7V6h1.7C17.5,6,18.3,6.4,19.1,7.2z M1.7,7.8
	c0-1,0.8-1.8,1.8-1.8h10.2v7h-3.3c0,0,0,0,0,0c-0.4,0-0.7,0.3-0.7,0.7v0.8c0,0.4-0.3,0.7-0.7,0.7H8.2c0,0,0,0,0,0c0,0-0.1,0-0.1,0
	c0,0,0,0,0,0c0,0-0.1,0-0.1,0c0,0,0,0,0,0c0,0-0.1,0-0.1,0c0,0,0,0,0,0c0,0-0.1,0-0.1,0.1c0,0,0,0,0,0c0,0,0,0.1-0.1,0.1
	c0,0,0,0,0,0c0,0,0,0.1,0,0.1c0,0,0,0,0,0c0,0,0,0.1,0,0.1c0,0,0,0,0,0.1c0,0,0,0,0,0L6.8,21c0,0,0,0.1,0,0.1c0,0.5-0.4,1-1,1H3.8
	c-0.5,0-1-0.4-1-1l0.7-7.4c0-0.4-0.2-0.7-0.5-0.8c-0.8-0.2-1.3-0.9-1.3-1.7V7.8z"/>
</svg>
