<svg width="32" height="32" viewBox="0 0 32 32" fill="none" xmlns="http://www.w3.org/2000/svg">
<path d="M19.1382 19.8145C20.263 20.8662 21.4658 21.3013 22.6639 21.7327C25.2779 22.6759 27.8798 23.6167 29.9807 29.8441C30.0904 30.1695 29.9137 30.5217 29.5883 30.6314C29.5225 30.6533 29.4567 30.6643 29.3909 30.6643L1.95733 30.6667C1.61244 30.6667 1.33337 30.3876 1.33337 30.0427C1.33337 29.9526 1.35165 29.8673 1.38578 29.7905C3.48433 23.6117 6.07887 22.6746 8.68452 21.7339C9.8837 21.3001 11.0853 20.8663 12.2102 19.8146C11.7203 19.4307 11.2657 18.9773 10.8514 18.4728C10.1177 18.68 9.38045 18.9383 8.64315 19.2442C7.78399 19.6013 6.92605 20.0254 6.06689 20.5141C5.97062 20.5762 5.85484 20.6116 5.73298 20.6116C5.38809 20.6116 5.10903 20.3325 5.10903 19.9876V11.8968C5.10903 8.99145 6.29723 6.35071 8.21175 4.4361C10.1263 2.52158 12.7673 1.33337 15.6737 1.33337C18.579 1.33337 21.2209 2.52158 23.1356 4.4361C23.2903 4.59087 23.4402 4.75051 23.5852 4.9138L22.5116 5.58649C22.4263 5.49509 22.3398 5.40491 22.252 5.31716C20.5642 3.62929 18.2341 2.58005 15.6736 2.58005C13.112 2.58005 10.7818 3.62811 9.09401 5.31716C7.40615 7.00503 6.3569 9.33514 6.3569 11.8955V18.9369C6.95649 18.6261 7.55973 18.3446 8.16541 18.0924C8.7991 17.8291 9.43769 17.5988 10.0799 17.4026C8.98922 15.6782 8.32748 13.6015 8.32748 11.8004C8.32748 11.5774 8.33967 11.3422 8.36282 11.096C8.38476 10.8535 8.4201 10.6208 8.46154 10.399C8.51394 10.1248 8.73939 9.92612 9.00385 9.89685C10.3907 9.66774 11.6654 9.07548 12.7148 8.21145C13.769 7.34253 14.5989 6.19579 15.0876 4.86486C15.2058 4.54189 15.5641 4.37617 15.887 4.49438C16.1088 4.57603 16.2563 4.77102 16.2892 4.98915C16.5244 6.55391 17.2751 7.94075 18.3622 8.97405C19.4492 10.0087 20.8714 10.6899 22.4472 10.8471C22.7677 10.8788 23.009 11.1494 23.009 11.4662L23.0151 11.8014C23.0175 13.6111 22.3509 15.6961 21.2505 17.4254C21.8854 17.6204 22.5228 17.8483 23.1589 18.1091C23.767 18.3589 24.3776 18.6392 24.9882 18.9499V11.8964C24.9882 10.5998 24.72 9.36403 24.2362 8.23909L25.305 7.56884C25.9034 8.8911 26.2373 10.3559 26.2373 11.895V19.9859C26.2348 20.0883 26.2105 20.1919 26.1569 20.2881C25.9899 20.5879 25.6109 20.6964 25.3111 20.5294C24.4325 20.0395 23.5587 19.6154 22.6873 19.2596C21.9476 18.9561 21.2103 18.7002 20.4779 18.4931C20.0684 18.9878 19.6199 19.4351 19.1373 19.8129L19.1382 19.8145ZM23.9898 5.3989C24.1226 5.56829 24.2506 5.74257 24.3724 5.92049L23.3134 6.58466C23.1903 6.40796 23.0612 6.23491 22.9247 6.06672L23.9886 5.3989H23.9898ZM24.7124 6.44452C24.8233 6.62854 24.9294 6.815 25.0305 7.00634L23.9703 7.67172C23.8716 7.48039 23.7668 7.29148 23.6559 7.1087L24.7137 6.44574L24.7124 6.44452ZM22.2446 22.9027C21.4635 22.6211 20.6811 22.3384 19.9072 21.9058C19.1224 23.0903 18.4338 24.3334 17.8538 25.6215C17.2993 26.8499 16.8398 28.1197 16.4804 29.4176H28.5087C26.6575 24.4977 24.4553 23.701 22.2446 22.9027ZM18.8665 21.2185C18.5984 21.0101 18.3315 20.7749 18.0671 20.5068C17.32 20.8931 16.5157 21.1149 15.6748 21.1149C14.8339 21.1149 14.0296 20.8931 13.2814 20.5068C13.0169 20.7749 12.75 21.0089 12.4819 21.2185C13.3021 22.4554 14.0211 23.7582 14.6316 25.111C15.0253 25.9824 15.3726 26.8756 15.6748 27.7884C15.9758 26.8756 16.3244 25.9823 16.718 25.111C17.3286 23.7583 18.0476 22.4556 18.8665 21.2197V21.2185ZM2.83986 29.4176H14.8682C14.5087 28.1209 14.0493 26.8511 13.4948 25.6227C12.9135 24.3333 12.2261 23.0903 11.4401 21.9045C10.665 22.3371 9.88387 22.6199 9.10271 22.9014C6.89206 23.6996 4.68977 24.4966 2.8388 29.4164L2.83986 29.4176ZM19.6989 17.4772C20.9236 15.8942 21.7109 13.809 21.7682 12.0113C20.1315 11.7347 18.6581 10.9731 17.5053 9.87623C16.6315 9.04509 15.9418 8.0202 15.5018 6.86735C14.9668 7.74844 14.2904 8.52717 13.5056 9.17306C12.3954 10.0883 11.0671 10.7403 9.62056 11.0474L9.60228 11.2143C9.58522 11.3935 9.57547 11.5897 9.57547 11.8017C9.57547 13.6456 10.3749 15.8306 11.6484 17.476C12.7318 18.8762 14.1479 19.8682 15.6723 19.8682C17.1981 19.8682 18.6142 18.8762 19.6962 17.476L19.6989 17.4772ZM20.3777 26.299C20.0328 26.299 19.7537 26.02 19.7537 25.6751C19.7537 25.3302 20.0328 25.0511 20.3777 25.0511H22.7334C23.0783 25.0511 23.3573 25.3302 23.3573 25.6751C23.3573 26.02 23.0783 26.299 22.7334 26.299H20.3777Z" fill="black"/>
</svg>
