<?xml version="1.0" encoding="UTF-8"?>
<svg id="Calque_1" xmlns="http://www.w3.org/2000/svg" version="1.1" viewBox="0 0 50 49">
  <!-- Generator: Adobe Illustrator 29.3.1, SVG Export Plug-In . SVG Version: 2.1.0 Build 151)  -->
  <g id="Group">
    <path id="Vector" d="M20.2.3c-.2,0-.4,0-.6.2-.1.1-.2.3-.2.6v11.5h-3.3c-.1,0-.2,0-.3,0,0,0-.2,0-.3.2L3.7,24.9h-1.4c-.8,0-1.6.7-1.6,1.6v3.1c0,.8.7,1.6,1.6,1.6h45.9c.8,0,1.6-.7,1.6-1.6v-3.1c0-.8-.7-1.6-1.6-1.6h-1.4l-11.8-12c0,0-.2-.1-.3-.2,0,0-.2,0-.3,0h-3.3V1.1c0-.2,0-.4-.2-.6-.1-.1-.3-.2-.6-.2h-10.2ZM21,1.9h8.6v10.7h-8.6V1.9ZM16.5,14.2h17.6l10.5,10.6H6l10.5-10.6ZM2.3,26.4h45.9v3.1H2.3v-3.1ZM35.9,26.7c-.7,0-1.2.6-1.2,1.2s.6,1.2,1.2,1.2,1.2-.6,1.2-1.2-.6-1.2-1.2-1.2ZM39.4,26.7c-.7,0-1.2.6-1.2,1.2s.6,1.2,1.2,1.2,1.2-.6,1.2-1.2-.6-1.2-1.2-1.2ZM42.9,26.7c-.7,0-1.2.6-1.2,1.2s.6,1.2,1.2,1.2,1.2-.6,1.2-1.2-.6-1.2-1.2-1.2ZM35.9,27.6c.2,0,.3.2.3.3s-.2.3-.3.3-.3-.2-.3-.3.2-.3.3-.3ZM39.4,27.6c.2,0,.3.2.3.3s-.2.3-.3.3-.3-.2-.3-.3.2-.3.3-.3ZM42.9,27.6c.2,0,.3.2.3.3s-.2.3-.3.3-.3-.2-.3-.3.2-.3.3-.3ZM13.3,34.5c-.2,0-.3,0-.5.2-.1.1-.2.2-.3.4-.2.8-.9,1.8-.8,3.1,0,.8.5,1.4.8,1.8s.5.8.5,1c0,.3-.2.6-.5,1.1-.3.5-.7,1-.8,1.9,0,.9.2,1.6.5,2.2.2.6.4,1,.3,1.4,0,.1,0,.2,0,.3,0,.1,0,.2.1.3,0,0,.1.2.2.2,0,0,.2,0,.3.1.2,0,.4,0,.6-.1.2-.1.3-.3.3-.5.2-.9-.2-1.6-.4-2.2-.2-.6-.4-1.1-.4-1.4,0-.3.3-.7.6-1.2.3-.5.7-1.1.7-2,0-.8-.5-1.4-.8-1.9-.3-.5-.5-.8-.5-1,0-.6.4-1.4.8-2.5,0-.2,0-.4,0-.6-.1-.2-.3-.3-.5-.4,0,0-.2,0-.2,0ZM25.3,34.5c-.2,0-.3,0-.5.2-.1.1-.2.2-.3.4-.2.8-.9,1.8-.8,3.1,0,.8.5,1.4.8,1.8.3.4.5.8.5,1,0,.3-.2.6-.5,1.1-.3.5-.7,1-.8,1.9,0,.9.2,1.6.5,2.2.2.6.4,1,.3,1.4,0,.1,0,.2,0,.3,0,.1,0,.2.1.3s.1.2.2.2c0,0,.2,0,.3.1.2,0,.4,0,.6-.1.2-.1.3-.3.3-.5.2-.9-.2-1.6-.4-2.2-.2-.6-.4-1.1-.4-1.4,0-.3.3-.7.6-1.2.3-.5.7-1.1.7-2,0-.8-.5-1.4-.8-1.9-.3-.5-.5-.8-.5-1,0-.6.4-1.4.8-2.5,0-.2,0-.4,0-.6-.1-.2-.3-.3-.5-.4,0,0-.2,0-.2,0ZM37.3,34.5c-.2,0-.3,0-.5.2-.1.1-.2.2-.3.4-.2.8-.9,1.8-.8,3.1,0,.8.5,1.4.8,1.8.3.4.5.8.5,1,0,.3-.2.6-.5,1.1s-.7,1-.8,1.9c0,.9.2,1.6.5,2.2.2.6.4,1,.3,1.4,0,.1,0,.2,0,.3,0,.1,0,.2.1.3,0,0,.1.2.2.2,0,0,.2,0,.3.1.2,0,.4,0,.6-.1.2-.1.3-.3.3-.5.2-.9-.2-1.6-.4-2.2-.2-.6-.4-1.1-.4-1.4,0-.3.3-.7.6-1.2.3-.5.7-1.1.7-2,0-.8-.5-1.4-.8-1.9-.3-.5-.5-.8-.5-1,0-.6.4-1.4.8-2.5,0-.2,0-.4,0-.6-.1-.2-.3-.3-.5-.4,0,0-.2,0-.2,0Z"/>
  </g>
</svg>