<?xml version="1.0" encoding="UTF-8"?>
<svg id="Calque_1" xmlns="http://www.w3.org/2000/svg" version="1.1" viewBox="0 0 32 49">
  <!-- Generator: Adobe Illustrator 29.3.1, SVG Export Plug-In . SVG Version: 2.1.0 Build 151)  -->
  <g id="Group">
    <path id="Vector" d="M29.9.3H1.6C1,.3.4.8.4,1.4v45.8c0,.6.5,1.1,1.1,1.1h28.3c.6,0,1.1-.5,1.1-1.1V1.4c0-.6-.5-1.1-1.1-1.1ZM2.7,17.1h26.1v24.6H2.7v-24.6ZM2.7,2.6h26.1v12.3H2.7V2.6ZM28.8,46.1H2.7v-2.2h26.1v2.2Z"/>
    <path id="Vector_2" d="M6.1,7c-.6,0-1.1.5-1.1,1.1v3.3c0,.6.5,1.1,1.1,1.1s1.1-.5,1.1-1.1v-3.3c0-.6-.5-1.1-1.1-1.1Z"/>
    <path id="Vector_3" d="M6.1,19.3c-.6,0-1.1.5-1.1,1.1v3.3c0,.6.5,1.1,1.1,1.1s1.1-.5,1.1-1.1v-3.3c0-.6-.5-1.1-1.1-1.1Z"/>
  </g>
</svg>