<svg width="20" height="20" viewBox="0 0 20 20" fill="none" xmlns="http://www.w3.org/2000/svg">
<path d="M19.6002 0.399921C19.3558 0.133302 19.0223 0 18.6668 0H1.33341C0.600079 0 0 0.60004 0 1.33341V18.6667C0 19.0223 0.133309 19.3556 0.399921 19.6001C0.644373 19.8667 0.977778 20 1.33337 20H18.6667C19.4 20 20.0001 19.4 20.0001 18.6666L20 1.33325C20 0.977663 19.8667 0.644246 19.6 0.399802L19.6002 0.399921ZM19.1113 12.8221L18.3335 13.6L13.9335 18.0222L11.4223 15.4889L19.1112 7.8L19.1113 12.8221ZM7.8002 19.111L10.7779 16.1333L13.2891 18.6444L12.8225 19.111H7.8002ZM5.60028 19.111L3.55583 17.0665L12.3558 8.26647L14.867 10.7776L10.467 15.1776L6.5558 19.111L5.60028 19.111ZM0.889167 7.1777L6.06695 1.99992L8.5781 4.51107L0.889207 12.2L0.889167 7.1777ZM12.2003 0.88881L9.22238 3.86671L6.71139 1.35556L7.17798 0.88881H12.2003ZM14.4002 0.88881L16.4446 2.93325L12.0446 7.33325L7.64465 11.7333L5.13349 9.2221L9.5335 4.8221L13.4447 0.88873L14.4002 0.88881ZM19.1113 6.55548L15.4891 10.1556L12.9779 7.64444L19.1112 1.51111L19.1113 6.55548ZM17.0668 2.31103L15.6669 0.88881H18.4891L17.0668 2.31103ZM4.97786 14.3999L2.62218 16.7554L0.888849 18.4889V13.4445L4.51111 9.82222L7.02226 12.3334L4.97786 14.3999ZM2.93341 17.6889L4.35564 19.1112H1.51103L2.93341 17.6889ZM1.33341 0.888929H5.91119L0.888969 5.91115V1.33337C0.888969 1.08892 1.08909 0.88881 1.33353 0.88881L1.33341 0.888929ZM18.6668 19.1112H14.089L19.1112 14.0889V18.6667C19.1112 18.9112 18.9111 19.1113 18.6666 19.1113L18.6668 19.1112Z" fill="#1C2128"/>
</svg>
