<svg width="32" height="32" viewBox="0 0 32 32" fill="none" xmlns="http://www.w3.org/2000/svg">
<path d="M27.0628 27.96L27.9913 22.8529C28.0193 22.7014 27.9781 22.5452 27.8791 22.4269C27.8026 22.3349 27.6938 22.2848 27.5781 22.2619C27.9107 20.2915 28.8026 13.8717 27.4667 8.08299C27.4017 7.80346 27.1229 7.63002 26.8431 7.69327C26.5633 7.75803 26.3887 8.03707 26.4531 8.31714C27.7674 14.0117 26.8124 20.5502 26.525 22.2401H24.9663C24.6934 21.8112 24.1195 20.6012 24.8429 18.7933C25.9078 16.1309 25.92 11.0165 25.92 10.8001C25.92 10.513 25.6874 10.2801 25.4 10.2801C25.1131 10.2801 24.88 10.513 24.88 10.8001C24.88 10.8512 24.8678 15.9308 23.8771 18.4069C23.1898 20.1256 23.4608 21.4424 23.8012 22.2401H23.1069C22.8476 21.721 22.28 20.3291 22.28 18.0801C22.28 16.5024 22.8528 15.5144 23.4068 14.5587C23.8969 13.7134 24.36 12.9149 24.36 11.8401C24.36 9.74714 23.8562 6.19674 23.8349 6.04646C23.7942 5.76235 23.5292 5.56249 23.2463 5.60544C22.962 5.64608 22.7644 5.90936 22.805 6.19373C22.8101 6.22979 23.32 9.82131 23.32 11.8401C23.32 12.6351 22.9432 13.2848 22.5069 14.0371C21.9133 15.0614 21.2399 16.2228 21.2399 18.0801C21.2399 20.0572 21.6421 21.4423 21.9664 22.2401H21.2399C21.0856 22.2401 20.9393 22.3086 20.8408 22.427C20.7418 22.5453 20.7006 22.7015 20.7286 22.853L21.6571 27.9601H18.6399V3.51998C18.6399 3.23281 18.4073 3 18.12 3H5.64002C5.35263 3 5.12004 3.23281 5.12004 3.51998V27.96H2V29H5.64002H18.12H22.28H26.44H29.56V27.96H27.0628ZM17.6 27.96H6.16V4.03996H17.6V27.96ZM26.0058 27.96H22.7142L21.8631 23.28H26.8569L26.0058 27.96Z" fill="#1C2028"/>
<path d="M16.04 15.48H13.96V16.52H16.04V15.48Z" fill="#1C2028"/>
</svg>
