<?xml version="1.0" encoding="utf-8"?>
<!-- Generator: Adobe Illustrator 24.3.0, SVG Export Plug-In . SVG Version: 6.00 Build 0)  -->
<svg version="1.1" id="Calque_1" xmlns="http://www.w3.org/2000/svg" xmlns:xlink="http://www.w3.org/1999/xlink" x="0px" y="0px"
	 viewBox="0 0 24 24" style="enable-background:new 0 0 24 24;" xml:space="preserve">
<path d="M21.7,13.4l-8.8,8.8c-0.2,0.2-0.5,0.3-0.8,0.3c-0.1,0-0.2,0-0.3,0c-0.2,0-0.5-0.1-0.7-0.3l-8.8-8.8c-1.3-1.3-2-3.1-2-4.9
	s0.7-3.6,2-5c1.3-1.3,3.1-2,5-2c1.8,0,3.5,0.7,4.8,1.9c2.8-2.5,7.1-2.5,9.7,0.2C24.4,6.2,24.4,10.7,21.7,13.4z"/>
</svg>
