<?xml version="1.0" encoding="utf-8"?>
<!-- Generator: Adobe Illustrator 24.3.0, SVG Export Plug-In . SVG Version: 6.00 Build 0)  -->
<svg version="1.1" id="Calque_1" xmlns="http://www.w3.org/2000/svg" xmlns:xlink="http://www.w3.org/1999/xlink" x="0px" y="0px"
	 viewBox="0 0 24 24" style="enable-background:new 0 0 24 24;" xml:space="preserve">
<path d="M12.1,22.5c-0.1,0-0.2,0-0.3,0c-0.2,0-0.5-0.1-0.7-0.3l-8.8-8.8C1,12.1,0.2,10.3,0.2,8.5c0-1.9,0.7-3.6,2.1-4.9l0,0l0,0
	c1.3-1.3,3.1-2.1,4.9-2.1c1.8,0,3.5,0.7,4.8,1.9c2.8-2.5,7.1-2.5,9.7,0.2c2.7,2.7,2.7,7.2,0,9.9l-8.8,8.8
	C12.7,22.4,12.4,22.5,12.1,22.5z M7.2,3.8C6,3.8,4.9,4.3,4,5.2l0,0C2.2,7,2.2,9.9,4,11.7l8,8l8-8c1.8-1.8,1.8-4.7,0-6.5
	c-1.8-1.8-4.7-1.8-6.5,0c-0.9,0.9-2.1,0.8-2.9,0.1C9.6,4.3,8.5,3.8,7.2,3.8z M3.1,4.3L3.1,4.3L3.1,4.3z"/>
</svg>
