<?xml version="1.0" encoding="UTF-8"?>
<svg id="Calque_1" xmlns="http://www.w3.org/2000/svg" version="1.1" viewBox="0 0 49 51">
  <!-- Generator: Adobe Illustrator 29.3.1, SVG Export Plug-In . SVG Version: 2.1.0 Build 151)  -->
  <defs>
    <style>
      .st0 {
        fill-rule: evenodd;
      }
    </style>
  </defs>
  <path id="Vector" class="st0" d="M7.4,12.2c0,3.5,2.8,6.3,6.2,6.3s6.2-2.8,6.2-6.3-2.8-6.3-6.2-6.3-6.2,2.8-6.2,6.3ZM8.8,12.2c0-3,1.8-4.9,4.8-4.9s4.8,1.9,4.8,4.9-1.8,4.9-4.8,4.9-4.8-1.9-4.8-4.9ZM7.4,29.4c0,3.5,2.8,6.3,6.2,6.3s6.2-2.8,6.2-6.3-2.8-6.3-6.2-6.3-6.2,2.8-6.2,6.3ZM8.8,29.4c0-3,1.8-4.9,4.8-4.9s4.8,1.9,4.8,4.9-1.8,4.9-4.8,4.9-4.8-1.9-4.8-4.9ZM28.7,29.4c0,3.5,2.8,6.3,6.2,6.3s6.2-2.8,6.2-6.3-2.8-6.3-6.2-6.3-6.2,2.8-6.2,6.3ZM30.1,29.4c0-3,1.8-4.9,4.8-4.9s4.8,1.9,4.8,4.9-1.8,4.9-4.8,4.9-4.8-1.9-4.8-4.9ZM28.7,12.2c0,3.5,2.8,6.3,6.2,6.3s6.2-2.8,6.2-6.3-2.8-6.3-6.2-6.3-6.2,2.8-6.2,6.3ZM30.1,12.2c0-3,1.8-4.9,4.8-4.9s4.8,1.9,4.8,4.9-1.8,4.9-4.8,4.9-4.8-1.9-4.8-4.9ZM15.4,45.2c0,.7.6,1.4,1.3,1.4s1.3-.6,1.3-1.4-.6-1.4-1.3-1.4-1.3.6-1.3,1.4ZM20.7,45.2c0,.7.6,1.4,1.3,1.4s1.3-.6,1.3-1.4-.6-1.4-1.3-1.4-1.3.6-1.3,1.4ZM26,45.2c0,.7.6,1.4,1.3,1.4s1.3-.6,1.3-1.4-.6-1.4-1.3-1.4-1.3.6-1.3,1.4ZM31.4,45.2c0,.7.6,1.4,1.3,1.4s1.3-.6,1.3-1.4-.6-1.4-1.3-1.4-1.3.6-1.3,1.4ZM.2.5v49.6h48V.5H.2ZM2.6,2.9h43.4v37.7H2.6V2.9ZM45.9,42.6v5.2H2.6v-5.2h43.4Z"/>
</svg>