<svg width="40" height="40" viewBox="0 0 40 40" fill="none" xmlns="http://www.w3.org/2000/svg">
<path d="M7.22075 18.5989C6.92382 18.8958 6.40419 18.8216 6.18149 18.5246C5.95879 18.1535 6.03302 17.7081 6.32995 17.4854L19.5434 7.16702C19.8403 6.94433 20.2115 6.94433 20.4342 7.16702L33.6476 17.4854C34.0187 17.7081 34.0187 18.1535 33.796 18.5246C33.5733 18.8216 33.0537 18.8958 32.7568 18.5989L19.9888 8.72591L7.22075 18.5989Z" fill="#1C2128"/>
<path d="M29.4906 18.9699C29.4906 18.5245 29.7875 18.2275 30.2329 18.2275C30.6041 18.2275 30.9752 18.5245 30.9752 18.9699V32.2575C30.9752 32.7029 30.6041 32.9998 30.1587 32.9998C23.4035 32.9998 16.5741 32.9998 9.74468 32.9998C9.37351 32.9998 9.00235 32.7029 9.00235 32.2575V18.9699C9.00235 18.5987 9.37351 18.2275 9.74468 18.2275C10.1901 18.2275 10.487 18.5987 10.487 18.9699V31.5152H16.4999V24.5373C16.4999 24.1662 16.871 23.795 17.2422 23.795H22.6612C23.1066 23.795 23.4777 24.0919 23.4777 24.5373V31.5152H29.4906V18.9699ZM17.9845 31.5152H21.9931V25.2796H17.9845V31.5152Z" fill="#1C2128"/>
</svg>
