<svg width="41" height="40" viewBox="0 0 41 40" fill="none" xmlns="http://www.w3.org/2000/svg">
<path d="M27.4311 19.2199C27.4311 15.3948 24.3098 12.2734 20.4847 12.2734C16.6595 12.2734 13.5382 15.3948 13.5382 19.2199C13.5382 19.7707 13.5994 20.3215 13.7524 20.8723C13.936 21.7598 14.2726 22.3106 14.7317 23.0756C14.8235 23.2592 14.9459 23.4428 15.0683 23.6571C15.2213 23.9019 15.3437 24.1467 15.4967 24.3609C16.1087 25.3707 16.4759 25.9521 16.4759 27.1456V30.0221C16.4759 30.7565 16.9961 31.3379 17.7 31.4603C18.006 33.021 18.924 34.0002 20.4847 34.0002C22.0453 34.0002 22.9939 33.021 23.2694 31.4603C23.9732 31.3379 24.4934 30.7259 24.4934 30.0221V27.1456C24.4934 25.9521 24.8606 25.3401 25.4726 24.3609C25.595 24.1467 25.7481 23.9019 25.9011 23.6571C26.0235 23.4428 26.1459 23.2592 26.2377 23.0756C26.6967 22.3106 27.0333 21.7598 27.2169 20.8723C27.3699 20.3215 27.4311 19.7707 27.4311 19.2199ZM23.3 27.88H17.7306V27.1762C17.7306 27.0232 17.7306 26.9008 17.7 26.7784H23.3C23.3 26.9008 23.2694 27.0232 23.2694 27.1762V27.88H23.3ZM23.0246 30.2975H17.9448C17.7918 30.2975 17.7 30.1751 17.7 30.0527V29.104H23.2694V30.0527C23.3 30.1751 23.1776 30.2975 23.0246 30.2975ZM20.4847 32.8068C20.1481 32.8068 19.2912 32.8068 18.9546 31.5215H22.0453C21.7087 32.8068 20.8213 32.8068 20.4847 32.8068ZM26.0235 20.6275C25.8705 21.3008 25.6257 21.7598 25.1972 22.4636C25.0748 22.6472 24.983 22.8308 24.8606 23.045C24.7076 23.2898 24.5852 23.5346 24.4628 23.7182C24.0956 24.3303 23.759 24.8811 23.5448 25.5237H17.4858C17.2716 24.8811 16.9655 24.3303 16.5677 23.7182C16.4453 23.504 16.2923 23.2898 16.1699 23.045C16.0475 22.8308 15.9251 22.6166 15.8333 22.4636C15.4049 21.7292 15.1601 21.3008 15.0071 20.5969C14.8847 20.1379 14.8235 19.6789 14.8235 19.2199C14.8235 16.068 17.394 13.4975 20.5459 13.4975C23.6978 13.4975 26.2683 16.068 26.2683 19.2199C26.2071 19.6789 26.1459 20.1379 26.0235 20.6275Z" fill="#1C2128"/>
<path d="M33.0922 18.6079H30.5523C30.2157 18.6079 29.9403 18.8833 29.9403 19.2199C29.9403 19.5565 30.2157 19.832 30.5523 19.832H33.0922C33.4288 19.832 33.7042 19.5565 33.7042 19.2199C33.7042 18.8833 33.4288 18.6079 33.0922 18.6079Z" fill="#1C2128"/>
<path d="M27.5843 12.7326C27.7373 12.7326 27.8903 12.6714 28.0127 12.549L29.8182 10.7436C30.063 10.4988 30.063 10.1315 29.8182 9.88673C29.5734 9.64192 29.2062 9.64192 28.9614 9.88673L27.1559 11.6922C26.9111 11.937 26.9111 12.3042 27.1559 12.549C27.2783 12.6714 27.4313 12.7326 27.5843 12.7326Z" fill="#1C2128"/>
<path d="M20.4848 9.76393C20.8214 9.76393 21.0968 9.48852 21.0968 9.15191V6.61202C21.0968 6.27541 20.8214 6 20.4848 6C20.1482 6 19.8728 6.27541 19.8728 6.61202V9.15191C19.8728 9.48852 20.1482 9.76393 20.4848 9.76393Z" fill="#1C2128"/>
<path d="M12.957 12.549C13.0794 12.6714 13.2324 12.7326 13.3854 12.7326C13.5384 12.7326 13.6914 12.6714 13.8138 12.549C14.0586 12.3042 14.0586 11.937 13.8138 11.6922L12.0083 9.88673C11.7635 9.64192 11.3963 9.64192 11.1515 9.88673C10.9067 10.1315 10.9067 10.4988 11.1515 10.7436L12.957 12.549Z" fill="#1C2128"/>
<path d="M10.4476 18.6079H7.90768C7.57106 18.6079 7.29565 18.8833 7.29565 19.2199C7.29565 19.5565 7.57106 19.832 7.90768 19.832H10.4476C10.7842 19.832 11.0596 19.5565 11.0596 19.2199C11.0596 18.8833 10.7842 18.6079 10.4476 18.6079Z" fill="#1C2128"/>
<path d="M12.957 25.8906L11.1515 27.6961C10.9067 27.9409 10.9067 28.3081 11.1515 28.5529C11.2739 28.6753 11.4269 28.7365 11.5799 28.7365C11.7329 28.7365 11.8859 28.6753 12.0083 28.5529L13.8138 26.7475C14.0586 26.5027 14.0586 26.1354 13.8138 25.8906C13.569 25.6458 13.1712 25.6458 12.957 25.8906Z" fill="#1C2128"/>
<path d="M28.0127 25.8906C27.7679 25.6458 27.4007 25.6458 27.1559 25.8906C26.9111 26.1354 26.9111 26.5027 27.1559 26.7475L28.9614 28.5529C29.0838 28.6753 29.2368 28.7365 29.3898 28.7365C29.5428 28.7365 29.6958 28.6753 29.8182 28.5529C30.063 28.3081 30.063 27.9409 29.8182 27.6961L28.0127 25.8906Z" fill="#1C2128"/>
</svg>
