<svg width="41" height="40" viewBox="0 0 41 40" fill="none" xmlns="http://www.w3.org/2000/svg">
<path d="M12.53 21.2461H14.6052C14.9524 21.2461 15.2334 20.9651 15.2334 20.6199C15.2334 20.2747 14.9524 19.9937 14.6052 19.9937H12.53C12.1828 19.9937 11.9018 20.2747 11.9018 20.6199C11.9013 20.9651 12.1823 21.2461 12.53 21.2461Z" fill="#1C2128"/>
<path d="M26.3397 19.9868H24.262C23.9079 19.9868 23.6205 20.2742 23.6205 20.6283C23.6205 20.9602 23.9079 21.2476 24.262 21.2476H26.3397C26.6716 21.2476 26.9615 20.9602 26.9615 20.6283C26.9615 20.2747 26.6716 19.9868 26.3397 19.9868Z" fill="#1C2128"/>
<path d="M12.53 28.7734H14.6052C14.9524 28.7734 15.2334 28.4924 15.2334 28.1472C15.2334 27.802 14.9524 27.521 14.6052 27.521H12.53C12.1828 27.521 11.9018 27.802 11.9018 28.1472C11.9013 28.4924 12.1823 28.7734 12.53 28.7734Z" fill="#1C2128"/>
<path d="M33.526 16.8285H33.3778V16.824H23.8641V11.3589C23.8641 9.63338 25.2577 8.23913 26.9616 8.23913C28.6852 8.23913 30.0813 9.63275 30.0813 11.3589C30.0813 11.6908 30.3445 11.9782 30.6986 11.9782C31.0527 11.9782 31.316 11.6908 31.316 11.3589C31.316 8.94738 29.3711 7 26.9596 7C24.6124 7 22.7114 8.85837 22.623 11.1815C22.623 11.1815 22.6008 11.2037 22.6008 11.2259V16.8233H18.3748C18.4854 16.6905 18.5516 16.5798 18.5516 16.4253C18.5516 16.0712 18.2641 15.7837 17.91 15.7837H15.8527C15.4986 15.7837 15.2112 16.0712 15.2112 16.4253C15.2112 16.5803 15.2996 16.691 15.3879 16.8233H11.7373C11.8479 16.6905 11.9141 16.5798 11.9141 16.4253C11.9141 16.0712 11.6267 15.7837 11.2726 15.7837H9.21522C8.86112 15.7837 8.5737 16.0712 8.5737 16.4253C8.5737 16.5803 8.6621 16.691 8.7505 16.8233H7.4675C6.51633 16.8233 5.742 17.5977 5.742 18.5488V31.2701C5.742 32.2212 6.51638 32.9956 7.4675 32.9956H26.4811V33H33.5256C34.4812 33 35.258 32.2212 35.258 31.2655V18.562C35.258 17.6064 34.4792 16.8275 33.5256 16.8275L33.526 16.8285ZM20.5645 31.7584H7.46652C7.20082 31.7584 6.97957 31.5352 6.97957 31.2695V25.5392H20.5643L20.5645 31.7584ZM20.5645 24.2799H6.97978V18.5515C6.97978 18.2858 7.20103 18.0646 7.46673 18.0646H20.5647L20.5645 24.2799ZM34.0051 31.2671C34.0051 31.5259 33.7839 31.7471 33.5251 31.7471H26.4806V31.7605H21.8274V18.0657H33.527C33.7858 18.0657 34.007 18.285 34.007 18.5438V31.2676L34.0051 31.2671Z" fill="#1C2128"/>
</svg>
