<svg width="24" height="24" viewBox="0 0 24 24" fill="none" xmlns="http://www.w3.org/2000/svg">
<g id="Cuisine">
<path id="Vector" d="M7.21676 12.7476H8.46188C8.67019 12.7476 8.8388 12.5789 8.8388 12.3718C8.8388 12.1647 8.67019 11.9961 8.46188 11.9961H7.21676C7.00845 11.9961 6.83984 12.1647 6.83984 12.3718C6.83955 12.579 7.00816 12.7476 7.21676 12.7476Z" fill="#1C2028"/>
<path id="Vector_2" d="M15.5026 11.9921H14.256C14.0435 11.9921 13.8711 12.1645 13.8711 12.377C13.8711 12.5761 14.0435 12.7486 14.256 12.7486H15.5026C15.7018 12.7486 15.8757 12.5761 15.8757 12.377C15.8757 12.1648 15.7018 11.9921 15.5026 11.9921Z" fill="#1C2028"/>
<path id="Vector_3" d="M7.21676 17.264H8.46188C8.67019 17.264 8.8388 17.0954 8.8388 16.8883C8.8388 16.6812 8.67019 16.5126 8.46188 16.5126H7.21676C7.00845 16.5126 6.83984 16.6812 6.83984 16.8883C6.83955 17.0954 7.00816 17.264 7.21676 17.264Z" fill="#1C2028"/>
<path id="Vector_4" d="M19.8149 10.097H19.726V10.0944H14.0178V6.81528C14.0178 5.77998 14.8539 4.94343 15.8763 4.94343C16.9104 4.94343 17.7481 5.7796 17.7481 6.81528C17.7481 7.0144 17.9061 7.18686 18.1185 7.18686C18.331 7.18686 18.4889 7.0144 18.4889 6.81528C18.4889 5.36838 17.322 4.19995 15.8751 4.19995C14.4667 4.19995 13.3262 5.31498 13.2731 6.70885C13.2731 6.70885 13.2598 6.72218 13.2598 6.73552V10.0939H10.7242C10.7906 10.0142 10.8303 9.94786 10.8303 9.85511C10.8303 9.64265 10.6578 9.4702 10.4454 9.4702H9.21093C8.99847 9.4702 8.82602 9.64265 8.82602 9.85511C8.82602 9.94816 8.87906 10.0145 8.9321 10.0939H6.74172C6.8081 10.0142 6.8478 9.94786 6.8478 9.85511C6.8478 9.64265 6.67535 9.4702 6.46289 9.4702H5.22846C5.016 9.4702 4.84355 9.64265 4.84355 9.85511C4.84355 9.94816 4.89659 10.0145 4.94963 10.0939H4.17983C3.60913 10.0939 3.14453 10.5586 3.14453 11.1292V18.762C3.14453 19.3327 3.60916 19.7973 4.17983 19.7973H15.588V19.8H19.8147C20.388 19.8 20.8541 19.3327 20.8541 18.7593V11.1371C20.8541 10.5638 20.3868 10.0965 19.8147 10.0965L19.8149 10.097ZM12.038 19.055H4.17924C4.01982 19.055 3.88707 18.9211 3.88707 18.7616V15.3235H12.0379L12.038 19.055ZM12.038 14.5679H3.88719V11.1309C3.88719 10.9715 4.01994 10.8387 4.17937 10.8387H12.0382L12.038 14.5679ZM20.1024 18.7602C20.1024 18.9155 19.9697 19.0482 19.8144 19.0482H15.5877V19.0562H12.7958V10.8394H19.8155C19.9708 10.8394 20.1036 10.971 20.1036 11.1262V18.7605L20.1024 18.7602Z" fill="#1C2028"/>
</g>
</svg>
