<?xml version="1.0" encoding="UTF-8"?>
<svg id="Calque_1" xmlns="http://www.w3.org/2000/svg" version="1.1" viewBox="0 0 16 17">
  <!-- Generator: Adobe Illustrator 29.6.1, SVG Export Plug-In . SVG Version: 2.1.1 Build 9)  -->
  <defs>
    <style>
      .st0 {
        fill: #14142b;
      }
    </style>
  </defs>
  <path class="st0" d="M12.1,7v-2c0-1.1-.4-2.1-1.2-2.9-.8-.8-1.8-1.2-2.9-1.2s-2.1.4-2.9,1.2-1.2,1.8-1.2,2.9v2c-1.5.2-2.6,1.4-2.6,3v3.3c0,1.7,1.3,3,3,3h7.3c1.7,0,3-1.3,3-3v-3.3c0-1.5-1.1-2.8-2.6-3ZM6.2,3.2c1-1,2.7-1,3.7,0,.5.5.8,1.1.8,1.8v2h-5.2v-2c0-.7.3-1.3.8-1.8ZM13.2,13.3c0,.8-.7,1.5-1.5,1.5h-7.3c-.8,0-1.5-.7-1.5-1.5v-3.3c0-.8.7-1.5,1.5-1.5h7.3c.8,0,1.5.7,1.5,1.5v3.3Z"/>
</svg>