<?xml version="1.0" encoding="UTF-8"?>
<svg id="Calque_1" xmlns="http://www.w3.org/2000/svg" version="1.1" viewBox="0 0 49 35">
  <!-- Generator: Adobe Illustrator 29.3.1, SVG Export Plug-In . SVG Version: 2.1.0 Build 151)  -->
  <g id="Group_199">
    <path id="Vector" d="M43.3.3H6.2c-3,0-5.5,2.4-5.5,5.5v23.1c0,3,2.5,5.5,5.5,5.5h37.1c3,0,5.5-2.5,5.5-5.5V5.8c0-3-2.5-5.5-5.5-5.5ZM47.1,28.9c0,2.1-1.7,3.9-3.9,3.9H6.2c-2.1,0-3.9-1.7-3.9-3.9V5.8c0-2.1,1.7-3.9,3.9-3.9h37.1c2.1,0,3.9,1.7,3.9,3.9v23.1Z"/>
    <path id="Vector_2" d="M27.8,4.7H9.6c-2.5,0-4.5,2-4.6,4.5v16.1c0,2.5,2,4.5,4.6,4.5h18.3c2.5,0,4.5-2,4.5-4.5V9.3c0-2.5-2-4.5-4.5-4.5ZM30.8,25.4c0,1.6-1.3,2.9-3,3H9.6c-1.6,0-2.9-1.3-3-3V9.3c0-1.6,1.3-2.9,3-2.9h18.3c1.6,0,2.9,1.3,3,2.9v16.1Z"/>
    <path id="Vector_3" d="M39.8,6.2c-1.9,0-3.6,1.1-4.3,2.9-.7,1.8-.3,3.8,1,5.1,1.3,1.3,3.4,1.7,5.1,1,1.8-.7,2.9-2.4,2.9-4.3,0-2.6-2.1-4.7-4.7-4.7ZM39.8,14c-1.3,0-2.4-.8-2.9-1.9-.5-1.2-.2-2.5.7-3.4.9-.9,2.2-1.2,3.4-.7,1.2.5,1.9,1.6,1.9,2.9,0,1.7-1.4,3.1-3.1,3.1Z"/>
    <path id="Vector_4" d="M39.8,19.1c-1.9,0-3.6,1.1-4.3,2.9-.7,1.8-.3,3.8,1,5.1,1.3,1.3,3.4,1.7,5.1,1,1.8-.7,2.9-2.4,2.9-4.3,0-2.6-2.1-4.7-4.7-4.7ZM39.8,26.9c-1.3,0-2.4-.8-2.9-1.9-.5-1.2-.2-2.5.7-3.4.9-.9,2.2-1.2,3.4-.7,1.2.5,1.9,1.6,1.9,2.9,0,1.7-1.4,3.1-3.1,3.1Z"/>
    <path id="Vector_5" d="M27.7,12.6c-.4,0-.8.4-.8.8v7.9h0c0,.4.4.8.8.8s.8-.4.8-.8v-7.9c0-.2,0-.4-.2-.6-.1-.2-.4-.2-.6-.2Z"/>
  </g>
</svg>