<svg width="24" height="24" viewBox="0 0 24 24" fill="none" xmlns="http://www.w3.org/2000/svg">
<g id="Icons Custom">
<g id="Group 7">
<path id="Vector" d="M3.69429 18.1153H8.25306C8.63841 18.1161 9.01924 18.1983 9.37059 18.3566C9.72194 18.5149 10.0359 18.7456 10.2918 19.0337L10.3561 19.1016C10.4392 19.1874 10.5289 19.2667 10.6243 19.3386C10.6629 19.3661 10.6996 19.3937 10.7345 19.4157C10.8187 19.4716 10.9064 19.5219 10.9971 19.5663L11.0431 19.5884C11.0908 19.6122 11.1404 19.6324 11.19 19.6508C11.2532 19.6744 11.3175 19.6947 11.3829 19.7114C11.4269 19.7243 11.4857 19.7408 11.5555 19.7537C11.6549 19.7734 11.7556 19.7863 11.8567 19.7922L12 19.7959C12.1518 19.7956 12.3031 19.7802 12.4518 19.75C12.5106 19.739 12.5602 19.7261 12.5859 19.7169C12.6619 19.698 12.7367 19.6747 12.81 19.6471H12.832L12.9478 19.5975L12.9808 19.581H12.9918C13.0898 19.5339 13.1843 19.4799 13.2747 19.4194L13.3702 19.3533C13.4719 19.2714 13.5665 19.1811 13.6531 19.0833L13.6751 19.0612L13.7137 19.019C13.9668 18.7335 14.278 18.5053 14.6265 18.3498C14.9749 18.1943 15.3525 18.115 15.7341 18.1171H20.3057C20.397 18.1171 20.4875 18.0991 20.5718 18.0641C20.6562 18.0291 20.7328 17.9778 20.7973 17.9131C20.8618 17.8485 20.9129 17.7717 20.9477 17.6873C20.9825 17.6028 21.0002 17.5123 21 17.421V6.52184C20.9976 6.3393 20.9234 6.16505 20.7934 6.03683C20.6635 5.9086 20.4883 5.83672 20.3057 5.83673H18.9355V4.46286C18.936 4.40225 18.9245 4.34214 18.9016 4.28601C18.8788 4.22987 18.845 4.17882 18.8023 4.13579C18.7596 4.09276 18.7089 4.05861 18.6529 4.0353C18.5969 4.012 18.5369 4 18.4763 4H15.6184C14.2755 4.00258 12.9831 4.51231 12 5.42714C11.0169 4.51231 9.72453 4.00258 8.38163 4H5.52367C5.40189 4 5.28509 4.04838 5.19898 4.13449C5.11287 4.22061 5.06449 4.3374 5.06449 4.45918V5.83673H3.69429C3.51173 5.83672 3.33651 5.9086 3.20657 6.03683C3.07663 6.16505 3.00241 6.3393 3 6.52184V17.421C3 17.6052 3.07315 17.7817 3.20335 17.912C3.26782 17.9764 3.34436 18.0276 3.42859 18.0625C3.51283 18.0973 3.60311 18.1153 3.69429 18.1153ZM15.6184 4.91837H18.0171V15.1233H15.6184C14.4808 15.124 13.3735 15.4897 12.4592 16.1665V6.26469C12.8685 5.83974 13.3591 5.50153 13.9018 5.27023C14.4446 5.03892 15.0284 4.91926 15.6184 4.91837ZM5.98286 4.91837H8.38163C8.97136 4.91878 9.55497 5.03787 10.0977 5.26854C10.6405 5.4992 11.1312 5.83673 11.5408 6.26102V16.1665C10.6265 15.4897 9.5192 15.124 8.38163 15.1233H5.98286V4.91837ZM3.91837 6.7551H5.06449V15.5898C5.06449 15.7116 5.11287 15.8284 5.19898 15.9145C5.28509 16.0006 5.40189 16.049 5.52367 16.049H8.38163C9.00016 16.0497 9.61158 16.1809 10.1759 16.4341C10.7402 16.6873 11.2448 17.0568 11.6565 17.5184C11.6996 17.5666 11.7524 17.6052 11.8114 17.6317C11.8704 17.6581 11.9344 17.6718 11.9991 17.6718C12.0638 17.6718 12.1277 17.6581 12.1867 17.6317C12.2458 17.6052 12.2986 17.5666 12.3416 17.5184C12.7534 17.0568 13.2579 16.6873 13.8222 16.4341C14.3866 16.1809 14.998 16.0497 15.6165 16.049H18.4763C18.5981 16.049 18.7149 16.0006 18.801 15.9145C18.8871 15.8284 18.9355 15.7116 18.9355 15.5898V6.7551H20.0816V17.2061H15.7469C15.233 17.2028 14.7243 17.3095 14.2551 17.5193C13.7858 17.729 13.367 18.0368 13.0267 18.422L13.012 18.4386L12.9955 18.4551C12.9388 18.5117 12.8774 18.5633 12.8118 18.6094L12.7567 18.648C12.7039 18.6835 12.6487 18.7155 12.5914 18.7435H12.5804L12.5529 18.7563L12.4794 18.7875C12.4343 18.8042 12.3883 18.8184 12.3416 18.8298L12.2627 18.8482C12.1763 18.8664 12.0883 18.8762 12 18.8775H11.9192C11.8575 18.8738 11.7961 18.8658 11.7355 18.8537C11.6969 18.8537 11.6657 18.8371 11.629 18.8261C11.5904 18.8166 11.5524 18.8049 11.5151 18.7912L11.4343 18.7563L11.3994 18.7398C11.3435 18.7128 11.2895 18.6821 11.2378 18.648L11.1735 18.6039C11.1146 18.5593 11.0593 18.5102 11.0082 18.4569L10.9733 18.4202C10.6314 18.0364 10.2124 17.7291 9.74368 17.5183C9.27495 17.3075 8.76701 17.198 8.25306 17.1969H3.91837V6.7551Z" fill="#1C2128"/>
</g>
</g>
</svg>
