<svg width="24" height="20" viewBox="0 0 24 20" fill="none" xmlns="http://www.w3.org/2000/svg">
<path d="M11.6984 15.0945C10.866 15.0945 10.189 15.7715 10.189 16.6039C10.189 17.4363 10.866 18.1134 11.6984 18.1134C12.5308 18.1134 13.2079 17.4363 13.2079 16.6039C13.2079 15.7715 12.5308 15.0945 11.6984 15.0945ZM11.6984 17.3587C11.2821 17.3587 10.9437 17.0202 10.9437 16.6039C10.9437 16.1877 11.2821 15.8492 11.6984 15.8492C12.1147 15.8492 12.4531 16.1877 12.4531 16.6039C12.4531 17.0202 12.1147 17.3587 11.6984 17.3587Z" fill="black"/>
<path d="M22.8554 11.5572C22.5169 11.3226 22.0836 11.2693 21.6972 11.413L21.6537 11.4292L17.572 1.40991L7.2767 5.08684L5.15739 0H1.13209C0.507907 0 0 0.507907 0 1.13209C0 1.75626 0.507907 2.26417 1.13209 2.26417H3.52464L8.86076 14.7426C8.50849 15.2778 8.30213 15.9166 8.30213 16.6037C8.30213 18.4766 9.8259 20 11.6984 20C13.5709 20 15.0946 18.4766 15.0946 16.6037C15.0946 16.5663 15.0901 16.5298 15.0889 16.4927L22.5684 13.773C23.0635 13.5928 23.3964 13.118 23.3964 12.5909C23.3964 12.1785 23.1941 11.7924 22.8553 11.5572H22.8554ZM12.6692 3.96212L13.836 6.58748L12.6504 7.06187L11.4639 4.3927L12.6692 3.96212ZM10.751 4.6471L12.2556 8.03241L14.8436 6.99736L13.3817 3.70793L17.1455 2.36374L20.9471 11.6947L14.139 14.248C13.5208 13.6074 12.6558 13.2075 11.6981 13.2075C11.3582 13.2075 11.0305 13.2592 10.7207 13.3524L7.56702 5.78404L10.751 4.6471ZM1.13199 1.50927C0.924105 1.50927 0.754628 1.34013 0.754628 1.1319C0.754628 0.923683 0.924105 0.754543 1.13199 0.754543H4.65392L10.0271 13.6504C9.80289 13.7776 9.59618 13.9304 9.40751 14.1032L4.02267 1.50927H1.13199ZM11.6981 19.2453C10.2416 19.2453 9.05659 18.06 9.05659 16.6037C9.05659 15.1475 10.2416 13.9622 11.6981 13.9622C13.1546 13.9622 14.3397 15.1475 14.3397 16.6037C14.3397 18.06 13.1546 19.2453 11.6981 19.2453ZM22.3108 13.0639L14.9771 15.7307C14.8959 15.4266 14.7741 15.1394 14.6167 14.8749L21.9626 12.1201C22.1196 12.0608 22.2879 12.082 22.426 12.1774C22.5631 12.2729 22.642 12.4239 22.642 12.591C22.642 12.8019 22.5087 12.9918 22.3111 13.0639L22.3108 13.0639Z" fill="black"/>
</svg>
