<?xml version="1.0" encoding="UTF-8"?>
<svg id="Calque_1" xmlns="http://www.w3.org/2000/svg" version="1.1" viewBox="0 0 43 49">
  <!-- Generator: Adobe Illustrator 29.3.1, SVG Export Plug-In . SVG Version: 2.1.0 Build 151)  -->
  <g id="Group">
    <path id="Vector" d="M41.8.3H1.7C1.1.3.6.8.6,1.4v45.9c0,.6.5,1.1,1.1,1.1h40.1c.6,0,1.1-.5,1.1-1.1V1.4c0-.6-.5-1.1-1.1-1.1ZM40.7,2.5v7.5H2.8V2.5h37.9ZM2.8,46.2V12.1h37.9v34.1H2.8Z"/>
    <path id="Vector_2" d="M14.7,7.1h14.1c.5,0,.9-.4.9-.9s-.4-.9-.9-.9h-14.1c-.5,0-.9.4-.9.9s.4.9.9.9Z"/>
    <path id="Vector_3" d="M6,7.4h1.1c.7,0,1.2-.5,1.2-1.2s-.5-1.2-1.2-1.2h-1.1c-.7,0-1.2.5-1.2,1.2s.5,1.2,1.2,1.2Z"/>
    <path id="Vector_4" d="M10.4,7.4h1.1c.7,0,1.2-.5,1.2-1.2s-.5-1.2-1.2-1.2h-1.1c-.6,0-1.2.5-1.2,1.2s.5,1.2,1.2,1.2Z"/>
    <path id="Vector_5" d="M36.9,7.4h1.1c.7,0,1.2-.5,1.2-1.2s-.5-1.2-1.2-1.2h-1.1c-.7,0-1.2.5-1.2,1.2s.5,1.2,1.2,1.2Z"/>
    <path id="Vector_6" d="M32,7.4h1.1c.7,0,1.2-.5,1.2-1.2s-.5-1.2-1.2-1.2h-1.1c-.7,0-1.2.5-1.2,1.2s.5,1.2,1.2,1.2Z"/>
    <path id="Vector_7" d="M38,37.7V15.8c0-.6-.5-1.1-1.1-1.1H6.6c-.6,0-1.1.5-1.1,1.1v26.7c0,.6.5,1.1,1.1,1.1h30.3c.6,0,1.1-.5,1.1-1.1v-4.8ZM35.8,16.9v19.7H7.7v-19.7h28.2ZM7.7,41.4v-2.7h28.2v2.7H7.7Z"/>
    <path id="Vector_8" d="M14.7,21.5h14.1c.5,0,.9-.4.9-.9s-.4-.9-.9-.9h-14.1c-.5,0-.9.4-.9.9s.4.9.9.9Z"/>
  </g>
</svg>