<svg width="24" height="24" viewBox="0 0 24 24" fill="none" xmlns="http://www.w3.org/2000/svg">
<path d="M4.68531 3H17.0739C17.5401 3 17.9703 3.19725 18.2572 3.50198C18.5619 3.80671 18.7592 4.21916 18.7592 4.68523V5.81478H20.4265C20.7312 5.81478 21.0001 6.06577 21.0001 6.38847V11.4263C21.0001 11.7489 20.7312 12 20.4265 12H11.4444V14.2411H12.0001C12.3228 14.2411 12.5738 14.4921 12.5738 14.8148V20.4263C12.5738 20.749 12.3228 21 12.0001 21H9.75897C9.45424 21 9.20325 20.749 9.20325 20.4263V14.8148C9.20325 14.4921 9.45424 14.2411 9.75897 14.2411H10.3147V11.4263C10.3147 11.1216 10.5657 10.8706 10.8884 10.8706H19.8705V6.94429H18.7589V8.07383C18.7589 8.54003 18.5616 8.95236 18.2569 9.25708C17.97 9.56181 17.5397 9.75906 17.0737 9.75906H4.68505C4.21885 9.75906 3.80651 9.56181 3.5018 9.25708C3.19706 8.95235 2.99982 8.5399 2.99982 8.07383V4.6853C2.99982 4.21909 3.19707 3.80676 3.5018 3.50204C3.80653 3.19731 4.21897 3.00006 4.68505 3.00006L4.68531 3ZM11.4444 15.3706H10.3148V19.8707H11.4444V15.3706ZM17.0739 4.12951H4.68531C4.54192 4.12951 4.3984 4.20121 4.29091 4.29085C4.20126 4.39846 4.12957 4.54185 4.12957 4.68525V8.07378C4.12957 8.23512 4.20126 8.36068 4.29091 8.46818C4.39852 8.57578 4.5419 8.62952 4.68531 8.62952H17.0739C17.2353 8.62952 17.3608 8.57578 17.4683 8.46818C17.5759 8.36057 17.6297 8.23514 17.6297 8.07378V4.68525C17.6297 4.54186 17.5759 4.39835 17.4683 4.29085C17.3607 4.2012 17.2353 4.12951 17.0739 4.12951Z" fill="#1C2128"/>
</svg>
