<svg width="24" height="24" viewBox="0 0 24 24" fill="none" xmlns="http://www.w3.org/2000/svg">
    <path d="M16.6,22.3C9,21.7,1.3,14,0.1,6.7c-0.3-1.6,0.2-3.2,1.3-4.4l1.6-1.6c0.9-0.9,2.3-0.9,3.3,0l2.5,2.5c0.9,0.9,0.9,2.4,0,3.3
            C8.7,6.5,8.6,6.5,8.5,6.6L7.6,7.3C7.3,7.5,7.2,8,7.4,8.4c0.9,1.8,4.7,5.6,6.5,6.5c0.4,0.2,0.8,0.1,1.1-0.2l0.7-0.9
            c0.8-1,2.2-1.2,3.2-0.5c0.1,0.1,0.2,0.1,0.2,0.2l2.5,2.5c0.4,0.4,0.7,1,0.7,1.6c0,1.4-1.4,2.2-2.3,3.3
            C19.1,21.8,17.8,22.3,16.6,22.3z M4.7,1.5c-0.2,0-0.4,0.1-0.6,0.2L2.5,3.4c-0.8,0.8-1.1,1.9-0.9,3c0.7,3.5,2.5,6.8,5.1,9.3
            c2.5,2.6,5.7,4.4,9.3,5.1c1.1,0.2,2.2-0.1,3-0.9l1.6-1.6c0.3-0.3,0.3-0.8,0-1.1l-2.5-2.5c-0.3-0.3-0.8-0.3-1.1,0
            c0,0-0.1,0.1-0.1,0.1l-0.7,0.9c-0.7,1-2.1,1.2-3.1,0.6c-1.4-0.9-2.7-1.9-3.9-3.1C8.1,11.9,7,10.6,6.1,9.2c-0.6-1-0.4-2.4,0.6-3.1
            l0.9-0.7C8,5.1,8.1,4.6,7.8,4.3c0,0,0-0.1-0.1-0.1L5.3,1.7C5.1,1.6,4.9,1.5,4.7,1.5z M19.7,10.4c-0.4,0-0.8-0.3-0.8-0.8
            c0,0,0,0,0,0c0-3.5-2.8-6.3-6.3-6.3c-0.4,0-0.8-0.3-0.8-0.8s0.3-0.8,0.8-0.8c4.3,0,7.8,3.5,7.8,7.8C20.4,10.1,20.1,10.4,19.7,10.4
            C19.7,10.4,19.7,10.4,19.7,10.4z M15.9,10.4c-0.4,0-0.8-0.3-0.8-0.8c0,0,0,0,0,0c0-1.4-1.1-2.5-2.5-2.5c-0.4,0-0.7-0.3-0.7-0.8
            c0-0.4,0.3-0.7,0.7-0.7c2.2,0,4,1.8,4,4C16.6,10.1,16.3,10.4,15.9,10.4C15.9,10.4,15.9,10.4,15.9,10.4L15.9,10.4z" fill='black'/>
</svg>