<svg width="32" height="32" viewBox="0 0 32 32" fill="none" xmlns="http://www.w3.org/2000/svg">
<path fill-rule="evenodd" clip-rule="evenodd" d="M25.8782 14.2015H24.3542C23.9633 14.2015 23.6014 14.0543 23.354 13.8434C22.9114 13.4661 22.7932 12.9514 22.9317 12.474C23.1545 11.704 23.7491 9.65241 23.9363 9.00625C24.0821 8.50402 24.6242 8 25.3593 8H27.5176C28.2527 8 28.795 8.50404 28.9405 9.00625C29.1277 9.65261 29.7221 11.704 29.9454 12.474C30.0837 12.9514 29.9653 13.4664 29.5229 13.8434C29.2755 14.0543 28.9133 14.2015 28.5226 14.2015H26.9986V23.4586H28.0273C28.3364 23.4586 28.5872 23.7098 28.5872 24.0188C28.5872 24.3276 28.3364 24.5788 28.0273 24.5788H24.85C24.5408 24.5788 24.29 24.3275 24.29 24.0188C24.29 23.7096 24.5409 23.4586 24.85 23.4586H25.8787V14.2015H25.8782ZM2.59682 16.9924V13.7417C2.59682 12.7233 3.00103 11.7471 3.72103 11.027C4.44108 10.307 5.41755 9.9024 6.43571 9.9024H17.886C18.9044 9.9024 19.8808 10.307 20.6007 11.027C21.3207 11.7471 21.7253 12.7233 21.7253 13.7417V16.9924C22.0804 17.1804 22.3225 17.5536 22.3225 17.9836V19.9625C22.3225 20.3417 22.1339 20.6771 21.8455 20.8796V23.0383C21.8455 23.4374 21.6873 23.8199 21.4048 24.1023C21.1226 24.3843 20.74 24.5429 20.3408 24.5429H20.2985C19.6246 24.5429 19.0328 24.0947 18.8503 23.4457L18.1854 21.0825H6.13735L5.47249 23.4457C5.28991 24.0945 4.69813 24.5429 4.0242 24.5429H3.98172C3.58256 24.5429 3.2001 24.3843 2.9177 24.1023C2.63569 23.8201 2.47707 23.4374 2.47707 23.0383V20.8796C2.18841 20.6771 2 20.3415 2 19.9625V17.9836C2 17.5536 2.24196 17.1804 2.59746 16.9924H2.59682ZM20.7251 21.0825H19.3488L19.9283 23.1426C19.9748 23.3082 20.126 23.4226 20.2983 23.4226H20.3406C20.4427 23.4226 20.5403 23.3823 20.6125 23.3101C20.6846 23.238 20.7251 23.1404 20.7251 23.0383L20.7251 21.0825ZM4.97294 21.0825H3.59669V23.0383C3.59669 23.1403 3.63735 23.238 3.70921 23.31C3.78127 23.3823 3.8789 23.4225 3.98096 23.4225H4.02343C4.19533 23.4225 4.34651 23.3082 4.39341 23.1425L4.97294 21.0825ZM21.2022 17.9836H3.11987V19.9625H21.2022V17.9836ZM20.6048 16.8634V13.7419C20.6048 13.0207 20.3186 12.3292 19.8085 11.8193C19.2984 11.3096 18.607 11.023 17.8859 11.023H6.43561C5.71437 11.023 5.02292 11.3096 4.51302 11.8193C4.00334 12.3294 3.7167 13.0208 3.7167 13.7419V16.8634H4.20585V16.2568C4.20585 15.1789 5.07988 14.3049 6.15781 14.3049H9.80103C10.879 14.3049 11.753 15.1789 11.753 16.2568V16.8634H12.5682V16.2568C12.5682 15.1789 13.4422 14.3049 14.5202 14.3049H18.1636C19.2415 14.3049 20.1156 15.1789 20.1156 16.2568V16.8634H20.6048ZM10.6329 16.8634V16.2568C10.6329 15.7975 10.2607 15.4251 9.80118 15.4251H6.15796C5.6986 15.4251 5.32619 15.7973 5.32619 16.2568V16.8634H10.6329ZM18.996 16.8634V16.2568C18.996 15.7975 18.6234 15.4251 18.1642 15.4251H14.5208C14.0616 15.4251 13.689 15.7973 13.689 16.2568V16.8634H18.996ZM28.8694 12.7859C28.8903 12.8586 28.8634 12.9337 28.7963 12.9911C28.7291 13.0482 28.6287 13.0814 28.5226 13.0814H24.3546C24.2485 13.0814 24.148 13.0482 24.0808 12.9911C24.0136 12.9337 23.9868 12.8584 24.0077 12.7859C24.231 12.0162 24.8254 9.96439 25.0126 9.31824C25.046 9.2033 25.1911 9.12057 25.3594 9.12057H27.5177C27.6862 9.12057 27.8311 9.2035 27.8645 9.31824C28.0519 9.9646 28.6462 12.0162 28.8694 12.7859Z" fill="#1C2028"/>
</svg>
