<?xml version="1.0" encoding="utf-8"?>
<!-- Generator: Adobe Illustrator 24.3.0, SVG Export Plug-In . SVG Version: 6.00 Build 0)  -->
<svg version="1.1" id="Calque_1" xmlns="http://www.w3.org/2000/svg" xmlns:xlink="http://www.w3.org/1999/xlink" x="0px" y="0px"
	 viewBox="0 0 28.1 28.1" style="enable-background:new 0 0 28.1 28.1;" xml:space="preserve">
<path d="M23.2,0.8c-1.1-1.1-3.1-1.1-4.2,0L17,2.8c0,0,0,0,0,0s0,0,0,0L6.4,13.4l0,0l0,0L2.8,17l0,0l0,0l-1.9,1.9
	c-1.2,1.2-1.2,3.1,0,4.2l4,4c0.6,0.6,1.3,0.9,2.1,0.9s1.6-0.3,2.1-0.9L27.2,9.1c1.2-1.2,1.2-3.1,0-4.2C27.2,4.9,23.2,0.8,23.2,0.8z
	 M25.8,7.7L7.7,25.8c-0.4,0.4-1,0.4-1.4,0l-4-4c-0.4-0.4-0.4-1,0-1.4l1.2-1.2L5,20.6c0.2,0.2,0.5,0.3,0.7,0.3s0.5-0.1,0.7-0.3
	c0.4-0.4,0.4-1,0-1.4l-1.5-1.5l2.1-2.1L8.6,17c0.2,0.2,0.5,0.3,0.7,0.3S9.8,17.2,10,17c0.4-0.4,0.4-1,0-1.4l-1.5-1.5l2.1-2.1
	l1.5,1.5c0.2,0.2,0.5,0.3,0.7,0.3s0.5-0.1,0.7-0.3c0.4-0.4,0.4-1,0-1.4L12,10.6l2.1-2.1l1.5,1.5c0.2,0.2,0.5,0.3,0.7,0.3
	s0.5-0.1,0.7-0.3c0.4-0.4,0.4-1,0-1.4L15.6,7l2.1-2.1l2.7,2.7c0.2,0.2,0.5,0.3,0.7,0.3s0.5-0.1,0.7-0.3c0.4-0.4,0.4-1,0-1.4
	l-2.7-2.7l1.2-1.2C20.6,2.1,20.8,2,21.1,2s0.5,0.1,0.7,0.3l4,4C26.2,6.7,26.2,7.3,25.8,7.7L25.8,7.7z"/>
</svg>
