<svg width="32" height="32" viewBox="0 0 32 32" fill="none" xmlns="http://www.w3.org/2000/svg">
<path d="M10.9521 9.56711C10.9285 9.54688 10.9065 9.5258 10.8863 9.50304C10.8188 9.44234 10.7447 9.38922 10.6662 9.34369C10.3771 9.17676 10.0238 9.11942 9.67644 9.21217H9.67559L4.48289 10.6033C4.13806 10.696 3.86236 10.922 3.69543 11.2112L3.67857 11.2382C3.52428 11.5214 3.47369 11.8629 3.5639 12.1976L6.92706 24.7473C7.0198 25.0929 7.24576 25.3695 7.53494 25.5364L7.56192 25.5533C7.84521 25.7076 8.18666 25.7582 8.52222 25.6679L13.7166 24.276C14.0623 24.1832 14.338 23.9581 14.5041 23.6706C14.6651 23.3924 14.7241 23.0543 14.6449 22.7196C14.639 22.7002 14.6339 22.68 14.6297 22.6597C13.5665 18.5159 12.2285 14.2725 11.2724 10.1312C11.2134 9.9111 11.1004 9.71972 10.9529 9.56627L10.9521 9.56711ZM10.7202 7.97954V7.59256C10.7202 6.87929 11.0119 6.23094 11.4815 5.76133C11.9511 5.29172 12.5995 5 13.3128 5H18.6884C19.4017 5 20.05 5.29172 20.5196 5.76133C20.9893 6.23094 21.281 6.87929 21.281 7.59256V7.97954C21.3012 7.97364 21.3214 7.96858 21.3425 7.96268C21.7624 7.85308 22.2135 7.84718 22.6578 7.96605L27.8496 9.35718C28.5384 9.54182 29.089 9.9912 29.4203 10.5654L29.4431 10.6075C29.7576 11.1749 29.8621 11.8595 29.6825 12.5298L26.3194 25.0795C26.1347 25.7683 25.6862 26.3188 25.1112 26.6502L25.0691 26.6729C24.5016 26.9874 23.817 27.092 23.1459 26.9124L17.9532 25.5212C17.2686 25.3374 16.7198 24.8923 16.3867 24.3207C16.1852 23.9758 16.0638 23.5846 16.0385 23.1766H15.9618C15.9357 23.5796 15.8151 23.9674 15.617 24.3105C15.2907 24.8754 14.757 25.3181 14.0884 25.5094C14.0631 25.5179 14.037 25.5255 14.0109 25.5305L8.85356 26.9124C8.18245 27.092 7.49869 26.9874 6.93128 26.6729L6.88828 26.6502C6.31412 26.3188 5.86475 25.7683 5.6801 25.0795L2.32707 12.5652C2.31863 12.5399 2.31189 12.5155 2.30683 12.4885C2.14158 11.8309 2.24866 11.1623 2.55639 10.6067L2.57915 10.5645C2.90375 10.0022 3.43912 9.55953 4.10771 9.36814C4.133 9.35971 4.15914 9.35212 4.18527 9.34706L9.30715 7.97448C9.3316 7.96605 9.3569 7.95931 9.38303 7.95425C9.83747 7.84043 10.2961 7.85561 10.7194 7.97786L10.7202 7.97954ZM15.7552 21.8858H18.6876C19.0451 21.8858 19.3696 21.7391 19.6057 21.503C19.8418 21.2669 19.9885 20.9423 19.9885 20.5848V7.59256C19.9885 7.23508 19.8418 6.91048 19.6057 6.67441C19.3696 6.43834 19.0442 6.29164 18.6876 6.29164H13.3119C12.9544 6.29164 12.6298 6.43834 12.3938 6.67441C12.1577 6.91048 12.011 7.23592 12.011 7.59256V8.82265C12.2327 9.08992 12.4039 9.4044 12.5042 9.75681C12.5127 9.78211 12.5202 9.8074 12.5253 9.83354L15.7552 21.8858ZM21.2801 9.37742V20.5848C21.2801 21.2981 20.9884 21.9465 20.5188 22.4161C20.0492 22.8857 19.4008 23.1774 18.6876 23.1774H17.331C17.3538 23.3536 17.412 23.5239 17.5013 23.6765C17.6674 23.9623 17.9423 24.1849 18.2863 24.2777L23.479 25.6688C23.8145 25.759 24.1551 25.7084 24.4393 25.5541L24.4662 25.5373C24.7554 25.3703 24.9814 25.0938 25.0741 24.7481L28.4373 12.1985C28.5275 11.8629 28.4769 11.5223 28.3226 11.2382L28.3057 11.2112C28.1388 10.922 27.8623 10.6952 27.5166 10.6033L22.3239 9.21217C22.0988 9.15231 21.8728 9.15399 21.6646 9.20879C21.528 9.2442 21.3982 9.30154 21.2801 9.37826V9.37742Z" fill="black"/>
</svg>
