<svg width="22" height="22" viewBox="0 0 22 22" fill="none" xmlns="http://www.w3.org/2000/svg">
<path d="M21.099 4.07649C21.1 3.91444 21.0355 3.7579 20.9213 3.64351L20.8813 3.60349L20.8811 3.60353L18.3574 1.07978C18.2422 0.964535 18.0865 0.9 17.9237 0.9H2.53868C1.63529 0.9 0.9 1.63529 0.9 2.53868V19.4613C0.9 20.3647 1.63529 21.1 2.53868 21.1H19.4604C20.3638 21.1 21.0991 20.3647 21.0991 19.4613L21.099 4.07649ZM21.099 4.07649C21.099 4.07667 21.099 4.07685 21.099 4.07702L20.999 4.07627L21.099 4.07627V4.07649ZM12.8955 2.12502H15.2592V6.63997C15.2592 6.86752 15.0741 7.05259 14.8466 7.05259H12.8955V2.12502ZM6.74206 2.12502H11.6704V7.05337H7.15459C6.92704 7.05337 6.74197 6.86831 6.74197 6.64075L6.74206 2.12502ZM16.2854 19.874H5.71613V13.9206H16.2854V19.874ZM19.8751 19.4614C19.8751 19.689 19.6901 19.874 19.4625 19.874H17.5114V13.3072C17.5114 12.9692 17.2368 12.6946 16.8988 12.6946H5.10364C4.76564 12.6946 4.49103 12.9692 4.49103 13.3072V19.874H2.5389C2.31135 19.874 2.12628 19.689 2.12628 19.4614V2.5379C2.12628 2.31035 2.31134 2.12528 2.5389 2.12528H5.51604V6.64023C5.51604 7.54362 6.25133 8.27891 7.15472 8.27891H14.8466C15.75 8.27891 16.4853 7.54362 16.4853 6.64023V2.12528H17.6699L19.875 4.33042L19.8751 19.4614Z" fill="black" stroke="black" stroke-width="0.2"/>
</svg>
