<?xml version="1.0" encoding="utf-8"?>
<!-- Generator: Adobe Illustrator 24.3.0, SVG Export Plug-In . SVG Version: 6.00 Build 0)  -->
<svg version="1.1" id="Calque_1" xmlns="http://www.w3.org/2000/svg" xmlns:xlink="http://www.w3.org/1999/xlink" x="0px" y="0px"
	 viewBox="0 0 56.2 26.8" style="enable-background:new 0 0 56.2 26.8;" xml:space="preserve">
<path d="M52.6,18.9h-3c1.3-1,2.1-2.5,2.1-4.3c0-0.8-0.4-1.5-0.7-2.1l-0.1-0.2c0,0,0-0.1-0.1-0.1c-0.2-0.2-0.4-0.7-0.6-1L50.2,11
	c-0.1-0.2-0.9-2.3-0.9-3.6c0-1.1,0-1.7,0.4-2.7c0,0,0.1-0.1,0.1-0.3c0.7-1.4,0.9-2,0.9-2.4c0-0.3-0.3-0.6-0.6-0.6h-7.8
	c-0.3,0-0.6,0.3-0.6,0.6c0,0.4,0.2,1,0.9,2.4c0.1,0.1,0.1,0.2,0.1,0.3c0.4,0.9,0.4,1.5,0.4,2.7c0,1.3-0.8,3.4-0.9,3.6l-0.1,0.2
	c-0.2,0.3-0.4,0.8-0.6,1c0,0,0,0.1-0.1,0.1l-0.1,0.2c-0.3,0.6-0.7,1.3-0.7,2.1c0,1.7,0.8,3.3,2.1,4.3H28.4v-5.2
	c0-0.3-0.3-0.6-0.6-0.6H8.9c-0.3,0-0.6,0.3-0.6,0.6v5.2H3.6c-0.3,0-0.6,0.3-0.6,0.6v5.3c0,0.3,0.3,0.6,0.6,0.6h49
	c0.3,0,0.6-0.3,0.6-0.6v-5.3C53.2,19.2,52.9,18.9,52.6,18.9z M42,14.6c0-0.5,0.3-1.1,0.5-1.6l0.1-0.2c0.2-0.3,0.4-0.7,0.6-1.1
	l0.1-0.2c0,0,0,0,0-0.1c0-0.1,1-2.5,1-4.1c0-1.2,0-2-0.5-3.1c0,0-0.1-0.2-0.1-0.3c-0.3-0.6-0.5-1-0.6-1.3h6.2
	c-0.1,0.3-0.3,0.7-0.6,1.3c-0.1,0.2-0.1,0.3-0.1,0.3c-0.5,1.2-0.5,2-0.5,3.1c0,1.6,1,4,1,4.1c0,0,0,0,0,0.1l0.1,0.2
	c0.2,0.4,0.4,0.8,0.6,1.1L50,13c0.3,0.5,0.5,1.1,0.5,1.6c0,2.4-1.9,4.3-4.3,4.3C43.9,18.9,42,17,42,14.6z M9.5,14.2h17.8v4.7H9.5
	V14.2z M52,24.2H4.2v-4.2H52V24.2z"/>
</svg>
