<svg width="24" height="24" viewBox="0 0 24 24" fill="none" xmlns="http://www.w3.org/2000/svg">
<path d="M21.9131 18H2.08671C1.57317 18 1.1521 17.5789 1.1521 17.0654V7.93461C1.1521 7.42107 1.57317 7 2.08671 7H21.9131C22.4267 7 22.8477 7.42107 22.8477 7.93461V17.0654C22.8477 17.5789 22.4267 18 21.9131 18ZM2.08671 7.62681C1.91512 7.62681 1.77517 7.76676 1.77517 7.93834V17.0691C1.77517 17.2407 1.91512 17.3807 2.08671 17.3807H21.9131C22.0847 17.3807 22.2247 17.2407 22.2247 17.0691V7.93834C22.2247 7.76676 22.0847 7.62681 21.9131 7.62681H2.08671ZM11.1832 16.9691H3.44843C2.93489 16.9691 2.51382 16.5481 2.51382 16.0345V8.9689C2.51382 8.45537 2.93489 8.0343 3.44843 8.0343H11.1832C11.6968 8.0343 12.1178 8.45537 12.1178 8.9689V16.0345C12.1178 16.5481 11.6968 16.9691 11.1832 16.9691ZM3.44843 8.65737C3.27684 8.65737 3.13689 8.79732 3.13689 8.9689V16.0345C3.13689 16.2061 3.27684 16.3461 3.44843 16.3461H11.1832C11.3548 16.3461 11.4948 16.2061 11.4948 16.0345V8.9689C11.4948 8.79732 11.3548 8.65737 11.1832 8.65737H3.44843ZM21.4396 9.17701C21.4396 9.00542 21.2996 8.86547 21.1281 8.86547H13.4553C13.2837 8.86547 13.1437 9.00542 13.1437 9.17701C13.1437 9.3486 13.2837 9.48854 13.4553 9.48854H21.1281C21.2996 9.48854 21.4396 9.3486 21.4396 9.17701ZM21.4396 10.8418C21.4396 10.6702 21.2996 10.5303 21.1281 10.5303H13.4553C13.2837 10.5303 13.1437 10.6702 13.1437 10.8418C13.1437 11.0134 13.2837 11.1533 13.4553 11.1533H21.1281C21.2996 11.1533 21.4396 11.0134 21.4396 10.8418ZM21.4396 12.5017C21.4396 12.3301 21.2996 12.1901 21.1281 12.1901H13.4553C13.2837 12.1901 13.1437 12.3301 13.1437 12.5017C13.1437 12.6733 13.2837 12.8132 13.4553 12.8132H21.1281C21.2996 12.8132 21.4396 12.6733 21.4396 12.5017ZM21.4396 14.1616C21.4396 13.99 21.2996 13.85 21.1281 13.85H13.4553C13.2837 13.85 13.1437 13.99 13.1437 14.1616C13.1437 14.3332 13.2837 14.4731 13.4553 14.4731H21.1281C21.2996 14.4731 21.4396 14.3332 21.4396 14.1616ZM21.4396 15.8264C21.4396 15.6548 21.2996 15.5148 21.1281 15.5148H13.4553C13.2837 15.5148 13.1437 15.6548 13.1437 15.8264C13.1437 15.9979 13.2837 16.1379 13.4553 16.1379H21.1281C21.2996 16.1379 21.4396 15.9979 21.4396 15.8264ZM7.31707 11.5075C6.65384 11.5075 6.11109 10.9684 6.11109 10.3016C6.11109 9.63468 6.6502 9.09557 7.31707 9.09557C7.98394 9.09557 8.52306 9.63468 8.52306 10.3016C8.52306 10.9684 7.98394 11.5075 7.31707 11.5075ZM7.31707 9.72229C6.99582 9.72229 6.73416 9.98393 6.73416 10.3052C6.73416 10.6265 6.9958 10.8881 7.31707 10.8881C7.63834 10.8881 7.89998 10.6265 7.89998 10.3052C7.89998 9.98393 7.63834 9.72229 7.31707 9.72229Z" fill="black" stroke="black" stroke-width="0.1"/>
</svg>
