<svg width="40" height="40" viewBox="0 0 40 40" fill="none" xmlns="http://www.w3.org/2000/svg">
<path d="M32.3079 25.9859H7.69244C6.33484 25.9859 5.23083 24.8817 5.23083 23.5243V18.9973C5.23083 18.2169 5.55539 17.4611 6.12215 16.9241C6.69535 16.3792 7.44535 16.1011 8.24112 16.144C9.75741 16.2232 10.9453 17.5321 10.9453 19.1241V20.5605C10.9453 20.8998 11.2212 21.1759 11.5608 21.1759H28.4385C28.778 21.1759 29.0539 20.8998 29.0539 20.5605V19.1241C29.0539 17.5321 30.2421 16.2232 31.7588 16.144H31.7582C32.555 16.102 33.3039 16.3794 33.8783 16.9243C34.4446 17.4616 34.7691 18.2172 34.7691 18.9975V23.5245C34.7691 24.8817 33.6651 25.9859 32.3075 25.9859H32.3079ZM8.08786 17.3705C7.66845 17.3705 7.27426 17.5274 6.96889 17.8169C6.64188 18.1274 6.46175 18.5466 6.46175 18.9975V23.5245C6.46175 24.2033 7.01398 24.7553 7.69255 24.7553H32.308C32.9866 24.7553 33.5388 24.2033 33.5388 23.5245V18.9975C33.5388 18.5468 33.3584 18.1276 33.0316 17.8171C32.7046 17.5071 32.2631 17.3522 31.8236 17.3729H31.8229C30.9749 17.4174 30.285 18.2028 30.285 19.1241V20.5605C30.285 21.5785 29.4569 22.4067 28.4387 22.4067H11.561C10.543 22.4067 9.71479 21.5786 9.71479 20.5605V19.1241C9.71479 18.2029 9.02485 17.4174 8.17685 17.3729C8.14694 17.3714 8.11747 17.3705 8.08801 17.3705L8.08786 17.3705Z" fill="#1C2128"/>
<path d="M20.6159 22.4063H11.561C10.543 22.4061 9.7148 21.5775 9.7148 20.5601V19.1237C9.7148 18.2077 9.03223 17.4257 8.19068 17.3735L7.4516 17.3846V14.0145C7.4516 12.3181 8.83194 10.9375 10.5286 10.9375H20.6155L20.6159 22.4063ZM8.68274 16.2029C9.98206 16.4859 10.9459 17.6902 10.9459 19.1239V20.5603C10.9459 20.8996 11.2222 21.1757 11.5613 21.1757L19.3853 21.1755V12.1686H10.5293C9.51126 12.1686 8.68308 12.9967 8.68308 14.0149L8.68274 16.2029Z" fill="#1C2128"/>
<path d="M28.4422 22.4066H19.385V10.938H29.4719C31.1683 10.938 32.5489 12.3183 32.5489 14.015V17.3891L31.8181 17.3751C30.975 17.4177 30.2851 18.2032 30.2851 19.1244V20.5608C30.2851 21.5768 29.4583 22.405 28.442 22.4068L28.4422 22.4066ZM20.6159 21.1758H28.441C28.7787 21.1751 29.0546 20.899 29.0546 20.5603V19.1239C29.0546 17.69 30.0184 16.4853 31.3184 16.2027V14.0146C31.3184 12.9965 30.4903 12.1683 29.4722 12.1683L20.6156 12.1686L20.6159 21.1758Z" fill="#1C2128"/>
<path d="M11.0776 29.0622H9.84677C9.1682 29.0622 8.61597 28.5102 8.61597 27.8314V24.7544H12.3084V27.8314C12.3081 28.5102 11.7559 29.0622 11.0776 29.0622ZM9.84677 25.9852V27.8314H11.0783L11.0776 25.9852H9.84677Z" fill="#1C2128"/>
<path d="M30.1542 29.0622H28.9234C28.2448 29.0622 27.6926 28.5102 27.6926 27.8314V24.7544H31.385V27.8314C31.385 28.5102 30.8327 29.0622 30.1542 29.0622ZM28.9234 25.9852V27.8314H30.1549L30.1542 25.9852H28.9234Z" fill="#1C2128"/>
</svg>
