<svg width="40" height="40" viewBox="0 0 40 40" fill="none" xmlns="http://www.w3.org/2000/svg">
<path d="M32.8254 10.0001H26.482C26.0965 10.0001 25.7825 10.3139 25.7825 10.6998V14.4735H20.1391C19.7536 14.4735 19.4398 14.7873 19.4398 15.1732V18.947H13.7964C13.4107 18.947 13.0967 19.2608 13.0967 19.6465V23.42L7.17494 23.4202C6.78921 23.4202 6.47546 23.734 6.47546 24.1197V29.3005C6.47546 29.6863 6.78923 30 7.17494 30H32.8254C33.0123 30 33.188 29.927 33.3203 29.7948C33.4524 29.6625 33.5247 29.4869 33.5245 29.3007V10.6997C33.5247 10.314 33.2112 10 32.8255 10L32.8254 10.0001ZM32.126 11.3993V28.6009H7.87442V24.8191H13.7962C14.182 24.8191 14.4957 24.5051 14.4957 24.1194V20.3459H20.1391C20.5247 20.3459 20.8386 20.0319 20.8386 19.6462V15.8724H26.482C26.8676 15.8724 27.1815 15.5586 27.1815 15.1729L27.1817 11.3994L32.126 11.3993Z" fill="#1C2128"/>
</svg>
