<svg width="32" height="32" viewBox="0 0 32 32" fill="none" xmlns="http://www.w3.org/2000/svg">
<path d="M26.7995 4.11967C26.6996 4.01957 26.4995 3.96968 26.3495 4.01957L20.6997 5.56961H3.50005C3.20005 5.56961 3 5.76966 3 6.06966V23.9195C3 24.2195 3.20005 24.4195 3.50005 24.4195H3.65005L3.80005 25.4695C3.85011 25.7194 4.04999 25.8694 4.3001 25.8694H6.30014C6.55008 25.8694 6.75013 25.6694 6.80019 25.4695L6.95019 24.4195H17.3502L17.5002 25.4695C17.5503 25.7194 17.7502 25.8694 18.0003 25.8694H20.0003C20.2502 25.8694 20.4503 25.6694 20.5004 25.4695L20.6504 24.4195H20.7503L26.35 26.0194C26.4 26.0194 26.5999 26.0695 26.7999 25.9195C26.8999 25.8196 27 25.6696 27 25.5196V4.51979C27 4.36979 26.9499 4.21979 26.7999 4.11985L26.7995 4.11967ZM5.84988 24.9193H4.69995L4.6499 24.4693H5.89994L5.84988 24.9193ZM19.5499 24.9193H18.4498L18.3998 24.4693H19.6498L19.5499 24.9193ZM15.4999 13.7196H20.2497V16.3695H15.4999V13.7196ZM20.2497 12.7195H15.4999V10.0696H20.2497V12.7195ZM15.4999 17.3197H20.2497V19.9696H15.4999V17.3197ZM20.2497 9.06979H15.4999V6.56971H20.2497V9.06979ZM3.99976 6.56971H8.74957L8.74973 14.5196H8.39968C8.09968 14.5196 7.89963 14.7197 7.89963 15.0197C7.89963 15.3197 8.09968 15.5197 8.39968 15.5197H8.74973V23.4696H3.9995L3.99976 6.56971ZM9.74984 6.56971H14.4996V14.5196H14.1496C13.8496 14.5196 13.6495 14.7197 13.6495 15.0197C13.6495 15.3197 13.8496 15.5197 14.1496 15.5197H14.4996V23.4696H9.74984V6.56971ZM15.4999 20.9696H20.2497V23.4196H15.4999V20.9696ZM25.9998 24.8695L21.25 23.5696L21.2498 6.46976L26.0001 5.16983L25.9998 24.8695Z" fill="#1C2028"/>
</svg>
