<svg width="24" height="24" viewBox="0 0 24 24" fill="none" xmlns="http://www.w3.org/2000/svg">
<path d="M19.4334 9.30372L19.4332 9.30371L19.4332 9.30413L19.4329 9.30826C19.4326 9.31899 19.4319 9.32964 19.4307 9.34018L19.4294 9.35953L19.428 9.36027C19.3999 9.53496 19.2562 9.67543 19.0724 9.67543H16.8196C16.7177 9.67543 16.6271 9.63108 16.5625 9.56274M19.4334 9.30372L16.6351 9.49405M19.4334 9.30372V9.29696M19.4334 9.30372V9.29696M16.5625 9.56274L16.6351 9.49405M16.5625 9.56274C16.5625 9.56278 16.5625 9.56283 16.5626 9.56287L16.6351 9.49405M16.5625 9.56274C16.4974 9.49409 16.4581 9.40018 16.4581 9.29719C16.4581 6.95373 14.6712 5.05835 12.4885 5.05835C10.3041 5.05835 8.51606 6.95385 8.51606 9.29719V9.29796L8.51624 16.1239M16.6351 9.49405C16.5875 9.44386 16.5581 9.3745 16.5581 9.29719C16.5581 6.90463 14.7324 4.95835 12.4885 4.95835C10.243 4.95835 8.41606 6.90468 8.41606 9.29719V9.29796L8.41624 16.1239H8.51624M8.51624 16.1239H9.0004C9.20569 16.1239 9.36103 16.299 9.36103 16.5017V16.9628M8.51624 16.1239L8.51624 16.2239L8.41624 16.2239H9.0004C9.14453 16.2239 9.26103 16.3481 9.26103 16.5017V17.0104M9.36103 16.9628V17.0736L9.26103 17.1212V17.0104M9.36103 16.9628L9.26103 17.0104M9.36103 16.9628L9.26103 17.0104M9.67355 16.8141L9.71668 16.9044L9.67371 16.8141L9.67355 16.8141ZM9.67355 16.8141C9.98495 16.6653 10.3288 16.6356 10.6416 16.7327M9.67355 16.8141L10.612 16.8282M10.6416 16.7327C10.6416 16.7327 10.6416 16.7327 10.6416 16.7327L10.612 16.8282M10.6416 16.7327L10.612 16.8282M10.6416 16.7327C10.9722 16.8351 11.2284 17.066 11.3603 17.3809M10.612 16.8282C10.9148 16.922 11.1478 17.1324 11.2681 17.4196M11.3603 17.3809C11.3603 17.3809 11.3603 17.3809 11.3603 17.3809L11.2681 17.4196M11.3603 17.3809C11.4925 17.6958 11.4816 18.0498 11.3348 18.376M11.3603 17.3809L11.2681 17.4196M11.2681 17.4196L11.3348 18.376M11.3348 18.376L11.2436 18.3351L11.3348 18.3761C11.3348 18.3761 11.3348 18.376 11.3348 18.376ZM11.3348 18.376C11.196 18.6857 10.9474 18.9373 10.6363 19.0856L10.6362 19.0857L9.3612 19.6929V21.7222C9.3612 21.9249 9.20586 22.1 9.00057 22.1H4.92756C4.7225 22.1 4.56693 21.925 4.56693 21.7222L4.56675 16.502C4.56675 16.2992 4.72255 16.1242 4.92738 16.1242H5.54237M11.3348 18.376L5.54237 16.1242M19.4334 9.29696C19.4334 5.22428 16.3239 1.9 12.4887 1.9C8.65206 1.9 5.54165 5.2242 5.54165 9.29696C5.54165 9.30153 5.54195 9.30566 5.54237 9.30923V16.1242M19.4334 9.29696L5.54237 16.1242M5.54449 9.32105C5.54495 9.32317 5.54532 9.32449 5.5454 9.32478L5.54541 9.32479M5.54449 9.32105L5.54542 9.32483L5.54541 9.32479M5.54449 9.32105L5.54505 9.32344C5.54518 9.32392 5.54534 9.32453 5.54541 9.32479M5.54449 9.32105L5.54541 9.32479M10.7734 18.0944L10.6822 18.0534C10.6164 18.1993 10.4948 18.322 10.3371 18.3974L7.71696 19.6457L7.71694 19.6457C7.39932 19.7971 7.08467 19.6901 6.98925 19.4623L6.98921 19.4622C6.94447 19.3557 6.94747 19.2254 7.00675 19.0936L7.0068 19.0935C7.07218 18.9478 7.19398 18.8251 7.3518 18.7497L9.97176 17.5017L9.97188 17.5017C10.1296 17.4263 10.2951 17.4126 10.4358 17.4567L10.4361 17.4568C10.5637 17.4963 10.6547 17.5783 10.6993 17.6846L10.6993 17.6846C10.7441 17.7912 10.7413 17.9216 10.6821 18.0535L10.7734 18.0944ZM10.7734 18.0944C10.8421 17.9412 10.8486 17.7817 10.7915 17.6459L10.3802 18.4876C10.5578 18.4027 10.6972 18.2634 10.7734 18.0944ZM9.2612 21.7222V19.6297L5.54237 16.2242H4.92738C4.78362 16.2242 4.66675 16.3484 4.66675 16.502L4.66693 21.7222C4.66693 21.8758 4.78361 22 4.92756 22H9.00057C9.1447 22 9.2612 21.8758 9.2612 21.7222ZM8.01491 20.3333L8.63906 20.0361L8.63921 21.3441H5.28765V16.8794H5.88995C5.89367 16.8798 5.89794 16.8802 5.90265 16.8802C5.9073 16.8802 5.91155 16.8798 5.91527 16.8794H8.14292C8.14663 16.8798 8.1509 16.8802 8.15561 16.8802C8.16027 16.8802 8.16452 16.8798 8.16824 16.8794H8.64008L8.63982 17.3059L7.05309 18.0617C6.74181 18.2096 6.4933 18.4617 6.35418 18.7709L6.44537 18.8119L6.35417 18.7709C6.20737 19.0973 6.19641 19.4515 6.3286 19.7661C6.51632 20.2141 6.95279 20.4693 7.42337 20.4693C7.61915 20.4693 7.8214 20.4255 8.01487 20.3333C8.01489 20.3333 8.0149 20.3333 8.01491 20.3333ZM5.93366 16.8754C5.93355 16.8755 5.93188 16.876 5.92904 16.8767L5.9322 16.8759C5.93301 16.8756 5.93415 16.8753 5.93366 16.8754ZM8.18663 16.8754C8.18652 16.8755 8.18484 16.876 8.182 16.8767L8.18517 16.8759L8.18619 16.8756L8.18663 16.8754ZM12.5493 4.30371L12.5488 4.30273H12.4883C9.89433 4.30273 7.79476 6.54906 7.79476 9.29706V9.29784V16.1243H6.26322V9.29784C6.26322 9.29363 6.26294 9.2896 6.26251 9.2859C6.26833 5.62316 9.06476 2.65622 12.4884 2.65622C15.7959 2.65622 18.5169 5.42779 18.7009 8.92036H17.16C16.9799 6.36941 14.9939 4.33687 12.5493 4.30371Z" fill="#1C2128" stroke="#1C2128" stroke-width="0.2"/>
</svg>
