<svg width="18" height="18" viewBox="0 0 18 18" fill="none" xmlns="http://www.w3.org/2000/svg">
<path fill-rule="evenodd" clip-rule="evenodd" d="M9.00008 2.41675C5.36421 2.41675 2.41675 5.36421 2.41675 9.00008C2.41675 12.636 5.36421 15.5834 9.00008 15.5834C12.636 15.5834 15.5834 12.636 15.5834 9.00008C15.5834 5.36421 12.636 2.41675 9.00008 2.41675ZM0.916748 9.00008C0.916748 4.53578 4.53578 0.916748 9.00008 0.916748C13.4644 0.916748 17.0834 4.53578 17.0834 9.00008C17.0834 13.4644 13.4644 17.0834 9.00008 17.0834C4.53578 17.0834 0.916748 13.4644 0.916748 9.00008Z" fill="#14142B"/>
<path fill-rule="evenodd" clip-rule="evenodd" d="M9 4.91675C9.41421 4.91675 9.75 5.25253 9.75 5.66675V9.35609L11.197 10.8031C11.4899 11.096 11.4899 11.5709 11.197 11.8637C10.9041 12.1566 10.4292 12.1566 10.1363 11.8637L8.46967 10.1971C8.32902 10.0564 8.25 9.86566 8.25 9.66675V5.66675C8.25 5.25253 8.58579 4.91675 9 4.91675Z" fill="#14142B"/>
</svg>
