<svg width="40" height="40" viewBox="0 0 40 40" fill="none" xmlns="http://www.w3.org/2000/svg">
<path d="M25.7527 18.4506C26.1722 18.5581 26.6014 18.6104 27.0314 18.6104C28.4983 18.6104 29.9723 18.0004 31.084 16.8886C32.2745 15.6982 32.8869 14.0512 32.7642 12.3698C32.7521 12.2028 32.6558 12.0535 32.5088 11.9737C32.3618 11.8937 32.1842 11.8941 32.0374 11.9747L27.9691 14.2093L26.4903 13.3133L26.5273 11.583L30.7496 9.26458C30.8895 9.18777 30.9834 9.04778 31.0014 8.88924C31.0195 8.7307 30.9594 8.57321 30.8403 8.46697C28.5528 6.42575 25.0614 6.52641 22.8919 8.6959C21.5522 10.0356 20.9527 11.9518 21.2882 13.8213C21.3208 14.0038 21.3103 14.2707 21.0745 14.506L17.6893 17.8918L12.61 12.9379C12.6009 12.9291 12.5915 12.9205 12.5817 12.9124C12.4889 12.835 12.3586 12.6862 12.3356 12.6199L12.3219 12.5471C12.2588 12.2054 12.1635 11.689 11.7156 11.2986C11.0781 10.7425 10.0117 9.87947 9.32953 9.39704C8.87469 9.07734 8.41512 9.11116 8.03559 9.49201L7.53388 9.99495C7.15113 10.3765 7.11784 10.8363 7.43931 11.2885C7.91571 11.9635 8.77952 13.0317 9.33923 13.674C9.72808 14.1209 10.2425 14.2163 10.583 14.2796C10.6098 14.2846 10.6361 14.2894 10.6617 14.2944C10.722 14.315 10.8657 14.4359 10.953 14.5394C10.9613 14.5493 10.9699 14.5589 10.979 14.5682L15.9322 19.6481L8.34284 27.2381C7.80299 27.7776 7.50564 28.495 7.50564 29.2581C7.50564 30.0212 7.80292 30.7387 8.34257 31.2783C8.88242 31.8185 9.60001 32.116 10.3634 32.116H10.3639C11.1272 32.1159 11.8445 31.8183 12.3837 31.2785L18.8238 24.8389C19.1703 24.9079 19.4905 25.0762 19.7411 25.3272C20.0417 25.6284 20.2285 26.0551 20.2667 26.5284C20.2983 26.9234 20.4722 27.3048 20.7428 27.5735L25.3496 32.181C25.878 32.7091 26.5803 32.9999 27.3272 33H27.3276C28.0746 33 28.7768 32.7091 29.3046 32.1809L30.2226 31.2628C30.7511 30.7348 31.0421 30.0325 31.0421 29.2854C31.0421 28.5384 30.7511 27.836 30.2227 27.3076L25.6147 22.7009C25.3424 22.4296 24.9612 22.2561 24.5688 22.2249C24.0959 22.1871 23.6699 22.0006 23.3689 21.6992C23.1177 21.4484 22.9491 21.1286 22.8796 20.783L25.005 18.6576C25.2005 18.4622 25.4873 18.383 25.7527 18.4506ZM17.495 24.3278C17.5717 24.4038 17.655 24.4708 17.7428 24.5298L11.6883 30.5836C11.3346 30.9378 10.8642 31.1329 10.3638 31.133H10.3635C9.86282 31.133 9.39212 30.9378 9.03788 30.5834C8.68377 30.2293 8.48879 29.7587 8.48879 29.2582C8.48879 28.7577 8.68377 28.2873 9.03795 27.9334L16.6187 20.3521L17.8644 21.6297L17.4926 22.0011C16.8536 22.6428 16.8538 23.6857 17.495 24.3278ZM24.4909 23.2049C24.6545 23.2179 24.8112 23.288 24.9203 23.3967L29.5277 28.0028C29.8704 28.3455 30.0591 28.801 30.0591 29.2854C30.0591 29.7698 29.8704 30.2251 29.5277 30.5676L28.6094 31.4859C28.2672 31.8284 27.812 32.017 27.3277 32.017H27.3274C26.843 32.0169 26.3874 31.8282 26.0448 31.4858L21.4368 26.8772C21.3291 26.7703 21.2599 26.6146 21.2468 26.4497C21.1897 25.7439 20.902 25.0986 20.4368 24.6327C19.9768 24.1718 19.3669 23.888 18.7167 23.8307C18.701 23.8286 18.6852 23.8272 18.6694 23.8266C18.6484 23.8249 18.6277 23.8231 18.606 23.8219C18.4529 23.8137 18.304 23.7452 18.1888 23.6312C17.9315 23.3735 17.9318 22.9534 18.1884 22.6956L18.9028 21.9819C19.0932 21.7917 19.0952 21.4837 18.9073 21.2911L16.9751 19.3094C16.9736 19.3079 16.9723 19.3062 16.9708 19.3047C16.9699 19.3038 16.9689 19.3031 16.968 19.3021L11.6953 13.8945C11.5832 13.7629 11.2487 13.4073 10.8537 13.3302C10.824 13.3244 10.7936 13.3188 10.7625 13.313C10.4963 13.2636 10.2448 13.2169 10.0808 13.0284C9.53709 12.4044 8.70088 11.3709 8.24164 10.7202C8.23489 10.7107 8.22926 10.7023 8.22447 10.6948C8.22591 10.6933 8.22742 10.6918 8.22899 10.6903L8.73188 10.1861C8.73319 10.1848 8.7345 10.1836 8.73568 10.1823C8.74367 10.1872 8.75278 10.1932 8.76307 10.2005C9.40988 10.6579 10.4638 11.5111 11.0696 12.0395C11.2591 12.2047 11.3058 12.4577 11.3552 12.7255L11.3715 12.8127C11.4485 13.2063 11.8048 13.5417 11.9362 13.6539L17.3445 18.9286C17.345 18.9292 17.3455 18.9297 17.346 18.9303C17.3468 18.9312 17.3478 18.9318 17.3487 18.9328L19.3316 20.8666C19.5242 21.0545 19.8321 21.0526 20.0223 20.8623L20.7365 20.1482C20.8614 20.0234 21.0277 19.9547 21.2046 19.9547C21.3813 19.9547 21.5471 20.0233 21.671 20.1474C21.7871 20.2638 21.855 20.4112 21.8626 20.5657C21.8637 20.5874 21.8655 20.6093 21.8673 20.631C21.8679 20.6453 21.8692 20.6595 21.8711 20.6737C21.9285 21.3237 22.2129 21.934 22.6739 22.3943C23.1395 22.8607 23.7848 23.1486 24.4909 23.2049ZM22.5707 19.7018C22.5113 19.6137 22.4437 19.5301 22.3668 19.4531C22.0568 19.1426 21.6441 18.9716 21.2045 18.9716C20.7652 18.9716 20.3523 19.1424 20.0414 19.4528L19.6703 19.824L18.393 18.5782L21.7692 15.2015C22.1813 14.7901 22.3587 14.2239 22.2557 13.648C21.977 12.0947 22.4746 10.5033 23.5869 9.39107C25.2166 7.76137 27.7445 7.53775 29.6175 8.76465L25.8052 10.858C25.6513 10.9425 25.5541 11.1028 25.5504 11.2783L25.5012 13.5762C25.4974 13.7518 25.5877 13.9161 25.7379 14.0071L27.7021 15.1973C27.8523 15.2883 28.0396 15.2922 28.1935 15.2077L31.7758 13.2401C31.6726 14.3489 31.1873 15.3951 30.3888 16.1937C29.1955 17.3869 27.5126 17.8869 25.996 17.4982C25.3955 17.3453 24.7494 17.5232 24.31 17.9626L22.5707 19.7018ZM27.7802 29.7893C27.8762 29.885 28.0018 29.9328 28.1273 29.9328C28.2534 29.9328 28.3794 29.8846 28.4754 29.7883C28.6671 29.5961 28.6667 29.2848 28.4744 29.0932L23.9489 24.5802C23.7566 24.3885 23.4454 24.3889 23.2538 24.5811C23.0621 24.7734 23.0626 25.0846 23.2548 25.2762L27.7802 29.7893ZM10.3622 27.9646C9.69727 27.9646 9.15631 28.5059 9.15631 29.1712C9.15631 29.8362 9.69727 30.3771 10.3622 30.3771C11.0272 30.3771 11.5682 29.8362 11.5682 29.1712C11.5681 28.5059 11.0271 27.9646 10.3622 27.9646ZM10.3622 29.394C10.2393 29.394 10.1394 29.2941 10.1394 29.1712C10.1394 29.048 10.2393 28.9477 10.3622 28.9477C10.4851 28.9477 10.5851 29.048 10.5851 29.1712C10.585 29.2941 10.4851 29.394 10.3622 29.394Z" fill="#1C2128"/>
</svg>
