<svg width="41" height="40" viewBox="0 0 41 40" fill="none" xmlns="http://www.w3.org/2000/svg">
<path d="M31.8411 12.3887C31.7596 11.4277 31.3366 10.5276 30.6487 9.85152C29.9726 9.16359 29.0725 8.7406 28.1115 8.65905C27.1868 8.56826 26.2695 8.89266 25.6073 9.54448L10.8309 24.3136C10.5777 24.5723 10.4019 24.8965 10.3233 25.2498L9.05475 30.6744V30.6745C9.01157 30.8629 9.05652 31.0609 9.17705 31.212C9.29757 31.3632 9.48057 31.4511 9.67383 31.4508C9.72162 31.4511 9.7694 31.446 9.81595 31.4355L15.2405 30.167C15.594 30.0884 15.9182 29.9126 16.1767 29.6596L30.9558 14.8959C31.6074 14.2326 31.9317 13.3146 31.8412 12.3892L31.8411 12.3887ZM27.4544 16.603C26.8783 14.9365 25.5687 13.627 23.9024 13.051L24.7701 12.1833H24.7699C25.6492 12.353 26.4573 12.782 27.0903 13.4151C27.7234 14.0482 28.1524 14.8562 28.3221 15.7353L27.4544 16.603ZM16.1182 27.9392C15.9054 27.315 15.5851 26.7329 15.1717 26.2191L25.6044 15.7913C26.0133 16.336 26.2927 16.9668 26.4214 17.6358L16.1182 27.9392ZM22.8643 14.0785C23.5338 14.2062 24.1655 14.4848 24.7115 14.8929L14.281 25.3284C13.7668 24.917 13.1846 24.5984 12.5609 24.3871L22.8643 14.0785ZM10.8001 28.7787C11.165 29.0206 11.4781 29.3328 11.7211 29.6971L10.5234 29.9737L10.8001 28.7787ZM14.9585 28.9461L13.0151 29.3875C12.5866 28.5769 11.9233 27.9145 11.1122 27.4873L11.5639 25.5412C11.5745 25.5046 11.5879 25.469 11.6044 25.4347C12.4612 25.6042 13.2478 26.0251 13.8643 26.6438C14.4807 27.2626 14.8987 28.0508 15.0651 28.9081C15.0307 28.9244 14.9952 28.938 14.9585 28.9487L14.9585 28.9461ZM30.0575 13.9994L29.3572 14.6997C28.7811 13.0333 27.4714 11.7238 25.8052 11.1478L26.5055 10.4475H26.5053C26.8635 10.1 27.3462 9.91084 27.845 9.92217C28.5662 9.93969 29.2517 10.2406 29.7529 10.7594C30.7271 11.7337 30.8668 13.1901 30.0575 13.9994H30.0575Z" fill="#1C2128"/>
<path d="M14.0962 18.9522C14.3532 18.9528 14.5849 18.7983 14.6833 18.5609C14.7817 18.3236 14.7271 18.0503 14.5452 17.869L13.6902 17.014L14.9944 15.7098C15.2423 15.4617 15.2423 15.0596 14.9944 14.8117C14.7463 14.5635 14.3441 14.5635 14.0962 14.8117L12.7921 16.1158L11.8077 15.1314L13.1118 13.8273C13.3598 13.5792 13.3598 13.177 13.1118 12.9291C12.8637 12.681 12.4616 12.681 12.2137 12.9291L10.9095 14.2333L9.78551 13.1091C9.76109 13.0836 9.76109 13.0435 9.78551 13.0178L13.5177 9.28566C13.5433 9.26124 13.5835 9.26124 13.609 9.28566L18.3689 14.0451C18.6197 14.2695 19.0022 14.2587 19.2402 14.0209C19.478 13.7828 19.4888 13.4004 19.2644 13.1496L14.5072 8.38971C14.2571 8.14017 13.918 8 13.5648 8C13.2113 8 12.8723 8.14017 12.6222 8.38971L8.88983 12.122C8.64029 12.3721 8.50012 12.7112 8.50012 13.0646C8.50012 13.4179 8.64029 13.757 8.88983 14.0071L13.6498 18.7643C13.7676 18.8837 13.9283 18.9513 14.0963 18.9521L14.0962 18.9522Z" fill="#1C2128"/>
<path d="M27.3502 21.2354C27.1023 20.9873 26.7002 20.9873 26.4521 21.2354C26.2041 21.4834 26.2041 21.8855 26.4521 22.1336L31.2142 26.8908C31.2387 26.9163 31.2387 26.9564 31.2142 26.9821L27.4821 30.7142C27.4564 30.7387 27.4163 30.7387 27.3908 30.7142L26.2643 29.5878L27.5685 28.2836H27.5683C27.8164 28.0357 27.8164 27.6336 27.5683 27.3855C27.3203 27.1375 26.9182 27.1375 26.6701 27.3855L25.366 28.6896L24.3816 27.7052L25.6858 26.4011C25.9337 26.153 25.9337 25.7508 25.6858 25.5029C25.4376 25.2548 25.0355 25.2548 24.7876 25.5029L23.4834 26.8071L22.6309 25.9546C22.3802 25.7302 21.9977 25.741 21.7597 25.9788C21.5218 26.2169 21.511 26.5993 21.7355 26.8501L26.4927 31.61C26.7427 31.8596 27.0818 31.9997 27.4351 31.9997C27.7885 31.9997 28.1276 31.8596 28.3777 31.61L32.11 27.8777C32.3596 27.6276 32.4997 27.2885 32.4997 26.9351C32.4997 26.5818 32.3596 26.2427 32.11 25.9927L27.3502 21.2354Z" fill="#1C2128"/>
</svg>
