<svg width="44" height="36" viewBox="0 0 44 36" fill="none" xmlns="http://www.w3.org/2000/svg">
<path d="M38.945 0.457275C37.8103 0.45848 36.7138 0.868431 35.8563 1.61186C34.9991 2.35525 34.4378 3.3824 34.2758 4.5056H5.8836V1.132C5.8836 0.953075 5.81251 0.78138 5.686 0.654872C5.55949 0.528364 5.3878 0.457275 5.20888 0.457275C3.95675 0.458781 2.75606 0.956692 1.87083 1.84226C0.985287 2.7275 0.487382 3.92819 0.48584 5.18032V30.8197C0.487346 32.0718 0.985256 33.2725 1.87083 34.1577C2.75606 35.0433 3.95675 35.5412 5.20888 35.5427H38.9449C40.197 35.5412 41.3977 35.0433 42.2829 34.1577C43.1685 33.2725 43.6664 32.0718 43.6679 30.8197V5.18032C43.6664 3.92819 43.1685 2.7275 42.2829 1.84226C41.3977 0.956722 40.197 0.458818 38.9449 0.457275H38.945ZM38.945 34.1933C38.0503 34.1933 37.1922 33.8378 36.5593 33.2053C35.9268 32.5725 35.5714 31.7143 35.5714 30.8197C35.5714 29.925 35.9268 29.067 36.5593 28.434C37.1922 27.8015 38.0503 27.4461 38.945 27.4461C39.8396 27.4461 40.6977 27.8015 41.3306 28.434C41.9632 29.0669 42.3186 29.925 42.3186 30.8197C42.3174 31.714 41.9616 32.5716 41.3294 33.2041C40.6968 33.8364 39.8393 34.1921 38.945 34.1933ZM38.945 26.0966C37.6862 26.0954 36.479 26.5973 35.5919 27.4903C34.7051 28.3838 34.2118 29.5943 34.2219 30.8531C34.2322 32.1118 34.7448 33.3146 35.6464 34.1932H5.20919C4.00402 34.1932 2.89016 33.5501 2.28769 32.5064C1.68496 31.4627 1.68496 30.1765 2.28769 29.1328C2.89012 28.0891 4.00402 27.446 5.20919 27.446C5.38811 27.446 5.55981 27.3749 5.68631 27.2484C5.81282 27.1219 5.88391 26.9502 5.88391 26.7713V7.87912C5.88391 7.50652 5.58179 7.2044 5.20919 7.2044C4.83659 7.2044 4.53447 7.50652 4.53447 7.87912V26.1444C3.50851 26.2929 2.56005 26.7751 1.83559 27.5167V5.18001C1.83649 4.40258 2.10548 3.6492 2.59706 3.04681C3.08864 2.44468 3.773 2.03049 4.53447 1.87388V5.18001C4.53447 5.35893 4.60556 5.53062 4.73207 5.65713C4.85858 5.78364 5.03027 5.85473 5.20919 5.85473H34.2222V25.4216C34.2222 25.7942 34.5243 26.0963 34.8969 26.0963C35.2695 26.0963 35.5716 25.7942 35.5716 25.4216V5.18001C35.5716 3.97484 36.2147 2.86098 37.2584 2.25851C38.3021 1.65578 39.5883 1.65578 40.632 2.25851C41.6757 2.86094 42.3188 3.97484 42.3188 5.18001V27.5206C41.4326 26.6097 40.216 26.0958 38.9452 26.0961L38.945 26.0966Z" fill="#7B7F87"/>
</svg>
