<svg width="24" height="24" viewBox="0 0 24 24" fill="none" xmlns="http://www.w3.org/2000/svg">
<path d="M21.3242 8.72733C21.1386 8.58898 20.9939 8.40307 20.9051 8.18944C20.8164 7.97563 20.7869 7.74198 20.8199 7.51284C21.2521 4.79594 20.7582 3.96223 20.3876 3.59182C20.0171 3.22122 19.1938 2.7376 16.4769 3.16988C16.011 3.23018 15.5484 3.03807 15.2624 2.66556C13.4819 0.277918 12.5352 0 11.9897 0C11.4442 0 10.4975 0.277909 8.71701 2.66556C8.5771 2.8494 8.3912 2.99292 8.17771 3.08147C7.96441 3.17003 7.73148 3.20053 7.50248 3.16986C4.78558 2.73758 3.96219 3.23154 3.59178 3.59181C3.22118 3.95207 2.77871 4.79597 3.1595 7.51283C3.1924 7.74197 3.16294 7.97559 3.07421 8.18943C2.98548 8.40307 2.84075 8.58897 2.65519 8.72731C0.267553 10.5078 0 11.4545 0 12C0 12.5455 0.26757 13.4922 2.65519 15.2727C2.84075 15.411 2.98548 15.597 3.07421 15.8106C3.16294 16.0244 3.1924 16.258 3.1595 16.4872C2.77873 19.2247 3.22117 20.0378 3.59178 20.4082C3.96221 20.7786 4.76511 21.2213 7.50265 20.8301H7.50248C7.73146 20.7995 7.96441 20.83 8.17771 20.9185C8.39118 21.0071 8.57709 21.1506 8.71701 21.3344C10.4975 23.7221 11.4442 24 11.9897 24C12.5352 24 13.4819 23.7221 15.2624 21.3344C15.4023 21.1506 15.5882 21.0071 15.8017 20.9185C16.015 20.83 16.2479 20.7995 16.4769 20.8301C19.2145 21.2212 20.0172 20.7685 20.3878 20.4082C20.7582 20.0479 21.2009 19.2247 20.8201 16.4872H20.8199C20.787 16.258 20.8165 16.0244 20.9052 15.8106C20.9939 15.5969 21.1387 15.411 21.3242 15.2727C23.7118 13.4922 23.9794 12.5455 23.9794 12C23.9794 11.4545 23.7118 10.5078 21.3242 8.72731L21.3242 8.72733ZM20.3979 14.0585C19.9923 14.3633 19.676 14.7715 19.4823 15.2405C19.2887 15.7095 19.2244 16.2218 19.2968 16.7241C19.585 18.8441 19.2968 19.3176 19.2968 19.3279C19.2968 19.3383 18.7925 19.6264 16.6827 19.3279L16.6826 19.3278C16.1872 19.259 15.6822 19.3228 15.2194 19.5126C14.7567 19.7025 14.3525 20.0116 14.048 20.4084C12.6071 22.3329 11.9896 22.4668 11.9896 22.4668C11.9896 22.4668 11.3825 22.3433 9.93125 20.4084C9.39782 19.6944 8.55842 19.2747 7.66715 19.2763C7.53363 19.2661 7.39941 19.2661 7.26571 19.2763C6.41405 19.487 5.52401 19.487 4.67235 19.2763C4.67235 19.2763 4.37394 18.772 4.67235 16.6519C4.7945 15.6552 4.37945 14.6681 3.58141 14.0586C1.66726 12.6177 1.52303 12.0002 1.52303 12.0002C1.52303 12.0002 1.63622 11.393 3.58141 9.94179C3.98371 9.6389 4.29779 9.234 4.49147 8.76899C4.68495 8.30397 4.75094 7.7959 4.68254 7.29692C4.39429 5.17687 4.68254 4.70338 4.68254 4.69306C4.68254 4.68274 5.18686 4.39465 7.29658 4.69306H7.29675C7.79397 4.75957 8.30019 4.69272 8.76313 4.49923C9.22608 4.30558 9.62926 3.99253 9.93126 3.59195C11.3721 1.66744 11.9896 1.53357 11.9896 1.53357C11.9896 1.53357 12.5968 1.65711 14.048 3.59195C14.3509 3.99426 14.7558 4.30834 15.2208 4.50201C15.6859 4.6955 16.1939 4.76149 16.6929 4.69308C17.5446 4.48254 18.4348 4.48254 19.2864 4.69308C19.2864 4.69308 19.5848 5.1974 19.2864 7.31745C19.223 7.81418 19.2925 8.31881 19.4877 8.77986C19.6831 9.24091 19.9972 9.64184 20.3979 9.94181C22.3121 11.3827 22.4563 12.0002 22.4563 12.0002C22.4563 12.0002 22.2812 12.5971 20.3979 14.0585Z" fill="#1C2028"/>
<path d="M14.5316 9.39557L10.9604 12.9669L9.44753 11.454C9.25043 11.2705 8.97202 11.2028 8.71271 11.2755C8.45358 11.3483 8.25096 11.551 8.17809 11.8101C8.10539 12.0694 8.1731 12.3478 8.35659 12.5449L10.415 14.6033C10.5597 14.7477 10.7558 14.829 10.9604 14.829C11.165 14.829 11.3612 14.7477 11.5059 14.6033L15.6225 10.4867V10.4865C15.806 10.2896 15.8737 10.0112 15.801 9.75188C15.7281 9.49258 15.5255 9.28995 15.2664 9.21726C15.0071 9.14438 14.7287 9.21208 14.5316 9.39557Z" fill="#1C2028"/>
</svg>
